<?xml version="1.0" encoding="utf-8"?>
<!-- Generator: Adobe Illustrator 24.0.1, SVG Export Plug-In . SVG Version: 6.00 Build 0)  -->
<svg version="1.1" id="Camada_1" xmlns="http://www.w3.org/2000/svg" xmlns:xlink="http://www.w3.org/1999/xlink" x="0px" y="0px"
	 viewBox="0 0 48 48" style="enable-background:new 0 0 48 48;" xml:space="preserve">
<style type="text/css">
	.st0{fill:url(#SVGID_1_);}
	.st1{fill:url(#SVGID_2_);}
</style>
<g>
	<linearGradient id="SVGID_1_" gradientUnits="userSpaceOnUse" x1="31.5978" y1="7.3631" x2="32.9028" y2="30.0908">
		<stop  offset="0" style="stop-color:#FF7043"/>
		<stop  offset="1" style="stop-color:#FF3200"/>
	</linearGradient>
	<path class="st0" d="M41.93,12.89c-2.5-2.22-5.8-3.57-9.41-3.57c-2.61,0-5.06,0.71-7.17,1.94c0.68,1.15,1.58,2.16,2.64,2.96
		c1.37-0.67,2.9-1.04,4.52-1.04c0.27,0,0.54,0.01,0.8,0.03c0.99,0.08,1.94,0.29,2.84,0.63c0.01,0,0.02,0.01,0.03,0.01
		c0.04,0.01,0.07,0.03,0.11,0.04c0.01,0,0.01,0,0.02,0.01c0.11,0.04,0.22,0.09,0.33,0.14c0.05,0.02,0.09,0.04,0.14,0.06
		c0.7,0.32,1.36,0.72,1.97,1.18c2.48,1.89,4.08,4.87,4.08,8.22v10.32H32.52c-0.67,0-1.32-0.06-1.95-0.18
		c-0.12-0.02-0.24-0.05-0.36-0.08c-0.95-0.22-1.84-0.56-2.67-1.02c-1.14-0.63-2.15-1.47-2.97-2.47c0,0,0,0-0.01-0.01
		c-1.47-1.78-2.35-4.07-2.35-6.56c0-2.35,0.79-4.52,2.12-6.26c0.01-0.01,0.01-0.01,0.02-0.02c0.78-1.02,1.76-1.89,2.86-2.56
		c-0.86-1.02-1.86-1.92-2.98-2.66c-1.08,0.78-2.04,1.7-2.86,2.75c-0.01,0.01-0.01,0.02-0.02,0.02c-1.88,2.41-3.01,5.44-3.01,8.73
		c0,3.48,1.25,6.66,3.33,9.13c0,0.01,0.01,0.01,0.01,0.02c0.86,1.02,1.86,1.92,2.98,2.66c2.25,1.5,4.96,2.38,7.87,2.38h14.19V23.51
		C46.71,19.28,44.86,15.49,41.93,12.89z"/>
	<linearGradient id="SVGID_2_" gradientUnits="userSpaceOnUse" x1="15.0695" y1="8.3122" x2="16.3744" y2="31.0399">
		<stop  offset="0" style="stop-color:#FF7043"/>
		<stop  offset="1" style="stop-color:#FF3200"/>
	</linearGradient>
	<path class="st1" d="M26.17,27c-0.01,0.03-0.02,0.06-0.03,0.09c-0.01,0.04-0.02,0.07-0.04,0.11c-0.18,0.53-0.41,1.03-0.67,1.52
		c0.69,1.17,1.61,2.2,2.69,3.01c1.52-2.26,2.41-4.99,2.41-7.92c0-3.12-1-6-2.71-8.34c-0.2-0.28-0.41-0.54-0.63-0.8
		c0,0,0-0.01-0.01-0.01c-0.86-1.02-1.86-1.92-2.98-2.66c-2.25-1.5-4.96-2.38-7.87-2.38c-7.83,0-14.19,6.35-14.19,14.19V38h14.19
		c3.1,0,5.97-1,8.3-2.68c1.08-0.78,2.05-1.72,2.88-2.77c0,0,0,0,0,0c-1.14-0.63-2.15-1.48-2.97-2.48c0,0,0,0,0,0.01
		c-0.79,1.03-1.76,1.91-2.88,2.58c-1.56,0.94-3.38,1.48-5.33,1.48H6.03V23.81c0-1.26,0.23-2.47,0.64-3.59
		c0.01-0.04,0.03-0.07,0.04-0.11c0.02-0.04,0.03-0.08,0.05-0.12c0.01-0.03,0.02-0.06,0.04-0.09c0.02-0.06,0.05-0.12,0.07-0.18
		c1.58-3.67,5.23-6.24,9.49-6.24c1.81,0,3.51,0.47,4.99,1.28c1.14,0.63,2.15,1.47,2.97,2.47c0,0,0.01,0.01,0.01,0.01
		c0.34,0.42,0.65,0.86,0.93,1.33c0.9,1.53,1.42,3.32,1.42,5.23c0,1.07-0.16,2.1-0.46,3.07C26.2,26.92,26.19,26.96,26.17,27z"/>
</g>
</svg>
