<?xml version="1.0" encoding="utf-8"?>
<!-- Generator: Adobe Illustrator 24.0.1, SVG Export Plug-In . SVG Version: 6.00 Build 0)  -->
<svg version="1.1" xmlns="http://www.w3.org/2000/svg" xmlns:xlink="http://www.w3.org/1999/xlink" x="0px" y="0px"
	 viewBox="0 0 750 500" style="enable-background:new 0 0 750 500;" xml:space="preserve">
<style type="text/css">
	.st0{fill:#F5F5F5;}
	.st1{fill:#E0E0E0;}
	.st2{fill:#EBEBEB;}
	.st3{fill:#FAFAFA;}
	.st4{fill:#263238;}
	.st5{fill:#3C3644;}
	.st6{fill:#FF583F;}
	.st7{display:none;opacity:0.3;}
	.st8{display:inline;}
	.st9{fill:#FFFFFF;}
	.st10{opacity:0.3;}
	.st11{fill:#FF634B;}
	.st12{fill:#EB996E;}
	.st13{fill:#FFBE9D;}
	.st14{fill:#E6E6E6;}
	.st15{fill:#39393A;}
	.st16{opacity:0.6;fill:#E6E6E6;}
	.st17{opacity:0.6;}
	.st18{fill:#B78876;}
	.st19{fill:#AA6550;}
	.st20{fill:#2D0600;}
	.st21{fill:#E8505B;}
	.st22{display:none;}
	.st23{display:inline;fill:#E8505B;}
	.st24{fill:#221F27;}
	.st25{fill:#4A4353;}
	.st26{fill:#342F3A;}
</style>
<g id="Background_Complete">
	<g>
		<g>
			<path class="st0" d="M160.78,96.06c-0.39-24.22,18.92-44.25,43.03-44.64c24.11-0.39,44.05,19,44.43,43.23
				c0.39,24.22-18.92,44.25-43.03,44.64C181.1,139.67,161.17,120.28,160.78,96.06z M225.42,95.01
				c-0.19-11.58-9.72-20.85-21.24-20.67c-11.53,0.19-20.76,9.76-20.57,21.34c0.19,11.58,9.72,20.85,21.24,20.67
				C216.37,116.17,225.6,106.6,225.42,95.01z"/>
		</g>
		<g>
			<path class="st1" d="M160.78,96.06c-0.39-24.22,18.91-44.25,43.03-44.64l0.37,22.93c-11.53,0.19-20.76,9.76-20.57,21.34
				c0.19,11.58,9.72,20.85,21.24,20.67l0.37,22.93C181.1,139.67,161.17,120.28,160.78,96.06z"/>
		</g>
		<g>
			<path class="st2" d="M199.88,47.89c28.21-0.46,50.71,21.44,51.17,49.78l-26.7,0.43c-0.22-13.55-10.53-22.08-24.02-21.86
				L199.88,47.89z"/>
		</g>
	</g>
	<g>
		<rect x="40.68" y="211.34" class="st1" width="11.33" height="45.24"/>
		<rect x="57.34" y="221.21" class="st1" width="11.33" height="35.37"/>
		<rect x="74.25" y="229.29" class="st1" width="11.33" height="27.29"/>
		<rect x="89.91" y="240.37" class="st1" width="11.33" height="16.21"/>
	</g>
	<g>
		<rect x="177.59" y="235.76" class="st3" width="137.75" height="85.26"/>
		<g>
			<path class="st2" d="M282.08,297.41c-9.55-3.62-20.54,6.39-29.9,2.31c-5.45-2.38-7.92-8.54-10.59-13.85
				c-2.67-5.31-7.27-10.91-13.18-10.3c-5.96,0.62-10.79,7.53-16.55,5.86c-3.63-1.05-5.44-5.08-6.35-8.74
				c-0.91-3.67-1.54-7.72-4.31-10.29c-2.77-2.57-8.54-1.88-8.97,1.87v45.2h107.72C299.95,309.46,285.39,298.66,282.08,297.41z"/>
		</g>
		<g>
			<g>
				<path class="st1" d="M302.83,309.46c0,0.1-26.11,0.18-58.31,0.18c-32.21,0-58.32-0.08-58.32-0.18c0-0.1,26.11-0.18,58.32-0.18
					C276.72,309.29,302.83,309.37,302.83,309.46z"/>
			</g>
		</g>
		<g>
			<g>
				<path class="st1" d="M302.83,289.72c0,0.1-26.11,0.18-58.31,0.18c-32.21,0-58.32-0.08-58.32-0.18c0-0.1,26.11-0.18,58.32-0.18
					C276.72,289.55,302.83,289.62,302.83,289.72z"/>
			</g>
		</g>
		<g>
			<g>
				<path class="st1" d="M302.83,269.98c0,0.1-26.11,0.18-58.31,0.18c-32.21,0-58.32-0.08-58.32-0.18c0-0.1,26.11-0.18,58.32-0.18
					C276.72,269.8,302.83,269.88,302.83,269.98z"/>
			</g>
		</g>
		<g>
			<g>
				<path class="st1" d="M302.83,251.22c0,0.1-26.11,0.18-58.31,0.18c-32.21,0-58.32-0.08-58.32-0.18s26.11-0.18,58.32-0.18
					C276.72,251.04,302.83,251.12,302.83,251.22z"/>
			</g>
		</g>
	</g>
	<g>
		<rect x="467.81" y="75.52" class="st3" width="213.13" height="80.77"/>
		<g>
			<path class="st2" d="M662.96,94.62c0,0.14-36.22,0.26-80.89,0.26c-44.68,0-80.9-0.12-80.9-0.26s36.21-0.26,80.9-0.26
				C626.74,94.36,662.96,94.48,662.96,94.62z"/>
		</g>
		<g>
			<path class="st2" d="M662.96,104.18c0,0.14-36.22,0.26-80.89,0.26c-44.68,0-80.9-0.12-80.9-0.26s36.21-0.26,80.9-0.26
				C626.74,103.92,662.96,104.04,662.96,104.18z"/>
		</g>
		<g>
			<path class="st2" d="M662.96,113.74c0,0.14-36.22,0.26-80.89,0.26c-44.68,0-80.9-0.12-80.9-0.26c0-0.14,36.21-0.26,80.9-0.26
				C626.74,113.48,662.96,113.59,662.96,113.74z"/>
		</g>
		<g>
			<path class="st2" d="M662.96,123.29c0,0.14-36.22,0.26-80.89,0.26c-44.68,0-80.9-0.12-80.9-0.26s36.21-0.26,80.9-0.26
				C626.74,123.03,662.96,123.15,662.96,123.29z"/>
		</g>
		<g>
			<path class="st2" d="M662.96,132.85c0,0.14-36.22,0.26-80.89,0.26c-44.68,0-80.9-0.12-80.9-0.26s36.21-0.26,80.9-0.26
				C626.74,132.59,662.96,132.71,662.96,132.85z"/>
		</g>
		<g>
			<path class="st1" d="M648.87,121.72c0,0-0.11,0.15-0.35,0.42c-0.27,0.24-0.69,0.61-1.36,0.86c-1.3,0.51-3.68,0.54-5.9-1.08
				c-1.08-0.84-2.01-2.06-2.78-3.5c-0.78-1.45-1.39-3.12-2.12-4.87c-0.74-1.73-1.65-3.59-3.17-5.08c-0.76-0.74-1.69-1.34-2.75-1.68
				c-1.06-0.32-2.23-0.4-3.38-0.19c-2.33,0.39-4.56,1.67-6.45,3.42c-1.93,1.74-3.62,3.88-5.69,5.82c-2.04,1.94-4.71,3.6-7.81,3.84
				c-1.54,0.1-3.15-0.29-4.47-1.19c-1.32-0.9-2.32-2.21-3.12-3.59c-1.61-2.78-2.42-6.01-4.51-8.54c-1.01-1.25-2.33-2.35-3.92-2.71
				c-1.58-0.39-3.3,0.07-4.6,1.1c-1.32,1.02-2.32,2.46-3.02,4.02c-0.7,1.57-1.06,3.3-1.43,5.03c-0.37,1.74-0.73,3.52-1.42,5.22
				c-0.33,0.86-0.78,1.67-1.31,2.44c-0.56,0.74-1.18,1.45-1.91,2.03c-1.43,1.21-3.15,2.03-4.93,2.46c-1.79,0.45-3.67,0.48-5.44,0.08
				c-1.8-0.37-3.4-1.32-4.81-2.37c-1.42-1.06-2.71-2.23-4.06-3.28c-1.35-1.03-2.77-2-4.37-2.38c-1.58-0.43-3.28-0.17-4.68,0.61
				c-1.41,0.78-2.56,1.96-3.49,3.25c-0.93,1.29-1.64,2.73-2.36,4.14c-0.71,1.41-1.43,2.82-2.34,4.1c-0.89,1.29-2.03,2.4-3.36,3.18
				c-1.31,0.79-2.87,1.24-4.38,1.03c-1.52-0.2-2.85-1.05-3.8-2.12c-0.97-1.08-1.64-2.35-2.1-3.65c-0.45-1.3-0.71-2.63-0.96-3.91
				c-0.47-2.56-0.92-5.06-2.25-7.04c-1.24-1.98-3.1-3.55-5.2-3.87c-1.04-0.15-2.08,0-2.99,0.37c-0.92,0.37-1.72,0.95-2.41,1.58
				c-2.73,2.62-4.05,5.78-6.07,7.6c-1.92,1.9-3.99,2.78-5.43,2.73c-0.71-0.01-1.25-0.15-1.58-0.28c-0.33-0.14-0.5-0.23-0.5-0.23
				c0.01-0.07,0.67,0.41,2.08,0.4c1.41,0.01,3.42-0.87,5.29-2.77c1.97-1.82,3.24-4.97,6.01-7.67c0.7-0.66,1.52-1.26,2.49-1.66
				c0.96-0.4,2.06-0.57,3.16-0.41c2.23,0.32,4.18,1.96,5.46,4c0.66,1.02,1.17,2.17,1.51,3.4c0.35,1.22,0.58,2.49,0.82,3.77
				c0.25,1.28,0.51,2.58,0.96,3.85c0.45,1.26,1.1,2.48,2.02,3.49c0.91,1.01,2.15,1.8,3.54,1.97c1.39,0.19,2.84-0.23,4.09-0.98
				c1.26-0.75,2.35-1.82,3.21-3.06c0.88-1.25,1.58-2.63,2.29-4.05c0.72-1.41,1.43-2.87,2.39-4.21c0.96-1.33,2.15-2.57,3.65-3.4
				c1.49-0.83,3.34-1.12,5.04-0.66c1.72,0.41,3.19,1.42,4.56,2.47c1.37,1.07,2.66,2.24,4.05,3.27c1.39,1.03,2.9,1.94,4.61,2.28
				c1.69,0.38,3.49,0.36,5.21-0.08c1.71-0.42,3.36-1.21,4.73-2.36c0.7-0.55,1.28-1.24,1.82-1.94c0.49-0.73,0.93-1.51,1.25-2.33
				c0.66-1.65,1.02-3.4,1.39-5.14c0.38-1.74,0.73-3.49,1.47-5.14c0.73-1.62,1.77-3.13,3.18-4.22c1.39-1.11,3.29-1.62,5.02-1.19
				c1.75,0.4,3.14,1.59,4.19,2.89c2.17,2.65,2.98,5.92,4.54,8.61c0.77,1.35,1.73,2.59,2.96,3.44c1.24,0.85,2.73,1.21,4.18,1.12
				c2.94-0.22,5.54-1.81,7.55-3.7c2.05-1.9,3.75-4.04,5.72-5.81c1.94-1.78,4.24-3.09,6.66-3.49c1.2-0.21,2.43-0.13,3.55,0.22
				c1.12,0.36,2.09,1,2.87,1.77c1.56,1.56,2.47,3.46,3.2,5.21c0.72,1.77,1.32,3.43,2.07,4.87c0.74,1.43,1.65,2.64,2.68,3.46
				c2.14,1.6,4.47,1.62,5.75,1.15C648.45,122.4,648.84,121.67,648.87,121.72z"/>
		</g>
		<g>
			<path class="st1" d="M659.11,119.49c0,0-0.19,0.02-0.56,0.04c-0.19-0.01-0.41-0.06-0.69-0.09c-0.26-0.09-0.58-0.15-0.9-0.33
				c-1.35-0.58-3.02-1.98-4.82-4.06c-0.45-0.52-0.91-1.08-1.38-1.68c-0.48-0.59-0.91-1.28-1.49-1.84c-1.17-1.14-2.85-1.99-4.76-2.17
				c-0.95-0.09-1.95,0.02-2.91,0.37c-0.95,0.35-1.82,0.99-2.59,1.75c-1.56,1.53-2.73,3.58-4.26,5.51c-0.77,0.96-1.64,1.91-2.73,2.65
				c-1.08,0.74-2.37,1.23-3.73,1.4c-2.73,0.32-5.55-0.43-8.21-1.54c-2.68-1.12-5.25-2.65-8.14-3.64c-1.43-0.5-2.94-0.85-4.49-0.9
				c-1.54-0.03-3.11,0.28-4.53,0.99c-2.89,1.38-5.15,3.91-7.87,5.97c-1.35,1.05-2.9,1.92-4.56,2.5c-1.66,0.58-3.44,0.86-5.22,0.9
				c-3.58,0.06-7.22-0.94-10.36-2.87c-3.15-1.93-5.82-4.67-7.86-7.83c-2.11-3.16-3.26-6.74-4.79-10.01
				c-0.77-1.63-1.64-3.21-2.78-4.56c-1.15-1.33-2.54-2.45-4.1-3.17c-1.56-0.72-3.32-0.96-4.94-0.52c-1.62,0.42-3.03,1.45-4.1,2.7
				c-1.09,1.26-1.89,2.73-2.46,4.26c-0.57,1.54-0.93,3.13-1.27,4.71c-0.34,1.58-0.64,3.16-1.07,4.69c-0.42,1.53-1.02,3.01-1.76,4.37
				c-1.48,2.73-3.56,5.02-5.94,6.7c-2.37,1.71-5.06,2.76-7.75,3.13c-2.7,0.35-5.34-0.04-7.66-0.89c-4.69-1.69-8-5.33-9.24-9.06
				c-0.64-1.86-0.96-3.65-1.42-5.24c-0.46-1.59-1.01-3.03-1.84-4.1c-1.7-2.14-3.94-2.88-5.34-2.74c-1.45,0.14-2,0.81-2.03,0.74
				c0,0.05,0.54-0.66,2.02-0.84c1.44-0.17,3.74,0.54,5.51,2.72c0.88,1.09,1.44,2.55,1.92,4.15c0.48,1.61,0.82,3.39,1.46,5.22
				c1.24,3.64,4.49,7.18,9.09,8.81c2.28,0.82,4.86,1.18,7.48,0.83c2.61-0.38,5.24-1.41,7.55-3.09c2.32-1.65,4.34-3.9,5.79-6.57
				c1.5-2.66,2.13-5.77,2.77-8.94c0.33-1.59,0.7-3.2,1.28-4.78c0.58-1.58,1.4-3.1,2.54-4.42c1.12-1.31,2.61-2.41,4.35-2.86
				c1.74-0.47,3.64-0.21,5.28,0.54c1.65,0.75,3.09,1.92,4.28,3.3c1.19,1.4,2.08,3.01,2.86,4.67c1.55,3.32,2.68,6.86,4.75,9.95
				c2.01,3.11,4.63,5.79,7.7,7.67c3.06,1.89,6.61,2.86,10.09,2.8c1.74-0.04,3.46-0.31,5.06-0.87c1.61-0.56,3.09-1.39,4.42-2.42
				c2.68-2.01,4.95-4.56,7.96-6.01c1.48-0.74,3.14-1.06,4.75-1.03c1.61,0.06,3.17,0.42,4.63,0.94c2.94,1.01,5.52,2.57,8.15,3.67
				c2.62,1.1,5.38,1.84,8,1.54c1.3-0.15,2.53-0.61,3.56-1.32c1.04-0.7,1.89-1.62,2.66-2.56c1.52-1.9,2.71-3.95,4.32-5.52
				c0.8-0.78,1.71-1.44,2.71-1.8c1.01-0.35,2.05-0.47,3.04-0.36c1.98,0.2,3.71,1.09,4.91,2.28c0.61,0.6,1.03,1.29,1.5,1.88
				c0.46,0.6,0.91,1.17,1.35,1.69c1.76,2.08,3.4,3.5,4.71,4.1C658.3,119.68,659.12,119.42,659.11,119.49z"/>
		</g>
		<g>
			<path class="st1" d="M490.07,95.1c0,0.14-0.96,0.26-2.14,0.26c-1.18,0-2.14-0.12-2.14-0.26s0.96-0.26,2.14-0.26
				C489.11,94.84,490.07,94.95,490.07,95.1z"/>
		</g>
		<g>
			<path class="st1" d="M490.07,104.18c0,0.14-0.96,0.26-2.14,0.26c-1.18,0-2.14-0.12-2.14-0.26s0.96-0.26,2.14-0.26
				C489.11,103.92,490.07,104.04,490.07,104.18z"/>
		</g>
		<g>
			<path class="st1" d="M490.07,113.26c0,0.14-0.96,0.26-2.14,0.26c-1.18,0-2.14-0.12-2.14-0.26s0.96-0.26,2.14-0.26
				C489.11,113,490.07,113.12,490.07,113.26z"/>
		</g>
		<g>
			<path class="st1" d="M490.07,122.34c0,0.14-0.96,0.26-2.14,0.26c-1.18,0-2.14-0.12-2.14-0.26s0.96-0.26,2.14-0.26
				C489.11,122.08,490.07,122.2,490.07,122.34z"/>
		</g>
		<g>
			<path class="st1" d="M490.07,131.43c0,0.14-0.96,0.26-2.14,0.26c-1.18,0-2.14-0.12-2.14-0.26s0.96-0.26,2.14-0.26
				C489.11,131.16,490.07,131.28,490.07,131.43z"/>
		</g>
		<g>
			<path class="st1" d="M509.73,143.1c0,0.14-1.92,0.26-4.28,0.26c-2.36,0-4.28-0.12-4.28-0.26c0-0.14,1.92-0.26,4.28-0.26
				C507.82,142.84,509.73,142.96,509.73,143.1z"/>
		</g>
		<g>
			<path class="st1" d="M547.45,143.1c0,0.14-1.92,0.26-4.28,0.26c-2.36,0-4.28-0.12-4.28-0.26c0-0.14,1.92-0.26,4.28-0.26
				C545.54,142.84,547.45,142.96,547.45,143.1z"/>
		</g>
		<g>
			<path class="st1" d="M585.18,143.1c0,0.14-1.92,0.26-4.28,0.26c-2.36,0-4.28-0.12-4.28-0.26c0-0.14,1.92-0.26,4.28-0.26
				C583.26,142.84,585.18,142.96,585.18,143.1z"/>
		</g>
		<g>
			<path class="st1" d="M622.9,143.1c0,0.14-1.92,0.26-4.28,0.26c-2.36,0-4.28-0.12-4.28-0.26c0-0.14,1.92-0.26,4.28-0.26
				C620.98,142.84,622.9,142.96,622.9,143.1z"/>
		</g>
		<g>
			<path class="st1" d="M660.62,143.1c0,0.14-1.92,0.26-4.28,0.26c-2.36,0-4.28-0.12-4.28-0.26c0-0.14,1.92-0.26,4.28-0.26
				C658.71,142.84,660.62,142.96,660.62,143.1z"/>
		</g>
	</g>
</g>
<g id="Chão">
	<g>
		<path class="st4" d="M702.93,461.49c0,0.14-145.94,0.26-325.92,0.26c-180.04,0-325.95-0.12-325.95-0.26
			c0-0.14,145.91-0.26,325.95-0.26C557,461.23,702.93,461.35,702.93,461.49z"/>
	</g>
</g>
<g id="Gráfico">
	<g>
		<g>
			<g>
				<g>
					<rect x="227.57" y="50.69" class="st3" width="266.07" height="174.52"/>
				</g>
			</g>
			<g>
				<g>
					<g>
						<path class="st4" d="M493.65,225.21c0-1.68-0.08-68.08-0.21-174.52l0.21,0.21c-73.02,0.01-165.61,0.03-266.05,0.05h-0.02
							l0.26-0.26c-0.01,62.06-0.01,121.13-0.02,174.52l-0.24-0.24C384.13,225.11,491.51,225.21,493.65,225.21
							c-2.13,0-109.52,0.1-266.07,0.24l-0.24,0v-0.24c-0.01-53.39-0.01-112.46-0.02-174.52v-0.26h0.26h0.02
							c100.44,0.02,193.04,0.04,266.05,0.05h0.21l0,0.21C493.73,157.13,493.65,223.53,493.65,225.21z"/>
					</g>
				</g>
			</g>
		</g>
		<g>
			<g>
				<g>
					<g>
						<path class="st5" d="M308.89,147.06l26.17,0.36c-0.2,13.95-11.95,25.31-26.17,25.31c-0.05,0-0.1,0-0.15,0L308.89,147.06z"/>
					</g>
				</g>
				<g>
					<g>
						<g>
							<path class="st4" d="M352.16,182.5c0,0.02-0.19,0.03-0.56,0.05c-0.41,0.01-0.94,0.02-1.6,0.04
								c-1.44,0.02-3.43,0.04-5.85,0.07l-0.07,0l-0.05-0.06c-2.33-2.94-5.35-6.74-8.63-10.88c-2.55-3.25-4.94-6.3-6.96-8.87
								l0.13,0.07c-3.15-0.03-5.79-0.05-7.7-0.07c-0.89-0.02-1.61-0.04-2.15-0.05c-0.5-0.02-0.76-0.03-0.76-0.05
								s0.26-0.04,0.76-0.05c0.55-0.01,1.27-0.03,2.15-0.05c1.91-0.02,4.55-0.04,7.7-0.07l0.08,0l0.05,0.07
								c2.03,2.57,4.44,5.6,7,8.84c3.26,4.16,6.25,7.98,8.56,10.93l-0.12-0.06c2.42,0.03,4.4,0.05,5.85,0.07
								c0.66,0.02,1.19,0.03,1.6,0.04C351.97,182.47,352.16,182.48,352.16,182.5z"/>
						</g>
					</g>
				</g>
				<g>
					<g>
						<g>
							<path class="st4" d="M361.55,185.52c0,0.11-3.79,0.2-8.47,0.2c-4.68,0-8.47-0.09-8.47-0.2c0-0.11,3.79-0.2,8.47-0.2
								C357.76,185.32,361.55,185.41,361.55,185.52z"/>
						</g>
					</g>
				</g>
				<g>
					<g>
						<g>
							<path class="st4" d="M361.55,188.65c0,0.11-3.79,0.2-8.47,0.2c-4.68,0-8.47-0.09-8.47-0.2c0-0.11,3.79-0.2,8.47-0.2
								C357.76,188.45,361.55,188.54,361.55,188.65z"/>
						</g>
					</g>
				</g>
			</g>
			<g>
				<g>
					<g>
						<path class="st6" d="M304.75,143.34l-0.37,25.67c-14.22-0.2-25.81-11.72-25.81-25.67c0-14.08,11.81-25.67,26.17-25.67
							c14.36,0,26.17,11.59,26.17,25.67H304.75z"/>
					</g>
				</g>
				<g>
					<g>
						<g>
							<path class="st4" d="M294.53,134.94c0,0.02-0.16,0.05-0.45,0.11c-0.36,0.06-0.79,0.13-1.3,0.21c-1.2,0.17-2.8,0.39-4.7,0.66
								l-0.08,0.01l-0.06-0.06c-1.79-1.74-3.94-3.84-6.27-6.1c-3.01-2.95-5.72-5.65-7.67-7.61c-0.93-0.95-1.7-1.73-2.29-2.34
								c-0.53-0.56-0.82-0.88-0.8-0.9s0.34,0.26,0.91,0.78c0.61,0.58,1.42,1.34,2.38,2.25c2,1.91,4.74,4.57,7.75,7.52
								c2.31,2.28,4.45,4.4,6.22,6.15l-0.14-0.05c1.91-0.21,3.51-0.39,4.72-0.52c0.52-0.05,0.95-0.09,1.31-0.12
								C294.37,134.93,294.53,134.93,294.53,134.94z"/>
						</g>
					</g>
				</g>
				<g>
					<g>
						<g>
							<path class="st4" d="M264.27,117.8c0,0.11-3.79,0.2-8.47,0.2c-4.68,0-8.47-0.09-8.47-0.2c0-0.11,3.79-0.2,8.47-0.2
								C260.48,117.6,264.27,117.69,264.27,117.8z"/>
						</g>
					</g>
				</g>
				<g>
					<g>
						<g>
							<path class="st4" d="M264.27,120.94c0,0.11-3.79,0.2-8.47,0.2c-4.68,0-8.47-0.09-8.47-0.2c0-0.11,3.79-0.2,8.47-0.2
								C260.48,120.74,264.27,120.83,264.27,120.94z"/>
						</g>
					</g>
				</g>
			</g>
		</g>
		<g>
			<g>
				<g>
					<g>
						<g>
							<path class="st5" d="M396.31,92.62l-0.1-15.95c-4.7,0.03-9.49,1.89-13.16,5.13c-4.33,3.82-7.1,9.57-6.34,16.52
								c0.08,0.76,0.2,1.53,0.37,2.32c0,0.02,0.01,0.04,0.01,0.06l0,0l19.22-4.33V92.62z"/>
						</g>
					</g>
					<g class="st7">
						<g class="st8">
							<path class="st9" d="M396.31,92.62l-0.1-15.95c-4.7,0.03-9.49,1.89-13.16,5.13c-4.33,3.82-7.1,9.57-6.34,16.52
								c0.08,0.76,0.2,1.53,0.37,2.32c0,0.02,0.01,0.04,0.01,0.06l0,0l19.22-4.33V92.62z"/>
						</g>
					</g>
					<g>
						<g>
							<path class="st6" d="M416.12,87.71c-2.69-5.61-7.98-10.11-15.51-10.86c-0.2-0.02-0.4-0.04-0.61-0.05
								c-0.13-0.01-0.26-0.02-0.39-0.03c-0.38-0.02-0.77-0.03-1.16-0.03c-0.02,0-0.03,0-0.05,0c0,0,0,0,0,0c-0.02,0-0.03,0-0.05,0v0
								v0l0.1,15.95l0.02,3.75l19.23,4.2l0.02,0.01v0c0.29-1.35,0.43-2.74,0.43-4.14C418.14,93.51,417.45,90.47,416.12,87.71z"/>
						</g>
					</g>
					<g class="st10">
						<g>
							<path d="M416.12,87.71c-2.69-5.61-7.98-10.11-15.51-10.86c-0.2-0.02-0.4-0.04-0.61-0.05c-0.13-0.01-0.26-0.02-0.39-0.03
								c-0.38-0.02-0.77-0.03-1.16-0.03c-0.02,0-0.03,0-0.05,0c0,0,0,0,0,0c-0.02,0-0.03,0-0.05,0v0v0l0.1,15.95l0.02,3.75
								l19.23,4.2l0.02,0.01v0c0.29-1.35,0.43-2.74,0.43-4.14C418.14,93.51,417.45,90.47,416.12,87.71z"/>
						</g>
					</g>
				</g>
				<g>
					<g>
						<path class="st11" d="M397.34,98.36l-19.22,4.33c1.97,8.8,9.83,15.38,19.22,15.38c9.44,0,17.33-6.64,19.25-15.51l-19.23-4.2"
							/>
					</g>
				</g>
			</g>
			<g>
				<g>
					<g>
						<path class="st4" d="M472.17,95.49c0,0.14-9.94,0.26-22.2,0.26c-12.26,0-22.2-0.12-22.2-0.26c0-0.14,9.94-0.26,22.2-0.26
							C462.23,95.23,472.17,95.35,472.17,95.49z"/>
					</g>
				</g>
			</g>
			<g>
				<g>
					<g>
						<path class="st4" d="M472.17,90.43c0,0.14-9.94,0.26-22.2,0.26c-12.26,0-22.2-0.12-22.2-0.26c0-0.14,9.94-0.26,22.2-0.26
							C462.23,90.17,472.17,90.29,472.17,90.43z"/>
					</g>
				</g>
			</g>
			<g>
				<g>
					<g>
						<path class="st4" d="M472.17,85.37c0,0.14-9.94,0.26-22.2,0.26c-12.26,0-22.2-0.12-22.2-0.26c0-0.14,9.94-0.26,22.2-0.26
							C462.23,85.11,472.17,85.22,472.17,85.37z"/>
					</g>
				</g>
			</g>
			<g>
				<g>
					<g>
						<path class="st4" d="M472.17,100.2c0,0.14-9.94,0.26-22.2,0.26c-12.26,0-22.2-0.12-22.2-0.26c0-0.14,9.94-0.26,22.2-0.26
							C462.23,99.94,472.17,100.05,472.17,100.2z"/>
					</g>
				</g>
			</g>
			<g>
				<g>
					<g>
						<path class="st4" d="M458.42,105.32c0,0.14-6.83,0.26-15.24,0.26c-8.42,0-15.25-0.12-15.25-0.26c0-0.14,6.82-0.26,15.25-0.26
							C451.59,105.06,458.42,105.18,458.42,105.32z"/>
					</g>
				</g>
			</g>
		</g>
		<g>
			<g>
				<g>
					<g>
						<rect x="381.21" y="141.95" class="st6" width="4.57" height="51.07"/>
					</g>
				</g>
			</g>
			<g>
				<g>
					<g>
						<rect x="390.04" y="159.29" class="st5" width="4.57" height="33.72"/>
					</g>
				</g>
			</g>
			<g>
				<g>
					<g>
						<rect x="398.87" y="148.3" class="st6" width="4.57" height="44.98"/>
					</g>
				</g>
			</g>
			<g>
				<g>
					<g>
						<rect x="407.7" y="143.92" class="st5" width="4.57" height="49.1"/>
					</g>
				</g>
			</g>
			<g>
				<g>
					<g>
						<rect x="416.53" y="160.33" class="st6" width="4.57" height="32.69"/>
					</g>
				</g>
			</g>
			<g>
				<g>
					<g>
						<rect x="425.35" y="166.74" class="st5" width="4.57" height="26.27"/>
					</g>
				</g>
			</g>
			<g>
				<g>
					<g>
						<rect x="434.18" y="147.19" class="st6" width="4.57" height="45.83"/>
					</g>
				</g>
			</g>
			<g>
				<g>
					<g>
						<rect x="443.01" y="155.45" class="st5" width="4.57" height="37.56"/>
					</g>
				</g>
			</g>
			<g>
				<g>
					<g>
						<rect x="451.84" y="148.85" class="st6" width="4.57" height="44.17"/>
					</g>
				</g>
			</g>
			<g>
				<g>
					<g>
						<rect x="460.67" y="162.93" class="st5" width="4.57" height="30.09"/>
					</g>
				</g>
			</g>
			<g>
				<g>
					<g>
						<rect x="469.49" y="157.2" class="st6" width="4.57" height="35.82"/>
					</g>
				</g>
			</g>
			<g>
				<g>
					<g>
						<g>
							<path class="st4" d="M475.93,196.57c0,0.1-21.69,0.19-48.44,0.19c-26.76,0-48.44-0.08-48.44-0.19
								c0-0.1,21.69-0.19,48.44-0.19C454.24,196.39,475.93,196.47,475.93,196.57z"/>
						</g>
					</g>
				</g>
			</g>
			<g>
				<g>
					<g>
						<g>
							<path class="st4" d="M387.74,200.59c0,0.1-1.52,0.19-3.39,0.19c-1.87,0-3.39-0.08-3.39-0.19c0-0.1,1.52-0.19,3.39-0.19
								C386.22,200.41,387.74,200.49,387.74,200.59z"/>
						</g>
					</g>
				</g>
			</g>
			<g>
				<g>
					<g>
						<g>
							<path class="st4" d="M398.99,200.8c0,0.1-1.82,0.19-4.06,0.19c-2.24,0-4.06-0.08-4.06-0.19c0-0.1,1.82-0.19,4.06-0.19
								C397.18,200.61,398.99,200.69,398.99,200.8z"/>
						</g>
					</g>
				</g>
			</g>
			<g>
				<g>
					<g>
						<g>
							<path class="st4" d="M408.59,200.8c0,0.1-1.82,0.19-4.06,0.19c-2.24,0-4.06-0.08-4.06-0.19c0-0.1,1.82-0.19,4.06-0.19
								C406.78,200.61,408.59,200.69,408.59,200.8z"/>
						</g>
					</g>
				</g>
			</g>
			<g>
				<g>
					<g>
						<g>
							<path class="st4" d="M418.2,200.8c0,0.1-1.82,0.19-4.06,0.19c-2.24,0-4.06-0.08-4.06-0.19c0-0.1,1.82-0.19,4.06-0.19
								C416.38,200.61,418.2,200.69,418.2,200.8z"/>
						</g>
					</g>
				</g>
			</g>
			<g>
				<g>
					<g>
						<g>
							<path class="st4" d="M427.8,200.8c0,0.1-1.82,0.19-4.06,0.19c-2.24,0-4.06-0.08-4.06-0.19c0-0.1,1.82-0.19,4.06-0.19
								C425.98,200.61,427.8,200.69,427.8,200.8z"/>
						</g>
					</g>
				</g>
			</g>
			<g>
				<g>
					<g>
						<g>
							<path class="st4" d="M437.4,200.8c0,0.1-1.82,0.19-4.06,0.19c-2.24,0-4.06-0.08-4.06-0.19c0-0.1,1.82-0.19,4.06-0.19
								C435.58,200.61,437.4,200.69,437.4,200.8z"/>
						</g>
					</g>
				</g>
			</g>
			<g>
				<g>
					<g>
						<g>
							<path class="st4" d="M447,200.8c0,0.1-1.82,0.19-4.06,0.19c-2.24,0-4.06-0.08-4.06-0.19c0-0.1,1.82-0.19,4.06-0.19
								C445.18,200.61,447,200.69,447,200.8z"/>
						</g>
					</g>
				</g>
			</g>
			<g>
				<g>
					<g>
						<g>
							<path class="st4" d="M456.6,200.8c0,0.1-1.82,0.19-4.06,0.19c-2.24,0-4.06-0.08-4.06-0.19c0-0.1,1.82-0.19,4.06-0.19
								C454.78,200.61,456.6,200.69,456.6,200.8z"/>
						</g>
					</g>
				</g>
			</g>
			<g>
				<g>
					<g>
						<g>
							<path class="st4" d="M466.2,200.8c0,0.1-1.82,0.19-4.06,0.19c-2.24,0-4.06-0.08-4.06-0.19c0-0.1,1.82-0.19,4.06-0.19
								C464.38,200.61,466.2,200.69,466.2,200.8z"/>
						</g>
					</g>
				</g>
			</g>
			<g>
				<g>
					<g>
						<g>
							<path class="st4" d="M475.8,200.8c0,0.1-1.82,0.19-4.06,0.19c-2.24,0-4.06-0.08-4.06-0.19c0-0.1,1.82-0.19,4.06-0.19
								C473.98,200.61,475.8,200.69,475.8,200.8z"/>
						</g>
					</g>
				</g>
			</g>
			<g class="st10">
				<g>
					<g>
						<rect x="390.04" y="159.29" class="st9" width="4.57" height="33.72"/>
					</g>
				</g>
			</g>
			<g class="st10">
				<g>
					<g>
						<rect x="407.7" y="143.92" class="st9" width="4.57" height="49.1"/>
					</g>
				</g>
			</g>
			<g class="st10">
				<g>
					<g>
						<rect x="425.35" y="166.74" class="st9" width="4.57" height="26.27"/>
					</g>
				</g>
			</g>
			<g class="st10">
				<g>
					<g>
						<rect x="443.01" y="155.45" class="st9" width="4.57" height="37.56"/>
					</g>
				</g>
			</g>
			<g class="st10">
				<g>
					<g>
						<rect x="460.67" y="162.93" class="st9" width="4.57" height="30.09"/>
					</g>
				</g>
			</g>
		</g>
		<g>
			<g>
				<circle class="st11" cx="255.5" cy="83.49" r="4.4"/>
			</g>
		</g>
		<g>
			<g>
				<g>
					<path class="st11" d="M335.57,80.02c0,0.14-14.84,0.26-33.14,0.26c-18.31,0-33.15-0.12-33.15-0.26
						c0-0.14,14.84-0.26,33.15-0.26C320.73,79.76,335.57,79.88,335.57,80.02z"/>
				</g>
			</g>
		</g>
		<g>
			<g>
				<g>
					<path class="st11" d="M295.89,85.34c0,0.04-0.37,0.07-1.03,0.1c-0.66,0.03-1.62,0.06-2.8,0.08c-2.36,0.05-5.63,0.08-9.24,0.08
						c-3.61,0-6.87-0.03-9.24-0.08c-1.18-0.02-2.14-0.05-2.8-0.08c-0.66-0.03-1.03-0.07-1.03-0.1c0-0.04,0.37-0.07,1.03-0.1
						c0.66-0.03,1.62-0.06,2.8-0.08c2.36-0.05,5.63-0.08,9.24-0.08c3.61,0,6.87,0.03,9.24,0.08c1.18,0.02,2.14,0.05,2.8,0.08
						C295.53,85.27,295.89,85.31,295.89,85.34z"/>
				</g>
			</g>
		</g>
	</g>
</g>
<g id="Homem-sentado">
	<g>
		<g>
			<g>
				<path class="st12" d="M465.54,256.65c-0.13,0.03-0.47-2.29,0.22-5.04c0.66-2.76,2.04-4.65,2.14-4.57
					c0.14,0.08-0.99,2.03-1.63,4.7C465.6,254.39,465.7,256.64,465.54,256.65z"/>
			</g>
			<g>
				<path class="st13" d="M467.95,246.81l-27.75-31.29c-1.01-0.81-2.13-1.94-2.25-3.09c-0.1-0.99-0.02-1.99,0.21-2.96
					c0.29-1.18,0.73-2.73,1.23-3.51c0.62-0.97-0.23-2.16-1.19-1.78c-0.96,0.39-3.33,2.92-3.88,6.56c0,0-0.44,1.48-2.08,0.91
					c-2.39-0.83-10.5-4.15-11.95-4.51c-1.29-0.32-2.84-0.28-1.99,0.69c0.62,0.7,3.97,2.83,5.73,3.92c-2.14-1.3-6.8-3.98-7.3-3.09
					c-0.3,0.52,0.28,1.49,2.19,2.85c-1.38-0.75-2.66-1.36-3.09-1.31c-2.49,0.24,5.16,5.13,5.16,5.13c-5.39-3.38-5.13-3.59-5.73-2.97
					c-0.45,0.47,0.48,1.57,3.13,3.81c2.15,1.81,12.72,11.13,12.72,11.13l21.3,35.04c3.48,4.93,9,8.03,15.03,8.43l43.55-0.93
					l4.87-24.44L467.95,246.81z"/>
				<g>
					<g>
						<g>
							<path class="st12" d="M424.17,217.44c-0.08,0.14-1.78-0.83-3.79-2.16c-2.01-1.33-3.56-2.51-3.47-2.64
								c0.09-0.13,1.79,0.84,3.79,2.16C422.7,216.12,424.26,217.31,424.17,217.44z"/>
						</g>
					</g>
				</g>
				<g>
					<g>
						<g>
							<path class="st12" d="M425.69,215.51c-0.08,0.14-1.94-0.79-4.16-2.08c-2.22-1.28-3.95-2.44-3.87-2.58
								c0.08-0.14,1.94,0.79,4.16,2.08C424.03,214.22,425.77,215.37,425.69,215.51z"/>
						</g>
					</g>
				</g>
				<g>
					<g>
						<g>
							<path class="st12" d="M427.25,213.5c-0.08,0.14-1.86-0.71-3.97-1.9c-2.12-1.19-3.77-2.26-3.69-2.4
								c0.08-0.14,1.86,0.71,3.97,1.9C425.68,212.28,427.33,213.36,427.25,213.5z"/>
						</g>
					</g>
				</g>
			</g>
		</g>
		<g>
			<g>
				<g>
					<path class="st6" d="M400.16,430.09l-5.59,17.16c0,0-19.32,0.08-20.66,3.15l32.88,12.04l9.81-26.38L400.16,430.09z"/>
					<g>
						<path class="st14" d="M405.26,449.55c0.57,0.41,0.75,1.28,0.37,1.87c-0.38,0.59-1.27,0.78-1.85,0.38
							c-0.58-0.4-0.83-1.44-0.38-1.98c0.45-0.54,1.5-0.71,1.97-0.18"/>
					</g>
					<path class="st14" d="M406.79,462.44l0.98-2.62l-31.95-10.61c0,0-1.7,0.1-1.91,1.19L406.79,462.44z"/>
					<g>
						<path class="st5" d="M394.1,446.89c-0.05,0.16,0.72,0.53,1.32,1.33c0.62,0.79,0.77,1.63,0.95,1.62
							c0.16,0.02,0.27-1.02-0.47-1.99C395.16,446.89,394.12,446.73,394.1,446.89z"/>
					</g>
					<g>
						<path class="st5" d="M390.13,447.05c-0.09,0.14,0.5,0.67,0.8,1.55c0.32,0.87,0.19,1.65,0.35,1.71c0.14,0.08,0.6-0.82,0.21-1.9
							C391.11,447.31,390.19,446.9,390.13,447.05z"/>
					</g>
					<g>
						<path class="st5" d="M386.66,450.46c0.13,0.09,0.65-0.63,0.56-1.66c-0.08-1.03-0.71-1.66-0.83-1.55
							c-0.14,0.1,0.18,0.75,0.24,1.6C386.71,449.69,386.5,450.39,386.66,450.46z"/>
					</g>
					<g>
						<path class="st5" d="M395.81,443.12c0.01,0.17,0.83,0.22,1.72,0.61c0.89,0.38,1.49,0.94,1.62,0.83
							c0.14-0.08-0.34-0.93-1.39-1.38C396.71,442.73,395.77,442.96,395.81,443.12z"/>
					</g>
				</g>
				<g>
					<path class="st5" d="M397,439.68c-0.03,0.07,0.57,0.4,1.65,0.59c0.54,0.1,1.19,0.15,1.92,0.1c0.36-0.02,0.74-0.07,1.13-0.16
						c0.19-0.04,0.4-0.07,0.64-0.21c0.24-0.1,0.5-0.49,0.39-0.83c-0.08-0.31-0.33-0.53-0.57-0.62c-0.24-0.1-0.45-0.12-0.65-0.14
						c-0.4-0.05-0.79-0.05-1.15-0.02c-0.73,0.06-1.38,0.23-1.88,0.44c-1.02,0.43-1.5,0.93-1.46,0.98c0.05,0.08,0.61-0.29,1.6-0.59
						c0.49-0.15,1.1-0.27,1.77-0.29c0.34-0.01,0.69,0.01,1.05,0.05c0.38,0.04,0.68,0.14,0.71,0.33c0.01,0.07,0.01,0.1-0.1,0.17
						c-0.11,0.07-0.28,0.11-0.47,0.15c-0.36,0.08-0.71,0.14-1.05,0.18c-0.68,0.07-1.3,0.07-1.82,0.03
						C397.66,439.77,397.03,439.59,397,439.68z"/>
				</g>
				<g>
					<path class="st5" d="M397.12,439.98c0.05,0.05,0.58-0.41,1.02-1.43c0.22-0.51,0.39-1.15,0.44-1.89
						c0.02-0.37,0.01-0.76-0.05-1.15c-0.07-0.4-0.15-0.92-0.75-1.22c-0.32-0.13-0.68,0.02-0.86,0.21c-0.19,0.18-0.28,0.37-0.39,0.54
						c-0.2,0.36-0.33,0.74-0.41,1.11c-0.15,0.74-0.08,1.43,0.08,1.96c0.33,1.09,0.93,1.52,0.96,1.47c0.08-0.06-0.36-0.58-0.55-1.57
						c-0.09-0.49-0.12-1.1,0.05-1.74c0.08-0.32,0.2-0.64,0.38-0.94c0.18-0.33,0.41-0.56,0.53-0.48c0.16,0.06,0.35,0.42,0.38,0.75
						c0.06,0.36,0.08,0.71,0.08,1.04c-0.01,0.67-0.13,1.27-0.28,1.76C397.44,439.39,397.04,439.93,397.12,439.98z"/>
				</g>
			</g>
		</g>
		<g>
			<path class="st5" d="M490.36,314.89c-6.87-2.24-34.05-10.59-53.82-15.47c-7.56-1.86-16-0.03-22.45,4.33h0
				c-8.39,5.68-12.56,15.83-10.59,25.76l8.11,50.13l27.96-2.28l-4.34-48.26l47.78,14.58l42.58-12.32l-0.13-2.06L490.36,314.89"/>
			<path class="st5" d="M500.8,323.71l-60.16,13.04c-8.9,1.93-16.22,8.24-19.44,16.76l-29.54,81.52l24.49,7.54l33.27-74.64
				l48.45-5.95c12.62-1.55,24.26-7.61,32.77-17.06l8.47-9.4L500.8,323.71z"/>
			<g>
				<path class="st14" d="M489.87,325.88c0,0.01-0.08,0.04-0.25,0.08c-0.2,0.05-0.44,0.11-0.75,0.19c-0.7,0.16-1.67,0.39-2.89,0.67
					c-2.56,0.57-6.18,1.37-10.64,2.37c-4.51,0.98-9.86,2.15-15.8,3.45c-2.98,0.64-6.1,1.32-9.33,2.02
					c-3.23,0.72-6.61,1.36-9.99,2.25c-3.38,0.89-6.61,2.09-9.34,3.92c-2.73,1.82-4.87,4.23-6.56,6.73
					c-3.37,5.05-5.05,10.34-6.5,14.68c-1.41,4.38-2.6,7.92-3.63,10.29c-0.5,1.19-0.94,2.09-1.24,2.7c-0.15,0.28-0.27,0.5-0.36,0.68
					c-0.08,0.15-0.13,0.23-0.14,0.22c-0.01,0,0.02-0.09,0.09-0.25c0.08-0.19,0.19-0.42,0.32-0.7c0.28-0.62,0.68-1.53,1.15-2.73
					c0.96-2.38,2.1-5.93,3.47-10.33c1.41-4.36,3.05-9.7,6.45-14.84c1.7-2.54,3.88-5.01,6.67-6.88c2.79-1.88,6.08-3.1,9.49-4
					c3.41-0.89,6.78-1.53,10.02-2.24c3.24-0.69,6.36-1.35,9.34-1.99c5.95-1.25,11.31-2.38,15.83-3.34
					c4.48-0.92,8.12-1.68,10.68-2.21c1.23-0.24,2.2-0.43,2.91-0.57c0.31-0.06,0.56-0.1,0.76-0.14
					C489.78,325.88,489.87,325.87,489.87,325.88z"/>
			</g>
		</g>
		<g>
			<path class="st12" d="M539.26,305.45c0.05,0.13-2.01,1.02-4.61,1.99c-2.6,0.96-4.74,1.63-4.79,1.5
				c-0.05-0.13,2.01-1.02,4.61-1.99C537.07,305.99,539.21,305.32,539.26,305.45z"/>
		</g>
		<g>
			<path class="st6" d="M517.75,241.96L504,297.02l-14.95,17.45l51.81,21.43l18.63-40.92l14.89-45.39
				c-4.13-7.63-12.07-9.47-14.72-9.79l-21.37-1.5L517.75,241.96z"/>
			<polygon class="st6" points="517.75,241.96 481.13,245.5 483.65,274.23 511.47,271.92 516.29,248.67 			"/>
			<g>
				<path class="st4" d="M514.74,253.43c0.04,0.01-0.08,0.63-0.32,1.74c-0.27,1.19-0.63,2.77-1.07,4.69
					c-0.93,3.96-2.24,9.41-3.72,15.43c-1.48,6.02-2.85,11.46-3.87,15.4c-0.5,1.9-0.92,3.47-1.23,4.65c-0.3,1.1-0.49,1.7-0.52,1.69
					c-0.03-0.01,0.08-0.63,0.32-1.74c0.27-1.19,0.63-2.77,1.07-4.69c0.93-3.96,2.24-9.41,3.72-15.43
					c1.48-6.02,2.85-11.46,3.87-15.39c0.5-1.9,0.92-3.47,1.23-4.65C514.52,254.02,514.7,253.42,514.74,253.43z"/>
			</g>
			<g>
				<path class="st4" d="M520.98,300.56c-0.06,0.07-0.82-0.59-2.23-1.32c-1.4-0.75-3.5-1.49-5.9-1.84
					c-2.41-0.37-4.63-0.35-6.24-0.33c-1.61,0.03-2.61,0.03-2.61-0.04c0-0.07,0.99-0.2,2.6-0.32c1.61-0.12,3.87-0.2,6.33,0.18
					c2.46,0.36,4.61,1.19,6.01,2.04C520.34,299.75,521.02,300.52,520.98,300.56z"/>
			</g>
			<g>
				<path class="st4" d="M527.41,244.53c0.04,0,0.08,0.37,0.31,0.99c0.23,0.61,0.66,1.52,1.47,2.34c0.84,0.76,2.31,1.17,3.8,0.84
					c0.74-0.15,1.48-0.53,2.28-0.88c0.79-0.36,1.6-0.74,2.43-1.14c3.25-1.58,6.18-3.02,8.47-4.13c1.01-0.48,1.87-0.89,2.58-1.23
					c0.61-0.28,0.96-0.42,0.98-0.39c0.02,0.03-0.3,0.23-0.88,0.57c-0.59,0.34-1.44,0.81-2.5,1.38c-2.13,1.14-5.09,2.68-8.41,4.27
					c-0.83,0.4-1.65,0.78-2.44,1.13c-0.79,0.34-1.56,0.73-2.39,0.88c-1.64,0.33-3.23-0.15-4.15-1.04c-0.86-0.94-1.22-1.88-1.41-2.54
					C527.35,244.92,527.38,244.53,527.41,244.53z"/>
			</g>
			<g class="st10">
				<path d="M504,297.02c5.28-1.25,11.09-1.55,16.46-0.8c1.25,0.17,2.56,0.43,3.5,1.27c0.94,0.84,1.3,2.45,0.42,3.36
					c-0.62,0.64-1.65,0.73-2.51,0.48c-0.86-0.25-1.9-1.57-2.66-2.04c-4.24-2.67-9.55-2.8-14.88-2.26"/>
			</g>
			<g class="st10">
				<path d="M548.62,252.98c-4.35,12.36,4.42,26.2,12.66,36.4l2.11-6.3C563.39,283.08,552.98,240.62,548.62,252.98z"/>
			</g>
			<g>
				<path class="st14" d="M560.22,290.05c-0.05,0.03-0.37-0.79-1.45-1.86c-1.07-1.05-3.04-2.26-5.74-2.59
					c-2.7-0.34-5.94,0.37-9.29,1.69c-3.36,1.26-6.99,3.17-11.24,3.67c-4.23,0.5-8.34-0.4-11.6-2.05c-3.3-1.65-5.71-4.05-7.3-6.3
					c-1.61-2.26-2.42-4.38-2.86-5.86c-0.22-0.74-0.35-1.32-0.41-1.73c-0.07-0.4-0.1-0.61-0.08-0.61c0.05-0.01,0.2,0.83,0.68,2.28
					c0.49,1.44,1.35,3.51,2.96,5.7c1.6,2.19,3.99,4.51,7.22,6.09c3.2,1.59,7.21,2.45,11.33,1.97c4.13-0.48,7.73-2.35,11.13-3.6
					c3.39-1.31,6.73-2,9.51-1.6c2.78,0.38,4.78,1.69,5.83,2.81c0.54,0.56,0.86,1.08,1.06,1.43
					C560.15,289.84,560.23,290.04,560.22,290.05z"/>
			</g>
			<g>
				<path class="st14" d="M513.05,260.48c-0.02,0,0.01-0.16,0.1-0.44c0.1-0.28,0.3-0.68,0.67-1.12c0.72-0.86,2.27-1.81,4.34-1.75
					c2.07,0.06,4.3,1.21,6.47,2.69c2.2,1.45,4.49,3.23,7,4.9c2.51,1.66,5.07,3.03,7.59,3.66c2.51,0.65,4.91,0.63,6.82,0.23
					c1.93-0.4,3.34-1.2,4.2-1.87c0.21-0.17,0.4-0.32,0.57-0.46c0.14-0.14,0.27-0.26,0.39-0.37c0.21-0.2,0.33-0.3,0.34-0.29
					c0.01,0.01-0.08,0.14-0.27,0.36c-0.11,0.13-0.23,0.26-0.36,0.41c-0.17,0.15-0.35,0.32-0.55,0.5c-0.84,0.73-2.28,1.62-4.25,2.07
					c-1.96,0.46-4.42,0.52-7.02-0.12c-2.61-0.62-5.22-2.01-7.76-3.69c-2.54-1.68-4.81-3.47-6.98-4.93
					c-2.14-1.49-4.26-2.62-6.22-2.72c-1.94-0.11-3.45,0.74-4.17,1.51C513.22,259.86,513.11,260.51,513.05,260.48z"/>
			</g>
			<g>
				<path class="st14" d="M496.2,272.76c-0.02,0.02-0.37-0.25-0.87-0.86c-0.49-0.62-1.12-1.61-1.52-2.98
					c-0.4-1.36-0.57-3.12-0.06-4.96c0.49-1.85,1.72-3.55,2.6-5.44c0.9-1.89,1.12-3.93,0.95-5.72c-0.18-1.8-0.74-3.37-1.39-4.58
					c-1.33-2.43-2.87-3.4-2.77-3.49c0.01-0.01,0.1,0.04,0.27,0.16c0.16,0.13,0.43,0.28,0.71,0.56c0.6,0.51,1.38,1.37,2.1,2.59
					c0.72,1.22,1.33,2.84,1.55,4.71c0.2,1.86-0.01,4.01-0.95,5.99c-0.92,1.96-2.13,3.61-2.61,5.36c-0.51,1.73-0.39,3.41-0.05,4.73
					C494.88,271.51,496.31,272.7,496.2,272.76z"/>
			</g>
			<g>
				<path class="st14" d="M515.59,242.57c0.06,0.03-0.47,1.22-1.56,3.01c-1.05,1.8-2.73,4.18-3.82,7.12
					c-0.53,1.47-0.83,2.95-0.81,4.3c0.01,1.35,0.31,2.55,0.71,3.48c0.82,1.89,1.97,2.64,1.89,2.71c-0.01,0.02-0.31-0.13-0.75-0.53
					c-0.44-0.4-1.01-1.07-1.48-2.03c-0.46-0.96-0.82-2.21-0.85-3.63c-0.04-1.42,0.25-2.96,0.8-4.48c1.13-3.05,2.88-5.4,4-7.14
					C514.88,243.65,515.52,242.53,515.59,242.57z"/>
			</g>
			<g>
				<path class="st14" d="M520.07,315.4c-0.09,0.06-0.87-1.18-2.52-2.85c-0.82-0.84-1.89-1.74-3.15-2.63
					c-1.28-0.86-2.77-1.7-4.41-2.38c-1.66-0.66-3.31-1.1-4.82-1.37c-1.53-0.24-2.92-0.35-4.09-0.32c-2.34,0.04-3.78,0.38-3.8,0.28
					c-0.01-0.04,0.34-0.13,0.99-0.28c0.32-0.08,0.72-0.16,1.19-0.21c0.47-0.05,1-0.15,1.6-0.15c1.19-0.08,2.62-0.01,4.18,0.21
					c1.56,0.26,3.25,0.69,4.94,1.36c1.69,0.7,3.2,1.57,4.49,2.47c1.28,0.93,2.34,1.88,3.14,2.76c0.42,0.42,0.74,0.86,1.04,1.22
					c0.3,0.36,0.53,0.7,0.71,0.98C519.92,315.06,520.1,315.38,520.07,315.4z"/>
			</g>
		</g>
		<g>
			<polygon class="st15" points="502.42,372.56 501.42,449.71 469.65,461.84 542.51,461.49 510.36,449.25 510.06,372.56 			"/>
			<path class="st15" d="M479.29,366.44c9.12,3.56,18.56,6.79,28.34,7.12c9.78,0.33,20.08-2.59,26.75-9.76
				c5.34-5.74,7.83-13.48,10.18-20.96c1.69-5.39,3.38-10.79,5.07-16.18c1.4-4.47,3.5-9.71,0.96-12.11
				c-3.59-3.38-13.19-4.68-16.8-1.32c-5.39,5.01-5.63,7.08-8.07,11.37c-5.62,9.87-10.49,18.86-21.06,23.01
				c-5.1,2-10.76,2.16-15.88,4.09C483.64,353.62,478.43,361.03,479.29,366.44"/>
		</g>
		<g>
			<g>
				<g>
					<g>
						<g>
							<g>
								<g>
									<g>
										<path class="st13" d="M549.73,240.93l-15.87,7.82c-3.05,1.38-6.46-1.03-6.18-4.37l1.1-12.87c0,0-8.6-1.27-8.77-9.86
											c-0.17-8.59,1.17-28.32,1.17-28.32l0,0c9.91-4.35,21.4-2.99,30.02,3.55l1.28,0.97L549.73,240.93z"/>
									</g>
								</g>
							</g>
							<g>
								<g>
									<g>
										<path class="st12" d="M528.77,231.39c0,0,5.43,0.4,11.17-3.27c0,0-2.6,6.2-11.18,5.49L528.77,231.39z"/>
									</g>
								</g>
							</g>
						</g>
					</g>
				</g>
				<g>
					<g>
						<g>
							<g>
								<path class="st13" d="M551.49,206.75c0.15-0.06,5.89-1.79,5.74,4.08c-0.14,5.87-6.01,4.52-6.02,4.35
									C551.21,215.02,551.49,206.75,551.49,206.75z"/>
							</g>
						</g>
					</g>
					<g>
						<g>
							<g>
								<g>
									<path class="st12" d="M553.07,213c0.03-0.02,0.1,0.07,0.27,0.16c0.17,0.08,0.46,0.14,0.76,0.03
										c0.63-0.21,1.17-1.18,1.23-2.24c0.03-0.53-0.07-1.05-0.25-1.47c-0.17-0.43-0.44-0.74-0.75-0.8
										c-0.31-0.08-0.53,0.1-0.61,0.27c-0.08,0.16-0.05,0.28-0.08,0.29c-0.02,0.01-0.12-0.1-0.07-0.34
										c0.03-0.12,0.1-0.25,0.24-0.36c0.14-0.11,0.35-0.16,0.57-0.14c0.45,0.04,0.85,0.47,1.05,0.94
										c0.22,0.47,0.35,1.05,0.31,1.65c-0.07,1.18-0.7,2.28-1.55,2.5c-0.42,0.1-0.76-0.04-0.93-0.18
										C553.07,213.15,553.05,213.01,553.07,213z"/>
								</g>
							</g>
						</g>
					</g>
				</g>
				<g>
					<g>
						<g>
							<g>
								<g>
									<g>
										<g>
											<g>
												<g>
													<path class="st4" d="M523.17,206.41c-0.02,0.65,0.52,1.2,1.19,1.23c0.67,0.03,1.24-0.47,1.26-1.12
														c0.02-0.65-0.52-1.2-1.19-1.23C523.75,205.26,523.19,205.76,523.17,206.41z"/>
												</g>
											</g>
										</g>
										<g>
											<g>
												<g>
													<g>
														<path class="st4" d="M522.9,205.4c0.15,0.16,1.08-0.54,2.4-0.54c1.32-0.03,2.29,0.65,2.43,0.48
															c0.07-0.07-0.09-0.36-0.51-0.66c-0.42-0.3-1.13-0.59-1.95-0.59c-0.82,0.01-1.51,0.32-1.91,0.63
															C522.96,205.04,522.82,205.33,522.9,205.4z"/>
													</g>
												</g>
											</g>
										</g>
									</g>
									<g>
										<g>
											<g>
												<g>
													<path class="st4" d="M536.1,206.56c-0.02,0.65,0.52,1.2,1.19,1.23c0.67,0.03,1.24-0.47,1.26-1.12
														c0.02-0.65-0.52-1.2-1.19-1.23C536.68,205.41,536.12,205.91,536.1,206.56z"/>
												</g>
											</g>
										</g>
										<g>
											<g>
												<g>
													<g>
														<path class="st4" d="M535.87,205.55c0.15,0.16,1.08-0.54,2.4-0.54c1.32-0.03,2.29,0.65,2.43,0.48
															c0.07-0.07-0.09-0.36-0.51-0.66c-0.42-0.3-1.13-0.59-1.95-0.59c-0.82,0.01-1.51,0.32-1.91,0.63
															C535.93,205.19,535.8,205.48,535.87,205.55z"/>
													</g>
												</g>
											</g>
										</g>
									</g>
									<g>
										<g>
											<g>
												<g>
													<path class="st4" d="M531.15,215.38c0.01-0.08-0.82-0.21-2.15-0.37c-0.34-0.03-0.66-0.1-0.72-0.33
														c-0.08-0.24,0.06-0.61,0.22-1c0.31-0.82,0.64-1.68,0.98-2.57c1.36-3.66,2.34-6.68,2.19-6.73
														c-0.15-0.05-1.37,2.87-2.72,6.54c-0.33,0.9-0.64,1.76-0.94,2.59c-0.12,0.38-0.34,0.82-0.16,1.32
														c0.09,0.25,0.34,0.43,0.56,0.49c0.22,0.06,0.41,0.07,0.57,0.08C530.32,215.45,531.15,215.45,531.15,215.38z"/>
												</g>
											</g>
										</g>
									</g>
									<g>
										<g>
											<g>
												<g>
													<path class="st4" d="M535.05,216.26c-0.21-0.01-0.21,1.42-1.43,2.45c-1.22,1.03-2.74,0.88-2.75,1.08
														c-0.02,0.09,0.34,0.28,0.99,0.29c0.63,0.02,1.55-0.19,2.3-0.82c0.74-0.63,1.06-1.46,1.1-2.05
														C535.31,216.6,535.14,216.25,535.05,216.26z"/>
												</g>
											</g>
										</g>
									</g>
								</g>
							</g>
						</g>
						<g>
							<g>
								<g>
									<path class="st4" d="M535.49,200.38c0.13,0.36,1.45,0.18,3,0.35c1.55,0.14,2.81,0.59,3.01,0.26
										c0.09-0.15-0.13-0.49-0.64-0.83c-0.5-0.34-1.3-0.67-2.23-0.76c-0.93-0.09-1.78,0.06-2.34,0.29
										C535.72,199.93,535.43,200.21,535.49,200.38z"/>
								</g>
							</g>
						</g>
						<g>
							<g>
								<g>
									<path class="st4" d="M523.35,201.58c0.23,0.3,1.14-0.02,2.23-0.04c1.09-0.06,2.02,0.19,2.23-0.13
										c0.09-0.15-0.06-0.45-0.46-0.73c-0.4-0.28-1.07-0.51-1.82-0.48c-0.75,0.03-1.4,0.31-1.78,0.62
										C523.37,201.12,523.25,201.43,523.35,201.58z"/>
								</g>
							</g>
						</g>
					</g>
				</g>
			</g>
			<g>
				<path class="st4" d="M516.95,187.94c-0.1-1.06,0.29-2.21,1.15-2.84c0.86-0.63,2.21-0.6,2.92,0.2c-0.41-1.43,0.75-3.09,2.23-3.2
					c1.4-0.1,2.6,0.95,3.96,1.31c1.32,0.35,2.74,0.03,4.01-0.49c1.27-0.52,2.45-1.24,3.73-1.72c2.68-1,5.75-0.9,8.35,0.27
					c2.61,1.17,4.72,3.4,5.74,6.07c1.87-0.6,4.02,0.34,5.19,1.92c1.17,1.58,1.48,3.67,1.27,5.63c-0.15,1.32-0.52,2.6-0.95,3.86
					c0,0.11,0.01,0.22,0.01,0.33c-0.05,4.72-0.55,10.27-2.56,10.32c-3.51,0.08-2.72-6.54-2.72-6.54c-4.32-1.63-2.77-8.1-3.85-9.07
					c-1.08-0.97-3.36-3.23-12.35,1.45c-3.49,1.82-8.15,1.8-10.7,1.24c-0.07-0.02-0.15-0.03-0.22-0.04c-0.02,0-0.04-0.01-0.05-0.01
					c-0.03-0.01-0.05-0.02-0.07-0.03c-0.81-0.21-1.6-0.51-2.32-0.96c-0.82-0.51-1.57-1.21-1.92-2.11c-0.35-0.9-0.23-2.03,0.47-2.69
					C517.58,189.99,517.05,189,516.95,187.94z"/>
			</g>
		</g>
		<g>
			<path class="st13" d="M553.68,264.35l14.39,30.51l-22.87,9.83l-4.53-1.4c-3.69-1.14-7.71-0.27-10.61,2.29l-7.11,6.29h66.02v0
				c3.02-8.6,3.06-17.96,0.12-26.59l-11.33-28.65c-3.21-7.78-11.56-14.12-19.24-10.68l0,0
				C551.07,249.29,550.42,256.85,553.68,264.35z"/>
			<g>
				<path class="st6" d="M552.47,265.99c4.26,7.23,10.91,18.43,10.91,18.43l24.65-10.19c0,0-10.65-20.12-14.07-25.25
					c-1.39-2.08-4.45-6.35-13.49-7.43c-0.21-0.02-1.36,0.29-2.8,0.72c-4.25,1.27-7.45,4.78-8.31,9.13l-0.21,1.08
					C548.66,256.91,550.21,262.14,552.47,265.99z"/>
				<g>
					<path class="st4" d="M563.39,284.42c-0.03,0.02-0.39-0.5-1.02-1.46c-0.66-1.03-1.54-2.41-2.61-4.07
						c-1.1-1.75-2.39-3.8-3.81-6.07c-1.41-2.3-3.04-4.77-4.5-7.55c-0.72-1.39-1.34-2.81-1.76-4.23c-0.44-1.43-0.63-2.86-0.73-4.21
						c-0.22-2.71-0.06-5.19,0.48-7.19c0.5-2.01,1.44-3.47,2.23-4.3c0.2-0.19,0.38-0.37,0.55-0.54c0.17-0.12,0.32-0.23,0.46-0.33
						c0.25-0.17,0.38-0.26,0.39-0.24c0.01,0.01-0.1,0.13-0.33,0.32c-0.13,0.11-0.26,0.23-0.42,0.36c-0.15,0.17-0.32,0.35-0.5,0.56
						c-0.73,0.85-1.59,2.28-2.03,4.26c-0.48,1.96-0.59,4.39-0.35,7.06c0.12,1.34,0.32,2.72,0.75,4.11c0.42,1.39,1.02,2.77,1.74,4.14
						c1.44,2.74,3.06,5.23,4.45,7.54c1.39,2.29,2.64,4.36,3.72,6.13c1.01,1.7,1.84,3.1,2.47,4.15
						C563.12,283.85,563.42,284.4,563.39,284.42z"/>
				</g>
				<g>
					<path class="st14" d="M579.33,258.14c-0.04,0.04-0.36-0.28-1.05-0.69c-0.69-0.41-1.79-0.84-3.21-0.97
						c-1.42-0.13-3.15,0.06-4.95,0.65c-1.8,0.59-3.66,1.61-5.62,2.64c-1.97,1.03-3.91,1.97-5.84,2.39c-1.92,0.41-3.74,0.32-5.16-0.1
						c-1.43-0.41-2.46-1.13-3.02-1.74c-0.28-0.31-0.48-0.56-0.58-0.75c-0.11-0.18-0.17-0.28-0.15-0.29c0.05-0.03,0.29,0.36,0.88,0.9
						c0.58,0.54,1.59,1.18,2.97,1.53c1.38,0.36,3.12,0.4,4.96-0.01c1.84-0.42,3.75-1.35,5.7-2.38c1.96-1.03,3.84-2.05,5.72-2.64
						c1.87-0.58,3.66-0.74,5.13-0.55c1.48,0.18,2.61,0.69,3.28,1.17c0.34,0.24,0.58,0.44,0.73,0.61
						C579.27,258.04,579.34,258.13,579.33,258.14z"/>
				</g>
				<g>
					<path class="st14" d="M574.9,279.56c-0.07,0.06-0.69-0.69-1.92-1.63c-0.61-0.48-1.4-0.96-2.31-1.41
						c-0.92-0.43-1.97-0.83-3.12-1.09c-1.15-0.25-2.27-0.35-3.29-0.35c-1.02,0.02-1.94,0.12-2.69,0.29
						c-1.51,0.32-2.4,0.73-2.44,0.65c-0.02-0.03,0.19-0.16,0.59-0.36c0.39-0.21,1-0.44,1.76-0.65c0.77-0.22,1.71-0.36,2.76-0.41
						c1.05-0.02,2.22,0.06,3.41,0.32c1.19,0.28,2.28,0.7,3.22,1.17c0.93,0.5,1.72,1.03,2.32,1.56c0.6,0.52,1.05,0.98,1.31,1.34
						C574.79,279.33,574.93,279.53,574.9,279.56z"/>
				</g>
			</g>
			<g>
				<path class="st12" d="M583.78,301.91c-0.08,0.04-0.53-0.94-1.61-2.28c-1.06-1.33-2.85-2.97-5.25-3.99
					c-2.4-1.02-4.82-1.17-6.52-1.02c-1.71,0.15-2.73,0.5-2.76,0.42c-0.01-0.03,0.23-0.15,0.69-0.31c0.46-0.16,1.15-0.35,2.02-0.47
					c1.73-0.25,4.26-0.16,6.76,0.9c2.5,1.07,4.32,2.82,5.34,4.25c0.52,0.71,0.86,1.34,1.07,1.78
					C583.73,301.64,583.81,301.9,583.78,301.91z"/>
			</g>
		</g>
	</g>
</g>
<g id="Homem">
	<g>
		<path class="st6" d="M79.31,426.4l-5.89,23.36l-9.98,17.13c-0.72,1.23-0.24,2.82,1.04,3.45l0,0c0.72,0.36,1.55,0.34,2.26-0.04
			c4.48-2.42,20.93-11.4,21.27-13.13c0.39-2.01,7.85-24.23,7.85-24.23L79.31,426.4z"/>
		<path class="st16" d="M64.47,470.35l23.96-14.73l-0.27,0.98c-0.24,0.85-0.76,1.59-1.49,2.09c-1.95,1.32-7.43,4.87-19.87,11.65
			C66.08,470.73,65.2,470.74,64.47,470.35L64.47,470.35z"/>
		<g class="st17">
			<path class="st14" d="M85.74,446.81c-0.69,0.24-1.13,1.07-0.91,1.77c0.21,0.7,1.05,1.15,1.75,0.92c0.7-0.23,1.25-1.21,0.96-1.88
				c-0.29-0.67-1.3-1.15-1.92-0.76"/>
		</g>
		<g>
			<path class="st5" d="M72.59,461.68c-0.15,0.03-0.34-1.33-1.54-2.37c-1.17-1.07-2.54-1.1-2.53-1.25c0-0.06,0.34-0.16,0.9-0.09
				c0.56,0.07,1.32,0.36,1.98,0.94c0.65,0.58,1.03,1.31,1.17,1.86C72.71,461.32,72.65,461.67,72.59,461.68z"/>
		</g>
		<g>
			<path class="st5" d="M70.07,464.33c-0.14,0.07-0.67-0.89-1.78-1.57c-1.09-0.7-2.19-0.76-2.19-0.92
				c-0.03-0.14,1.22-0.32,2.47,0.47C69.83,463.09,70.21,464.3,70.07,464.33z"/>
		</g>
		<g>
			<path class="st5" d="M76.77,458.54c-0.14,0.08-0.96-1.4-2.58-2.6c-1.61-1.23-3.26-1.6-3.22-1.76c0-0.13,1.81,0.02,3.54,1.33
				C76.24,456.81,76.9,458.51,76.77,458.54z"/>
		</g>
		<g>
			<path class="st5" d="M79.15,451.59c-0.1,0.12-1.24-0.77-2.89-1.29c-1.65-0.54-3.09-0.49-3.1-0.64c-0.03-0.13,1.49-0.44,3.26,0.14
				C78.2,450.36,79.25,451.5,79.15,451.59z"/>
		</g>
		<g>
			<path class="st5" d="M81.05,444.78c-0.11,0.11-1.18-1.02-2.97-1.42c-1.78-0.45-3.25,0.07-3.29-0.08
				c-0.02-0.06,0.31-0.28,0.93-0.44c0.62-0.16,1.53-0.22,2.49,0.01c0.96,0.23,1.74,0.7,2.22,1.12
				C80.9,444.39,81.1,444.73,81.05,444.78z"/>
		</g>
		<g>
			<path class="st4" d="M78.48,442.07c-0.03-0.01,0-0.33,0.21-0.89c0.21-0.55,0.6-1.33,1.33-2.11c0.37-0.36,0.78-0.84,1.52-0.97
				c0.37-0.07,0.83,0.13,1.02,0.51c0.19,0.37,0.17,0.78,0.08,1.15c-0.43,1.47-2.09,2.54-3.81,2.3c-1.72-0.28-2.96-1.64-3.27-3.1
				c-0.05-0.37-0.04-0.8,0.25-1.14c0.29-0.35,0.8-0.37,1.12-0.23c0.66,0.29,0.99,0.81,1.31,1.22c0.62,0.86,0.93,1.68,1.09,2.24
				c0.16,0.57,0.17,0.9,0.14,0.9c-0.1,0.04-0.27-1.3-1.52-2.92c-0.32-0.38-0.68-0.85-1.17-1.03c-0.24-0.09-0.47-0.05-0.61,0.12
				c-0.14,0.16-0.17,0.47-0.12,0.76c0.27,1.2,1.41,2.44,2.86,2.65c1.44,0.22,2.9-0.73,3.26-1.9c0.08-0.28,0.09-0.59-0.02-0.8
				c-0.1-0.21-0.32-0.32-0.56-0.29c-0.5,0.06-0.94,0.46-1.3,0.8C78.84,440.77,78.58,442.12,78.48,442.07z"/>
		</g>
		<g>
			<g>
				<path class="st6" d="M152.7,432.68l-1.25,18c0,0,17.88,7.31,17.97,10.66l-35-1.16l0.79-28.13L152.7,432.68z"/>
				<g>
					<path class="st14" d="M140.68,448.81c-0.68,0.16-1.18,0.91-1.04,1.6c0.13,0.69,0.89,1.2,1.58,1.05c0.69-0.15,1.31-1.03,1.1-1.7
						c-0.21-0.67-1.13-1.22-1.76-0.91"/>
				</g>
				<path class="st14" d="M134.43,460.18l0.19-2.83l33.48,2.18c0,0,1.54,0.73,1.32,1.82L134.43,460.18z"/>
				<g>
					<path class="st5" d="M152.03,450.52c-0.01,0.17-0.87,0.22-1.73,0.74c-0.87,0.5-1.33,1.22-1.49,1.15
						c-0.16-0.04,0.13-1.05,1.18-1.66C151.04,450.13,152.07,450.37,152.03,450.52z"/>
				</g>
				<g>
					<path class="st5" d="M155.65,452.16c0.03,0.17-0.72,0.43-1.32,1.14c-0.63,0.69-0.8,1.46-0.97,1.45
						c-0.16,0.02-0.25-0.98,0.52-1.84C154.64,452.04,155.65,452,155.65,452.16z"/>
				</g>
				<g>
					<path class="st5" d="M157.59,456.63c-0.16,0.03-0.37-0.83,0.1-1.75c0.46-0.92,1.28-1.27,1.35-1.12
						c0.09,0.14-0.44,0.63-0.82,1.39C157.83,455.9,157.76,456.61,157.59,456.63z"/>
				</g>
				<g>
					<path class="st5" d="M151.86,446.39c-0.08,0.15-0.85-0.11-1.82-0.08c-0.97,0.01-1.73,0.31-1.82,0.16
						c-0.09-0.13,0.66-0.73,1.8-0.76C151.16,445.69,151.95,446.26,151.86,446.39z"/>
				</g>
			</g>
			<g>
				<path class="st4" d="M152.04,442.75c0,0.07-0.68,0.15-1.75-0.07c-0.53-0.11-1.16-0.31-1.81-0.62c-0.33-0.16-0.66-0.35-0.99-0.57
					c-0.16-0.11-0.35-0.22-0.52-0.43c-0.18-0.18-0.28-0.64-0.05-0.91c0.19-0.26,0.51-0.37,0.76-0.37c0.26,0,0.47,0.06,0.65,0.11
					c0.39,0.11,0.75,0.25,1.08,0.41c0.66,0.33,1.19,0.73,1.58,1.11c0.79,0.78,1.04,1.43,0.98,1.46c-0.08,0.05-0.46-0.49-1.26-1.14
					c-0.4-0.32-0.92-0.66-1.53-0.93c-0.31-0.13-0.64-0.25-1-0.34c-0.37-0.11-0.68-0.12-0.78,0.04c-0.04,0.06-0.04,0.09,0.03,0.2
					c0.08,0.1,0.22,0.21,0.38,0.31c0.3,0.21,0.61,0.4,0.91,0.56c0.6,0.32,1.18,0.55,1.67,0.71
					C151.39,442.59,152.05,442.66,152.04,442.75z"/>
			</g>
			<g>
				<path class="st4" d="M151.81,442.99c-0.06,0.02-0.38-0.6-0.41-1.71c-0.01-0.55,0.07-1.21,0.3-1.91c0.12-0.35,0.28-0.7,0.48-1.05
					c0.22-0.34,0.48-0.79,1.15-0.85c0.35,0,0.63,0.28,0.72,0.51c0.11,0.24,0.12,0.44,0.16,0.65c0.05,0.41,0.03,0.81-0.04,1.18
					c-0.13,0.74-0.46,1.35-0.81,1.79c-0.71,0.88-1.43,1.06-1.45,1.01c-0.05-0.09,0.55-0.4,1.1-1.25c0.27-0.42,0.52-0.98,0.61-1.63
					c0.05-0.32,0.05-0.67,0-1.01c-0.04-0.37-0.17-0.68-0.31-0.64c-0.17-0.01-0.48,0.26-0.63,0.55c-0.19,0.31-0.34,0.62-0.47,0.94
					c-0.24,0.63-0.36,1.23-0.4,1.74C151.74,442.32,151.9,442.97,151.81,442.99z"/>
			</g>
		</g>
		<g>
			<path class="st4" d="M116.15,107.48c-0.86-2.17-1.95-4.19-2.45-6.47c-0.37-1.69-0.94-4.23-0.3-5.84
				c0.64-1.61,2.26-3.17,4.36-2.79c0.44-3.38,2.16-6.16,5.52-7.89c3.03-1.56,6.02-2.37,9.41-2.7c1.02-0.1,2.63-0.07,3.56,0.36
				c0.93,0.43,1.82,1.32,2.19,2.25c1.75-1.46,4.31-1.93,6.93-1.29c2.62,0.64,5.63,1.98,6.84,4.39c0.75,1.5,1.05,3.36,0.35,5.77
				c-0.47,1.6-2.09,4.14-3.67,3.6"/>
			<g>
				<g>
					<g>
						<g>
							<g>
								<g>
									<g>
										<g>
											<g>
												<g>
													<g>
														<g>
															<path class="st18" d="M118.73,151.9l23.5-1.08c0.13-2.49-1.14-17.92-1.14-17.92s8.88-1.38,8.99-10.26
																c0.11-8.88-1.43-29.27-1.43-29.27l0,0c-10.28-4.42-22.15-2.93-31.01,3.9l-1.32,1.01L118.73,151.9z"/>
														</g>
													</g>
												</g>
											</g>
										</g>
										<g>
											<g>
												<g>
													<g>
														<g>
															<path class="st19" d="M141.11,132.77c0,0-5.61,0.46-11.58-3.29c0,0,2.74,6.39,11.6,5.59L141.11,132.77z"/>
														</g>
													</g>
												</g>
											</g>
										</g>
									</g>
								</g>
							</g>
							<g>
								<g>
									<g>
										<g>
											<g>
												<g>
													<path class="st18" d="M117.42,107.48c-0.15-0.07-6.1-1.81-5.91,4.27c0.19,6.07,6.25,4.62,6.25,4.45
														C117.77,116.02,117.42,107.48,117.42,107.48z"/>
												</g>
											</g>
										</g>
									</g>
								</g>
								<g>
									<g>
										<g>
											<g>
												<g>
													<g>
														<path class="st19" d="M115.84,113.95c-0.03-0.02-0.1,0.08-0.28,0.16c-0.17,0.09-0.47,0.15-0.79,0.04
															c-0.65-0.21-1.22-1.22-1.29-2.31c-0.03-0.55,0.07-1.08,0.25-1.52c0.17-0.45,0.45-0.77,0.77-0.84
															c0.32-0.08,0.55,0.1,0.63,0.27c0.09,0.17,0.05,0.29,0.08,0.3c0.02,0.01,0.13-0.11,0.07-0.35
															c-0.03-0.12-0.1-0.26-0.25-0.37c-0.15-0.11-0.37-0.17-0.59-0.14c-0.47,0.05-0.87,0.49-1.07,0.98
															c-0.23,0.49-0.35,1.08-0.31,1.7c0.08,1.22,0.74,2.35,1.63,2.57c0.43,0.1,0.78-0.04,0.96-0.19
															C115.83,114.1,115.86,113.96,115.84,113.95z"/>
													</g>
												</g>
											</g>
										</g>
									</g>
								</g>
							</g>
							<g>
								<g>
									<g>
										<g>
											<g>
												<g>
													<g>
														<g>
															<g>
																<g>
																	<g>
																		<path class="st4" d="M146.7,107.28c0.02,0.67-0.52,1.24-1.22,1.28c-0.7,0.04-1.28-0.47-1.31-1.14
																			c-0.02-0.67,0.52-1.24,1.22-1.28C146.09,106.1,146.68,106.61,146.7,107.28z"/>
																	</g>
																</g>
															</g>
														</g>
													</g>
													<g>
														<g>
															<g>
																<g>
																	<g>
																		<g>
																			<path class="st4" d="M146.98,105.86c-0.16,0.17-1.12-0.55-2.48-0.54c-1.36-0.02-2.36,0.69-2.51,0.52
																				c-0.07-0.07,0.09-0.37,0.52-0.69c0.43-0.32,1.16-0.62,2.01-0.62c0.85,0,1.57,0.32,1.98,0.64
																				C146.91,105.48,147.05,105.78,146.98,105.86z"/>
																		</g>
																	</g>
																</g>
															</g>
														</g>
													</g>
												</g>
												<g>
													<g>
														<g>
															<g>
																<g>
																	<g>
																		<path class="st4" d="M133.33,107.6c0.02,0.67-0.52,1.24-1.22,1.28c-0.7,0.04-1.28-0.47-1.31-1.14
																			c-0.02-0.67,0.52-1.24,1.22-1.28C132.72,106.42,133.31,106.93,133.33,107.6z"/>
																	</g>
																</g>
															</g>
														</g>
													</g>
													<g>
														<g>
															<g>
																<g>
																	<g>
																		<g>
																			<path class="st4" d="M133.56,106.11c-0.16,0.17-1.12-0.55-2.48-0.54c-1.36-0.02-2.36,0.69-2.51,0.52
																				c-0.07-0.07,0.09-0.37,0.52-0.69c0.43-0.32,1.16-0.62,2.01-0.62c0.85,0,1.57,0.32,1.98,0.64
																				C133.49,105.74,133.64,106.04,133.56,106.11z"/>
																		</g>
																	</g>
																</g>
															</g>
														</g>
													</g>
												</g>
												<g>
													<g>
														<g>
															<g>
																<g>
																	<g>
																		<path class="st4" d="M138.51,116.23c-0.01-0.08,0.84-0.22,2.22-0.4c0.35-0.04,0.68-0.11,0.74-0.34
																			c0.08-0.25-0.06-0.63-0.23-1.03c-0.33-0.84-0.67-1.73-1.03-2.65c-1.43-3.78-2.47-6.88-2.31-6.94
																			c0.15-0.06,1.44,2.96,2.87,6.74c0.34,0.93,0.67,1.82,0.99,2.67c0.13,0.4,0.36,0.85,0.18,1.37
																			c-0.09,0.26-0.35,0.45-0.57,0.51c-0.22,0.07-0.42,0.07-0.59,0.08C139.38,116.31,138.52,116.31,138.51,116.23z"/>
																	</g>
																</g>
															</g>
														</g>
													</g>
												</g>
												<g>
													<g>
														<g>
															<g>
																<g>
																	<g>
																		<path class="st4" d="M134.5,117.18c0.22-0.01,0.23,1.47,1.49,2.52c1.27,1.06,2.84,0.89,2.86,1.1
																			c0.02,0.09-0.35,0.29-1.02,0.31c-0.65,0.02-1.61-0.19-2.38-0.83c-0.77-0.64-1.11-1.51-1.16-2.11
																			C134.23,117.54,134.4,117.17,134.5,117.18z"/>
																	</g>
																</g>
															</g>
														</g>
													</g>
												</g>
											</g>
										</g>
									</g>
									<g>
										<g>
											<g>
												<g>
													<g>
														<path class="st4" d="M133.91,100.76c-0.13,0.37-1.5,0.2-3.1,0.39c-1.61,0.16-2.9,0.63-3.11,0.3
															c-0.09-0.16,0.13-0.51,0.65-0.87c0.52-0.36,1.34-0.7,2.3-0.81c0.96-0.11,1.84,0.05,2.42,0.28
															C133.67,100.3,133.97,100.59,133.91,100.76z"/>
													</g>
												</g>
											</g>
										</g>
									</g>
									<g>
										<g>
											<g>
												<g>
													<g>
														<path class="st4" d="M146.47,101.91c-0.24,0.31-1.18-0.01-2.31-0.03c-1.13-0.06-2.09,0.21-2.31-0.12
															c-0.1-0.16,0.05-0.47,0.47-0.76c0.41-0.29,1.1-0.53,1.88-0.51c0.78,0.02,1.45,0.31,1.84,0.62
															C146.45,101.44,146.58,101.76,146.47,101.91z"/>
													</g>
												</g>
											</g>
										</g>
									</g>
								</g>
							</g>
						</g>
					</g>
					<g>
						<g>
							<path class="st4" d="M115.85,97.87c0.12,2.59-0.46,5.47,0,8.01c0.07,0.38,1.06,1.41,1.15,1.79c0.52,2.25,1.46,3.21,2.79,0.89
								c0.51-0.89,0.85-3.38,1.05-4.38c0.54-2.73,1.08-5.47,1.62-8.2c2.12,0.99,4.42,1.74,6.75,1.6c2.33-0.14,4.7-1.32,5.77-3.4
								c1.11,1.84,3.08,3.13,5.2,3.41c2.13,0.28,4.36-0.46,5.91-1.95c0.79,1.27,2.68,1.62,3.96,0.84c1.28-0.78,1.85-2.48,1.44-3.92
								c-0.61-2.17-2.93-3.34-5.09-3.98c-8.45-2.49-17.79-0.54-25.38,3.92c-1.11,0.65-2.2,1.36-3.06,2.31
								c-0.87,0.95-2.07,2.06-2.11,3.35"/>
						</g>
					</g>
				</g>
			</g>
			<g>
				<path class="st14" d="M122.24,98.12c-0.02,0.09-0.58-0.1-1.37,0.25c-0.39,0.17-0.82,0.46-1.25,0.85
					c-0.42,0.39-0.84,0.89-1.35,1.39c-0.5,0.5-1.08,0.93-1.7,1.13c-0.62,0.2-1.22,0.18-1.68,0.07c-0.95-0.24-1.33-0.75-1.29-0.78
					c0.05-0.07,0.5,0.3,1.36,0.42c0.42,0.06,0.94,0.04,1.45-0.16c0.52-0.19,1.02-0.57,1.49-1.05c0.48-0.47,0.91-0.97,1.39-1.38
					c0.48-0.4,0.98-0.69,1.43-0.83C121.68,97.72,122.28,98.07,122.24,98.12z"/>
			</g>
			<g>
				<path class="st14" d="M121.27,100.8c-0.01,0.07-0.46,0.02-0.95,0.45c-0.25,0.2-0.48,0.52-0.75,0.9c-0.27,0.38-0.65,0.8-1.13,1.1
					c-0.96,0.63-2.03,0.75-2.75,0.66c-0.73-0.09-1.12-0.35-1.09-0.41c0.03-0.08,0.44,0.05,1.12,0.04c0.66,0,1.6-0.17,2.44-0.72
					c0.85-0.51,1.26-1.44,1.95-1.86C120.77,100.52,121.31,100.73,121.27,100.8z"/>
			</g>
			<g>
				<path class="st14" d="M144.25,82.95c0-0.03,0.28-0.08,0.78,0.05c0.49,0.13,1.18,0.5,1.74,1.24c1.13,1.5,1.44,4.19,0.67,6.83
					c-0.79,2.68-2.68,4.56-4.21,5.46c-0.77,0.47-1.45,0.73-1.92,0.88c-0.48,0.15-0.75,0.18-0.76,0.15
					c-0.03-0.09,1.05-0.36,2.48-1.33c1.43-0.95,3.17-2.76,3.91-5.3c0.74-2.5,0.48-5.07-0.47-6.47c-0.47-0.7-1.08-1.08-1.51-1.26
					C144.52,83.01,144.24,82.99,144.25,82.95z"/>
			</g>
			<g>
				<path class="st14" d="M151.69,86.45c0.06,0,0.13,0.66-0.03,1.71c-0.16,1.05-0.61,2.48-1.48,3.87c-0.87,1.38-1.97,2.41-2.85,3.01
					c-0.88,0.6-1.5,0.82-1.53,0.77c-0.1-0.14,2.28-1.36,3.94-4.05C151.45,89.09,151.52,86.42,151.69,86.45z"/>
			</g>
		</g>
		<g>
			<g>
				<g>
					<g>
						<g>
							<g>
								<polygon class="st5" points="161.81,234.91 156.18,444.43 128.58,443.6 130.7,263.78 95.52,448.6 70.59,442.09 
									102.78,235.31 								"/>
							</g>
						</g>
					</g>
				</g>
			</g>
		</g>
		<g>
			<g>
				<g>
					<g>
						<path class="st18" d="M246.83,145.14l1.33-0.48c0,0,11.33,1.7,10.73-0.34c-0.79-2.7-10.98-3.59-11.92-3.48
							c-1.57,0.18-10.69,2.58-11.9,3.48c-1.2,0.9-7.92,9.78-7.92,9.78l11.42,8.83c0,0,2.71-0.12,5.79-3.67
							c1.56-1.8,3.82-4.91,3.82-4.91s-0.24-0.75-0.05-1.08c0.58-0.98-0.01-1.44-0.01-1.44c0.68-0.3,1.19-1.05,1.13-1.61
							c-0.04-0.34-0.12-0.77-0.41-0.96c-0.7-0.48-0.96-0.35-0.96-0.35s1.39-0.66,1.47-1.98c0.08-1.28-1.81-1.59-1.81-1.59"/>
					</g>
					<g>
						<g>
							<path class="st19" d="M258.74,144.85c0.02,0.07-0.85,0.42-2.36,0.61c-0.75,0.09-1.65,0.14-2.65,0.07
								c-0.98-0.13-2.05-0.3-3.18-0.47c-0.83-0.14-1.64-0.27-2.4-0.39l0.15-0.01c-3.19,1.08-5.53,1.78-5.58,1.65
								c-0.05-0.13,2.22-1.04,5.39-2.2l0.06-0.02l0.08,0.01c0.75,0.11,1.55,0.24,2.38,0.36c1.1,0.18,2.15,0.35,3.15,0.51
								c0.96,0.1,1.84,0.1,2.57,0.06C257.82,144.96,258.72,144.76,258.74,144.85z"/>
						</g>
					</g>
				</g>
			</g>
			<g>
				<path class="st18" d="M246.19,145.81c-1.09,1.18-1.98,2.14-3.06,3.32c-0.35,0.38-0.71,0.78-0.89,1.27
					c-0.18,0.49-0.12,1.1,0.27,1.44c0.31,0.27,0.78,0.32,1.18,0.21c0.4-0.11,0.76-0.35,1.09-0.6c1.21-0.9,2.7-2.01,3.78-3.06"/>
				<g>
					<path class="st19" d="M248.78,148.19c0.04,0.05-0.58,0.7-1.62,1.71c-0.53,0.5-1.18,1.09-2,1.63c-0.42,0.26-0.85,0.54-1.39,0.72
						c-0.27,0.09-0.56,0.15-0.89,0.12c-0.32-0.03-0.67-0.19-0.88-0.48c-0.42-0.59-0.28-1.32,0-1.81c0.29-0.5,0.64-0.86,0.96-1.23
						c0.64-0.72,1.24-1.35,1.75-1.86c1.02-1.03,1.74-1.6,1.79-1.54c0.05,0.05-0.57,0.7-1.52,1.79c-0.51,0.6-1.07,1.24-1.65,1.93
						c-0.3,0.37-0.65,0.75-0.87,1.16c-0.23,0.4-0.28,0.91-0.03,1.25c0.24,0.34,0.75,0.34,1.2,0.19c0.45-0.14,0.89-0.4,1.29-0.64
						c0.8-0.49,1.46-1.04,2.01-1.5C248.02,148.69,248.74,148.14,248.78,148.19z"/>
				</g>
			</g>
			<path class="st18" d="M247.66,149.35c0,0,0.92-1.21,1.38-1.21c0.47,0,1.15-0.05,1.55,0.79c0.34,0.7,0.08,1.01-1.01,2.64"/>
			<g>
				<path class="st18" d="M247.66,149.35c-0.89,1.01-1.61,1.84-2.5,2.85c-0.29,0.33-0.58,0.67-0.73,1.09
					c-0.14,0.42-0.1,0.95,0.22,1.24c0.26,0.24,0.64,0.27,0.97,0.18c0.33-0.09,0.62-0.3,0.89-0.51c0.99-0.77,2.2-1.73,3.08-2.63"/>
				<g>
					<path class="st19" d="M250.69,149.71c0.05,0.01-0.17,0.89-1.04,2.01c-0.43,0.56-1.01,1.17-1.73,1.77
						c-0.36,0.3-0.75,0.6-1.18,0.87c-0.43,0.26-0.89,0.58-1.52,0.65c-0.31,0.03-0.69-0.06-0.92-0.32c-0.24-0.25-0.32-0.59-0.32-0.88
						c0.01-0.62,0.36-1.08,0.64-1.43c0.58-0.72,1.14-1.33,1.61-1.84c0.95-1.02,1.62-1.57,1.67-1.52c0.05,0.05-0.52,0.69-1.39,1.76
						c-0.44,0.54-0.96,1.17-1.51,1.89c-0.27,0.35-0.52,0.74-0.51,1.14c0,0.42,0.26,0.73,0.69,0.68c0.44-0.04,0.88-0.31,1.29-0.56
						c0.41-0.26,0.8-0.54,1.15-0.81c0.71-0.56,1.29-1.12,1.74-1.63C250.27,150.47,250.61,149.68,250.69,149.71z"/>
				</g>
			</g>
			<g>
				<g>
					<path class="st18" d="M231.12,155.62c0.77,0.74,2.06,0.58,2.99,0.05c0.93-0.54,1.64-1.37,2.53-1.97
						c2.65-1.8,6.41-1.3,8.97-3.23c0.36-0.27,0.71-0.71,0.53-1.12c-0.17-0.38-0.68-0.43-1.09-0.42c-3.54,0.03-7.07,0.05-10.61,0.08"
						/>
				</g>
				<g>
					<g>
						<path class="st19" d="M234.44,149c0-0.04,0.41-0.08,1.15-0.13c0.74-0.04,1.81-0.08,3.13-0.12c1.37-0.03,2.94-0.06,4.64-0.1
							c0.44-0.01,0.89-0.01,1.34-0.02c0.43,0.03,0.99-0.13,1.55,0.35c0.27,0.25,0.3,0.71,0.16,0.99c-0.13,0.29-0.33,0.5-0.54,0.68
							c-0.42,0.31-0.86,0.59-1.34,0.8c-1.93,0.85-3.88,0.98-5.52,1.48c-0.82,0.24-1.57,0.54-2.19,0.95
							c-0.62,0.41-1.15,0.91-1.68,1.32c-1.03,0.88-2.24,1.18-3,1c-0.78-0.16-1.03-0.59-1.01-0.6c0.03-0.05,0.33,0.29,1.04,0.36
							c0.71,0.08,1.74-0.22,2.69-1.1c0.5-0.42,1-0.94,1.67-1.41c0.66-0.47,1.46-0.81,2.31-1.07c1.7-0.54,3.65-0.7,5.43-1.5
							c0.44-0.19,0.85-0.45,1.22-0.72c0.35-0.27,0.52-0.64,0.34-0.79c-0.18-0.19-0.67-0.19-1.12-0.18c-0.46,0-0.9,0-1.34,0
							c-1.7-0.01-3.27-0.02-4.64-0.03c-1.32-0.02-2.39-0.04-3.13-0.07C234.85,149.08,234.44,149.05,234.44,149z"/>
					</g>
				</g>
			</g>
			<path class="st18" d="M248.91,152.47c0,0,0.68-0.9,1.03-0.9c0.35,0,0.85-0.03,1.15,0.59c0.25,0.52,0.06,0.75-0.75,1.96"/>
			<g>
				<path class="st18" d="M248.91,152.47c-0.66,0.75-1.2,1.36-1.85,2.11c-0.21,0.24-0.43,0.5-0.54,0.81
					c-0.11,0.31-0.07,0.7,0.16,0.92c0.19,0.17,0.47,0.2,0.72,0.13c0.24-0.07,0.46-0.22,0.66-0.38c0.73-0.57,1.63-1.28,2.28-1.95"/>
				<g>
					<path class="st19" d="M251.16,152.74c0.06,0.02-0.1,0.68-0.74,1.52c-0.32,0.42-0.74,0.88-1.28,1.33
						c-0.27,0.22-0.56,0.45-0.88,0.65c-0.32,0.19-0.66,0.44-1.16,0.49c-0.24,0.03-0.55-0.05-0.74-0.25c-0.2-0.21-0.26-0.47-0.26-0.7
						c0.01-0.49,0.28-0.83,0.49-1.1c0.46-0.51,0.89-0.96,1.25-1.33c0.72-0.74,1.19-1.17,1.24-1.12c0.05,0.05-0.33,0.57-0.97,1.37
						c-0.37,0.45-0.75,0.91-1.14,1.38c-0.2,0.26-0.37,0.54-0.36,0.81c0.01,0.29,0.15,0.46,0.44,0.43c0.3-0.02,0.62-0.22,0.93-0.4
						c0.3-0.19,0.59-0.39,0.85-0.6c0.52-0.41,0.96-0.82,1.29-1.19C250.82,153.28,251.08,152.7,251.16,152.74z"/>
				</g>
			</g>
			<g>
				<path class="st19" d="M241.35,157.54c-0.15-0.02-0.05-1.15-0.66-2.33c-0.59-1.2-1.56-1.79-1.48-1.92
					c0.03-0.14,1.27,0.32,1.95,1.69C241.85,156.33,241.47,157.6,241.35,157.54z"/>
			</g>
		</g>
		<g>
			<g>
				<path class="st6" d="M162.6,242.8c0,0-1.94-56.64-2.51-65c13.96,7.79,35.63,17.76,37.97,18.25
					c4.19,0.88,41.48-32.27,41.48-32.27l-13.35-10.46l-30.84,17.36l-40.4-24.12l0,0.01c-2.82-2.06-6.17-3.47-9.87-3.93
					c-0.09-0.01-0.19-0.02-0.28-0.03c-1.43-0.17-2.14-0.38-3-0.48l0,0c-6.39,4.8-17.31,5.11-23.58,0.16c0,0,0,0,0,0
					s-4.76,1.08-7.6,1.62c-8.95,1.71-15.38,8.23-17.17,14.25l11.2,25.82l2.15,24.53l-5.66,31.54L162.6,242.8"/>
			</g>
			<g class="st10">
				<path class="st20" d="M104.61,219.38c2.38,2.26,5.9,3.27,9.12,2.62c2.3-0.46,4.48-1.71,6.82-1.56c2.56,0.17,4.68,1.96,7.01,3.02
					c4.36,1.98,9.45,1.34,14.08,0.11c2.13-0.57,4.35-1.34,5.72-3.06c1.07-1.34,1.47-3.07,1.76-4.75c0.53-3.11,0.76-6.27,0.69-9.42
					c-0.05-1.98-0.27-4.09-1.52-5.62c-1.02-1.25-2.62-1.92-4.22-2.13c-1.6-0.21-3.22,0.01-4.82,0.27
					c-12.61,2.08-24.7,7.26-34.9,14.97"/>
			</g>
			<g>
				<path class="st6" d="M127.1,208.96c0,0-29.35,13.13-32.34,13.78c-9.91,2.17-21.24-7.19-18.09-17.85
					c1.17-3.97,16.96-47.86,16.96-47.86l15.03,20.77l-6.36,21.26l16.65-1.11L127.1,208.96z"/>
			</g>
			<g>
				<g>
					<polygon class="st21" points="118.63,141.8 118.63,141.8 118.63,141.8 					"/>
				</g>
			</g>
			<g class="st22">
				<path class="st23" d="M161.16,149.63"/>
			</g>
			<g>
				<path class="st4" d="M117.6,198.12c0,0.03-0.41,0.09-1.16,0.16c-0.84,0.07-1.92,0.16-3.21,0.27c-2.73,0.21-6.55,0.48-10.91,0.75
					l-0.37,0.02l0.1-0.35c0.32-1.06,0.64-2.16,0.98-3.29c1.48-4.96,2.86-9.45,3.87-12.68c0.5-1.54,0.91-2.83,1.23-3.83
					c0.3-0.9,0.49-1.39,0.52-1.38s-0.08,0.52-0.33,1.44c-0.28,1.01-0.64,2.31-1.07,3.87c-0.93,3.26-2.24,7.77-3.73,12.73
					c-0.34,1.13-0.67,2.23-0.99,3.29l-0.26-0.33c4.35-0.25,8.18-0.45,10.92-0.58c1.3-0.05,2.37-0.09,3.22-0.12
					C117.19,198.08,117.6,198.09,117.6,198.12z"/>
			</g>
			<g>
				<path class="st4" d="M96.14,206c-0.06-0.01,0-0.58,0.32-1.44c0.32-0.85,0.94-1.98,1.89-3c0.96-1.02,2.04-1.72,2.87-2.09
					c0.83-0.38,1.39-0.47,1.41-0.41c0.07,0.15-2.08,0.88-3.9,2.86C96.88,203.87,96.3,206.05,96.14,206z"/>
			</g>
			<g>
				<path class="st4" d="M123.83,210.67c0.05,0.13-6.39,2.91-14.39,6.21c-8,3.3-14.53,5.86-14.59,5.73
					c-0.05-0.13,6.39-2.91,14.39-6.21C117.24,213.11,123.77,210.54,123.83,210.67z"/>
			</g>
			<g>
				<path class="st4" d="M161.66,214.96c-0.02,0-0.04-0.16-0.06-0.46c-0.02-0.37-0.04-0.81-0.07-1.33c-0.05-1.24-0.11-2.9-0.19-4.9
					c-0.16-4.14-0.39-9.86-0.76-16.16c-0.37-6.31-0.82-12.01-1.27-16.12c-0.22-2.06-0.45-3.71-0.61-4.86
					c-0.19-1.14-0.28-1.78-0.24-1.78c0.02,0,0.07,0.15,0.14,0.45c0.08,0.36,0.18,0.79,0.3,1.3c0.22,1.14,0.51,2.79,0.78,4.85
					c0.55,4.11,1.06,9.82,1.42,16.14c0.37,6.31,0.54,12.04,0.61,16.18c0.03,2.07,0.04,3.75,0.03,4.91
					c-0.01,0.53-0.02,0.97-0.03,1.33C161.7,214.8,161.68,214.96,161.66,214.96z"/>
			</g>
			<g>
				<path class="st3" d="M110.57,158.01c0.04,0.08-0.82,0.45-1.94,1.41c-1.11,0.94-2.46,2.58-3.09,4.75l-0.14,0.5l-0.32-0.42
					c-0.06-0.08-0.13-0.18-0.2-0.27c-1.43-1.84-3.57-2.62-5.06-2.77c-1.53-0.17-2.47,0.15-2.49,0.05c-0.01-0.03,0.21-0.13,0.65-0.25
					c0.43-0.11,1.08-0.21,1.88-0.16c1.58,0.06,3.89,0.82,5.44,2.82c0.07,0.1,0.15,0.2,0.22,0.29l-0.46,0.08
					c0.67-2.3,2.15-3.98,3.36-4.88C109.63,158.22,110.55,157.97,110.57,158.01z"/>
			</g>
			<g>
				<path class="st3" d="M129.58,170.1c0.04,0.08-0.82,0.45-1.94,1.41c-1.11,0.94-2.46,2.58-3.09,4.75l-0.14,0.5l-0.32-0.42
					c-0.06-0.08-0.13-0.18-0.2-0.27c-1.43-1.84-3.57-2.62-5.06-2.77c-1.53-0.17-2.47,0.15-2.49,0.05c-0.01-0.03,0.21-0.13,0.65-0.25
					c0.43-0.11,1.08-0.21,1.88-0.16c1.58,0.06,3.89,0.82,5.44,2.82c0.07,0.1,0.15,0.2,0.22,0.29l-0.46,0.08
					c0.67-2.3,2.15-3.98,3.36-4.88C128.64,170.31,129.56,170.05,129.58,170.1z"/>
			</g>
			<g>
				<path class="st14" d="M103.94,180.45c0.01,0.09-0.92,0.15-2.3,0.68c-1.37,0.51-3.18,1.6-4.51,3.43l-0.3,0.42l-0.16-0.5
					c-0.03-0.1-0.07-0.21-0.1-0.32c-0.73-2.22-2.48-3.67-3.83-4.31c-1.38-0.67-2.38-0.7-2.37-0.79c0-0.03,0.25-0.05,0.69-0.02
					c0.44,0.04,1.08,0.17,1.83,0.48c1.46,0.59,3.39,2.09,4.18,4.48c0.04,0.12,0.07,0.24,0.11,0.35l-0.46-0.08
					c1.41-1.94,3.36-3.03,4.81-3.47C102.99,180.34,103.95,180.4,103.94,180.45z"/>
			</g>
			<g>
				<path class="st14" d="M97.63,195.56c0.01,0.09-0.92,0.15-2.3,0.68c-1.37,0.51-3.18,1.6-4.51,3.43l-0.3,0.42l-0.16-0.5
					c-0.03-0.1-0.07-0.21-0.1-0.32c-0.73-2.22-2.48-3.67-3.83-4.31c-1.38-0.67-2.38-0.7-2.37-0.79c0-0.03,0.25-0.05,0.69-0.02
					c0.44,0.04,1.08,0.17,1.83,0.48c1.46,0.59,3.39,2.09,4.18,4.48c0.04,0.12,0.07,0.24,0.11,0.35l-0.46-0.08
					c1.41-1.94,3.36-3.03,4.81-3.47C96.68,195.44,97.63,195.51,97.63,195.56z"/>
			</g>
			<g>
				<path class="st14" d="M96.46,211c0.01,0.09-0.92,0.15-2.3,0.68c-1.37,0.51-3.18,1.6-4.51,3.43l-0.3,0.42l-0.16-0.5
					c-0.03-0.1-0.07-0.21-0.1-0.32c-0.73-2.22-2.48-3.67-3.83-4.31c-1.38-0.67-2.38-0.7-2.37-0.79c0-0.03,0.25-0.05,0.69-0.02
					c0.44,0.04,1.08,0.17,1.83,0.48c1.46,0.59,3.39,2.09,4.18,4.48c0.04,0.12,0.07,0.24,0.11,0.35l-0.46-0.08
					c1.41-1.94,3.36-3.03,4.81-3.47C95.5,210.88,96.46,210.95,96.46,211z"/>
			</g>
			<g>
				<path class="st14" d="M138.98,154.97c0.04,0.08-0.82,0.45-1.94,1.41c-1.11,0.94-2.46,2.58-3.09,4.75l-0.14,0.5l-0.32-0.42
					c-0.06-0.08-0.13-0.18-0.2-0.27c-1.43-1.84-3.57-2.62-5.06-2.77c-1.53-0.17-2.47,0.15-2.49,0.05c-0.01-0.03,0.21-0.13,0.65-0.25
					c0.43-0.11,1.08-0.21,1.88-0.16c1.58,0.06,3.89,0.82,5.44,2.82c0.07,0.1,0.15,0.2,0.22,0.29l-0.46,0.08
					c0.67-2.3,2.15-3.98,3.36-4.88C138.04,155.18,138.97,154.92,138.98,154.97z"/>
			</g>
			<g>
				<path class="st14" d="M153.91,149.82c0.01,0.09-0.93,0.09-2.34,0.53c-1.4,0.42-3.28,1.4-4.72,3.14l-0.33,0.4l-0.13-0.51
					c-0.03-0.1-0.05-0.21-0.08-0.32c-0.59-2.26-2.24-3.81-3.56-4.54c-1.34-0.76-2.33-0.84-2.31-0.94c0-0.03,0.25-0.04,0.69,0.03
					c0.44,0.07,1.07,0.24,1.79,0.59c1.42,0.68,3.25,2.29,3.89,4.74c0.03,0.12,0.06,0.24,0.09,0.35l-0.46-0.11
					c1.53-1.85,3.55-2.81,5.02-3.16C152.96,149.64,153.91,149.77,153.91,149.82z"/>
			</g>
			<g>
				<path class="st14" d="M122.95,146.58c0.04,0.08-0.82,0.45-1.94,1.41c-1.11,0.94-2.46,2.58-3.09,4.75l-0.14,0.5l-0.32-0.42
					c-0.06-0.08-0.13-0.18-0.2-0.27c-1.43-1.84-3.57-2.62-5.06-2.77c-1.53-0.17-2.47,0.15-2.49,0.05c-0.01-0.03,0.21-0.13,0.65-0.25
					c0.43-0.11,1.08-0.21,1.88-0.16c1.58,0.06,3.89,0.82,5.44,2.82c0.07,0.1,0.15,0.2,0.22,0.29l-0.46,0.08
					c0.67-2.3,2.15-3.98,3.36-4.88C122.01,146.79,122.94,146.53,122.95,146.58z"/>
			</g>
			<g>
				<path class="st14" d="M154.36,173.15c0.04,0.08-0.82,0.45-1.94,1.41c-1.11,0.94-2.46,2.58-3.09,4.75l-0.14,0.5l-0.32-0.42
					c-0.06-0.08-0.13-0.18-0.2-0.27c-1.43-1.84-3.57-2.62-5.06-2.77c-1.53-0.17-2.47,0.15-2.49,0.05c-0.01-0.03,0.21-0.13,0.64-0.25
					c0.43-0.11,1.08-0.21,1.88-0.16c1.58,0.06,3.89,0.82,5.44,2.82c0.07,0.1,0.15,0.2,0.22,0.29l-0.46,0.08
					c0.67-2.3,2.15-3.98,3.36-4.88C153.42,173.36,154.34,173.1,154.36,173.15z"/>
			</g>
			<g>
				<path class="st14" d="M126.37,213.94c0.04,0.08-0.82,0.45-1.94,1.41c-1.11,0.94-2.46,2.58-3.09,4.75l-0.14,0.5l-0.32-0.42
					c-0.06-0.08-0.13-0.18-0.2-0.27c-1.43-1.84-3.57-2.62-5.06-2.77c-1.53-0.17-2.47,0.15-2.49,0.05c-0.01-0.03,0.21-0.13,0.65-0.25
					c0.43-0.11,1.08-0.21,1.88-0.16c1.58,0.06,3.89,0.82,5.44,2.82c0.07,0.1,0.15,0.2,0.22,0.29l-0.46,0.08
					c0.67-2.3,2.15-3.98,3.36-4.88C125.43,214.15,126.35,213.89,126.37,213.94z"/>
			</g>
			<g>
				<path class="st14" d="M115.43,204.19c0.04,0.08-0.82,0.45-1.94,1.41c-1.11,0.94-2.46,2.58-3.09,4.75l-0.14,0.5l-0.32-0.42
					c-0.06-0.08-0.13-0.18-0.2-0.27c-1.43-1.84-3.57-2.62-5.06-2.77c-1.53-0.17-2.47,0.15-2.49,0.05c-0.01-0.03,0.21-0.13,0.65-0.25
					c0.43-0.11,1.08-0.21,1.88-0.16c1.58,0.06,3.89,0.82,5.44,2.82c0.07,0.1,0.15,0.2,0.22,0.29l-0.46,0.08
					c0.67-2.3,2.15-3.98,3.36-4.88C114.5,204.4,115.42,204.14,115.43,204.19z"/>
			</g>
			<g>
				<path class="st14" d="M160.06,208.49c0,0.09-0.93,0.04-2.36,0.41c-1.42,0.35-3.35,1.22-4.88,2.88l-0.35,0.38l-0.1-0.52
					c-0.02-0.1-0.04-0.22-0.06-0.33c-0.46-2.28-2.03-3.93-3.31-4.73c-1.29-0.83-2.28-0.97-2.26-1.07c0.01-0.03,0.25-0.03,0.69,0.06
					c0.44,0.09,1.06,0.29,1.76,0.69c1.38,0.76,3.12,2.47,3.63,4.94c0.02,0.12,0.05,0.24,0.07,0.36l-0.45-0.14
					c1.63-1.76,3.69-2.61,5.18-2.88C159.12,208.27,160.07,208.44,160.06,208.49z"/>
			</g>
			<g>
				<path class="st14" d="M139.25,228.39c0.02,0.09-0.9,0.26-2.2,0.95c-1.3,0.67-2.97,1.96-4.07,3.94l-0.25,0.45l-0.22-0.48
					c-0.04-0.1-0.09-0.2-0.14-0.3c-0.98-2.11-2.89-3.35-4.32-3.83c-1.45-0.51-2.44-0.41-2.44-0.51c0-0.03,0.24-0.08,0.68-0.1
					c0.44-0.01,1.1,0.04,1.87,0.26c1.52,0.41,3.61,1.67,4.68,3.96c0.05,0.11,0.1,0.23,0.15,0.33l-0.47-0.03
					c1.17-2.09,2.98-3.4,4.37-4.01C138.29,228.39,139.24,228.34,139.25,228.39z"/>
			</g>
			<g>
				<path class="st14" d="M152.59,220.58c0,0.09-0.93,0.04-2.36,0.41c-1.42,0.35-3.35,1.22-4.88,2.88l-0.35,0.38l-0.1-0.52
					c-0.02-0.1-0.04-0.22-0.06-0.33c-0.46-2.28-2.03-3.93-3.31-4.73c-1.29-0.83-2.28-0.97-2.26-1.07c0.01-0.03,0.25-0.03,0.69,0.06
					c0.44,0.09,1.06,0.29,1.76,0.69c1.38,0.76,3.12,2.47,3.63,4.94c0.02,0.12,0.05,0.24,0.07,0.36l-0.45-0.14
					c1.63-1.76,3.69-2.61,5.18-2.88C151.66,220.36,152.6,220.53,152.59,220.58z"/>
			</g>
			<g>
				<path class="st14" d="M118.92,232.99c0,0.09-0.93,0.04-2.36,0.41c-1.42,0.35-3.35,1.22-4.88,2.88l-0.35,0.38l-0.1-0.52
					c-0.02-0.1-0.04-0.22-0.06-0.33c-0.46-2.28-2.03-3.93-3.31-4.73c-1.29-0.83-2.28-0.97-2.26-1.07c0.01-0.03,0.25-0.02,0.69,0.06
					c0.44,0.09,1.06,0.29,1.76,0.69c1.38,0.76,3.12,2.47,3.63,4.94c0.02,0.12,0.05,0.24,0.07,0.36l-0.45-0.14
					c1.63-1.76,3.69-2.61,5.18-2.88C117.99,232.76,118.93,232.94,118.92,232.99z"/>
			</g>
			<g>
				<path class="st14" d="M159.33,231.3c0.04,0.08-0.84,0.41-2.01,1.31c-1.16,0.88-2.59,2.45-3.33,4.58l-0.17,0.49l-0.3-0.44
					c-0.06-0.09-0.12-0.18-0.19-0.28c-1.33-1.91-3.43-2.8-4.91-3.03c-1.52-0.25-2.48,0.02-2.49-0.08c-0.01-0.03,0.22-0.12,0.66-0.22
					c0.44-0.09,1.09-0.15,1.89-0.07c1.57,0.14,3.85,1.02,5.29,3.09c0.07,0.1,0.14,0.2,0.2,0.3l-0.47,0.05
					c0.79-2.26,2.35-3.87,3.61-4.71C158.39,231.46,159.32,231.25,159.33,231.3z"/>
			</g>
			<g>
				<path class="st14" d="M154.97,189.87c0.04,0.08-0.82,0.45-1.94,1.41c-1.11,0.94-2.46,2.58-3.09,4.75l-0.14,0.5l-0.32-0.42
					c-0.06-0.08-0.13-0.18-0.2-0.27c-1.43-1.84-3.57-2.62-5.06-2.77c-1.53-0.17-2.47,0.15-2.49,0.05c-0.01-0.03,0.21-0.13,0.65-0.25
					c0.43-0.11,1.08-0.21,1.88-0.16c1.58,0.06,3.89,0.82,5.44,2.82c0.07,0.1,0.15,0.2,0.22,0.29l-0.46,0.08
					c0.67-2.3,2.15-3.98,3.36-4.88C154.04,190.08,154.96,189.82,154.97,189.87z"/>
			</g>
			<g>
				<path class="st14" d="M167.4,157.07c0.04,0.08-0.82,0.45-1.94,1.41c-1.11,0.94-2.46,2.58-3.09,4.75l-0.14,0.5l-0.32-0.42
					c-0.06-0.08-0.13-0.18-0.2-0.27c-1.43-1.84-3.57-2.62-5.06-2.77c-1.53-0.17-2.47,0.15-2.49,0.05c-0.01-0.03,0.21-0.13,0.65-0.25
					c0.43-0.11,1.08-0.21,1.88-0.16c1.58,0.06,3.89,0.82,5.44,2.82c0.07,0.1,0.15,0.2,0.22,0.29l-0.46,0.08
					c0.67-2.3,2.15-3.98,3.36-4.88C166.46,157.28,167.38,157.02,167.4,157.07z"/>
			</g>
			<g>
				<path class="st14" d="M197.2,173.54c0.04,0.08-0.82,0.45-1.94,1.41c-1.11,0.94-2.46,2.58-3.09,4.75l-0.14,0.5l-0.32-0.42
					c-0.06-0.08-0.13-0.18-0.2-0.27c-1.43-1.84-3.57-2.62-5.06-2.77c-1.53-0.17-2.47,0.15-2.49,0.05c-0.01-0.03,0.21-0.13,0.64-0.25
					c0.43-0.11,1.08-0.21,1.88-0.16c1.58,0.06,3.89,0.82,5.44,2.82c0.07,0.1,0.15,0.2,0.22,0.29l-0.46,0.08
					c0.67-2.3,2.15-3.98,3.36-4.88C196.26,173.75,197.18,173.49,197.2,173.54z"/>
			</g>
			<g>
				<path class="st14" d="M219.77,170.59c0.04,0.08-0.82,0.45-1.94,1.41c-1.11,0.94-2.46,2.58-3.09,4.75l-0.14,0.5l-0.32-0.42
					c-0.06-0.08-0.13-0.18-0.2-0.27c-1.43-1.84-3.57-2.62-5.06-2.77c-1.53-0.17-2.47,0.15-2.49,0.05c-0.01-0.03,0.21-0.13,0.65-0.25
					c0.43-0.11,1.08-0.21,1.88-0.16c1.58,0.06,3.89,0.82,5.44,2.82c0.07,0.1,0.15,0.2,0.22,0.29l-0.46,0.08
					c0.67-2.3,2.15-3.98,3.36-4.88C218.83,170.8,219.76,170.54,219.77,170.59z"/>
			</g>
			<g>
				<path class="st14" d="M230.11,158.01c0.04,0.08-0.82,0.45-1.94,1.41c-1.11,0.94-2.46,2.58-3.09,4.75l-0.14,0.5l-0.32-0.42
					c-0.06-0.08-0.13-0.18-0.2-0.27c-1.43-1.84-3.57-2.62-5.06-2.77c-1.53-0.17-2.47,0.15-2.49,0.05c-0.01-0.03,0.21-0.13,0.65-0.25
					c0.43-0.11,1.08-0.21,1.88-0.16c1.58,0.06,3.89,0.82,5.44,2.82c0.07,0.1,0.15,0.2,0.22,0.29l-0.46,0.08
					c0.67-2.3,2.15-3.98,3.36-4.88C229.17,158.22,230.1,157.97,230.11,158.01z"/>
			</g>
			<g>
				<path class="st14" d="M177.79,173.43c0.03,0.09-0.87,0.33-2.12,1.13c-1.24,0.78-2.8,2.21-3.73,4.27l-0.21,0.47l-0.26-0.46
					c-0.05-0.09-0.11-0.19-0.16-0.29c-1.16-2.02-3.16-3.09-4.62-3.45c-1.49-0.38-2.47-0.2-2.48-0.3c0-0.03,0.23-0.1,0.67-0.16
					c0.44-0.05,1.1-0.05,1.89,0.1c1.55,0.28,3.74,1.36,4.99,3.55c0.06,0.11,0.12,0.22,0.18,0.32l-0.47,0.01
					c0.99-2.18,2.69-3.64,4.02-4.36C176.83,173.5,177.78,173.38,177.79,173.43z"/>
			</g>
			<g>
				<path class="st14" d="M204.93,186.26c0.03,0.09-0.87,0.33-2.12,1.13c-1.24,0.78-2.8,2.21-3.73,4.27l-0.21,0.47l-0.26-0.46
					c-0.05-0.09-0.11-0.19-0.16-0.29c-1.16-2.02-3.16-3.09-4.62-3.45c-1.49-0.38-2.47-0.2-2.48-0.3c0-0.03,0.23-0.1,0.67-0.16
					c0.44-0.05,1.1-0.05,1.88,0.1c1.55,0.28,3.74,1.36,4.99,3.55c0.06,0.11,0.12,0.22,0.18,0.32l-0.47,0.01
					c0.99-2.18,2.69-3.64,4.02-4.36C203.97,186.34,204.93,186.21,204.93,186.26z"/>
			</g>
			<g>
				<path class="st4" d="M195.91,180.59c-0.11,0.06-1.16-2.08-1.36-4.98c-0.22-2.89,0.51-5.17,0.63-5.12
					c0.16,0.03-0.33,2.29-0.11,5.08C195.26,178.38,196.06,180.54,195.91,180.59z"/>
			</g>
			<g class="st10">
				<path class="st20" d="M106.43,199.09c2.24-2.54,3.63-5.83,3.88-9.21c0.25-3.38-0.37-6.87-2.22-9.72
					c0.06,0.37-2.91,10.19-2.91,10.19l0.76,8.4"/>
			</g>
			<g>
				<g>
					<g>
						<path class="st15" d="M120.28,197.15l-2.32-11.27c-0.19-0.9,0.51-1.74,1.43-1.74l29.17,0.14c0.86,0,1.53,0.76,1.43,1.62
							l-3.01,25.82c-0.12,1.02-0.99,1.79-2.01,1.78l-19.02-0.15c-0.91-0.01-1.71-0.63-1.94-1.52L120.28,197.15z"/>
					</g>
					<g>
						<g>
							<g>
								<path class="st18" d="M117.71,191.21c1.27,0,2.41,0.77,2.86,1.96c0.48,1.24,1.18,2.7,1.95,3.12
									c1.43,0.78,3.91,1.4,5.21,0.77c1.3-0.64,6.51-5.33,7.42-4.8c0.91,0.52,1.69,1.69,0.78,2.73c-0.91,1.04-5.73,4.17-4.82,5.21
									c0.91,1.04,11.07-3.54,12.63-3.14c1.56,0.4,2.47,1.36,1.56,1.99c-0.91,0.63-7.81,3.23-8.2,4.14c0,0,10.42-2.73,10.81-2.08
									s1.04,1.69,0,2.08c-1.04,0.39-10.03,2.73-10.81,3.13c-0.78,0.39-3.47,1.17-4.02,1.17c-0.28,0-2.32,0.68-4.2,1.33
									c-2.11,0.73-4.41,0.67-6.48-0.17l-1.05-0.43c-1.64-0.67-2.67-2.31-2.57-4.08l0.21-3.55c-1.12-2.52-2.24-5.04-3.36-7.55
									c-0.12-0.61,0.11-1.24,0.59-1.6C116.89,190.95,117.64,191.19,117.71,191.21z"/>
							</g>
						</g>
					</g>
				</g>
				<path class="st3" d="M135.21,188.48c0,0.59-0.47,1.06-1.06,1.06c-0.59,0-1.06-0.47-1.06-1.06s0.47-1.06,1.06-1.06
					C134.74,187.42,135.21,187.89,135.21,188.48z"/>
			</g>
		</g>
	</g>
</g>
<g id="Planta">
	<g>
		<g>
			<g>
				<g>
					<path class="st11" d="M306.85,385.54c8.37,2.92,19.29,0.31,26.46-4.92c7.16-5.23,12.32-12.72,16.88-20.33
						c1.95-3.24,3.85-6.63,4.47-10.36c0.62-3.73-0.29-7.93-3.19-10.37c-4.5-3.79-11.4-1.87-16.51,1.05
						C318.97,349.72,308.05,367.17,306.85,385.54"/>
				</g>
			</g>
			<g>
				<g>
					<path class="st11" d="M315.84,405.58c5.03,6.63,13.67,9.59,21.98,9.97c8.31,0.38,16.53-1.91,24.3-4.9
						c2.82-1.08,5.91-2.57,6.87-5.43c0.73-2.17-0.02-4.63-1.47-6.4c-1.45-1.77-3.51-2.93-5.61-3.82
						c-7.65-3.26-16.41-3.41-24.46-1.32C329.4,395.77,322.37,400.43,315.84,405.58"/>
				</g>
			</g>
			<g>
				<g>
					<path class="st11" d="M306.72,349.67c6.93,0.14,12.18-5.93,15.32-12.11c4.35-8.56,5.82-18.55,4.13-28
						c-0.63-3.54-1.97-7.36-5.14-9.06c-3.22-1.73-7.41-0.59-10.11,1.87c-2.7,2.47-4.18,5.98-5.26,9.48
						C301.93,323.88,302.73,337.72,306.72,349.67"/>
				</g>
			</g>
			<g>
				<g>
					<path class="st11" d="M283.96,388.01c11.82-20.11,13.79-44.72,6.81-66.98c-1.13-3.61-3.27-7.74-7.05-7.98
						c-4.18-0.27-6.8,4.4-7.96,8.43c-4.05,14.13-3.19,29.15-2.29,43.82C274.02,374.33,277.12,382.06,283.96,388.01"/>
				</g>
			</g>
			<g>
				<g>
					<path class="st11" d="M271.67,396.28c-4.28-13.77-15.18-25.33-28.68-30.41c-3.14-1.18-7.13-1.86-9.47,0.55
						c-2.3,2.36-1.59,6.29-0.12,9.23c2.38,4.75,6.24,8.57,10.09,12.23c3.5,3.33,7.14,6.68,11.56,8.61
						C259.49,398.42,267.62,398.92,271.67,396.28"/>
				</g>
			</g>
			<g>
				<g>
					<g>
						<path class="st4" d="M344.93,344.61c0.01,0.01-0.06,0.07-0.21,0.18c-0.17,0.13-0.38,0.29-0.64,0.49
							c-0.6,0.45-1.43,1.07-2.48,1.85c-0.54,0.4-1.14,0.84-1.8,1.33c-0.65,0.5-1.32,1.08-2.06,1.68c-1.46,1.22-3.19,2.54-4.93,4.19
							c-0.89,0.81-1.82,1.65-2.79,2.53c-0.96,0.89-1.89,1.88-2.89,2.88c-2.03,1.96-4,4.24-6.12,6.6
							c-4.1,4.83-8.31,10.41-12.19,16.61c-3.82,6.25-6.92,12.5-9.41,18.33c-1.16,2.95-2.32,5.73-3.16,8.43
							c-0.44,1.34-0.92,2.62-1.28,3.87c-0.35,1.26-0.69,2.47-1.02,3.62c-0.7,2.3-1.11,4.43-1.55,6.29
							c-0.21,0.93-0.42,1.79-0.58,2.59c-0.14,0.8-0.27,1.53-0.38,2.2c-0.23,1.29-0.42,2.3-0.55,3.04c-0.06,0.32-0.11,0.58-0.16,0.79
							c-0.04,0.18-0.06,0.27-0.07,0.27c-0.01,0,0-0.09,0.02-0.27c0.03-0.21,0.06-0.47,0.1-0.8c0.11-0.74,0.26-1.77,0.45-3.06
							c0.1-0.67,0.21-1.41,0.34-2.21c0.14-0.81,0.34-1.67,0.54-2.61c0.41-1.87,0.79-4.01,1.47-6.32c0.32-1.16,0.64-2.38,0.99-3.65
							c0.35-1.27,0.82-2.55,1.25-3.9c0.82-2.71,1.97-5.51,3.13-8.48c2.47-5.86,5.58-12.16,9.41-18.43
							c3.89-6.23,8.13-11.82,12.27-16.65c2.14-2.36,4.13-4.64,6.18-6.59c1.01-0.99,1.95-1.98,2.93-2.86
							c0.98-0.87,1.92-1.71,2.82-2.51c1.76-1.64,3.51-2.94,5-4.14c0.75-0.59,1.44-1.16,2.09-1.65c0.67-0.47,1.28-0.9,1.83-1.29
							c1.07-0.75,1.92-1.34,2.54-1.77c0.27-0.18,0.49-0.33,0.67-0.45C344.85,344.65,344.93,344.6,344.93,344.61z"/>
					</g>
				</g>
			</g>
			<g>
				<g>
					<g>
						<path class="st4" d="M360.58,400.36c0,0.02-0.28-0.03-0.81-0.14c-0.53-0.1-1.3-0.3-2.3-0.47c-2-0.39-4.92-0.83-8.56-1.05
							c-7.23-0.46-17.5,0.39-27.79,4.67c-10.29,4.28-18.14,10.96-22.9,16.42c-2.41,2.73-4.16,5.11-5.29,6.81
							c-0.59,0.83-0.99,1.52-1.29,1.96c-0.3,0.45-0.46,0.68-0.48,0.67c-0.02-0.01,0.11-0.26,0.38-0.73
							c0.28-0.46,0.64-1.17,1.21-2.02c1.08-1.74,2.79-4.17,5.17-6.95c4.72-5.55,12.6-12.36,22.99-16.67
							c10.38-4.32,20.76-5.12,28.02-4.55c3.65,0.27,6.58,0.77,8.57,1.23c1,0.2,1.76,0.44,2.28,0.57
							C360.32,400.26,360.59,400.34,360.58,400.36z"/>
					</g>
				</g>
			</g>
			<g>
				<g>
					<g>
						<path class="st4" d="M316.94,308.52c0.01,0-0.01,0.11-0.05,0.31c-0.05,0.23-0.11,0.53-0.19,0.9
							c-0.19,0.83-0.45,1.99-0.78,3.46c-0.68,3.01-1.72,7.34-3.02,12.69c-2.6,10.71-6.39,25.45-10.33,41.79
							c-1.96,8.17-3.73,15.98-5.26,23.1c-1.5,7.13-2.78,13.56-3.73,18.98c-0.51,2.71-0.89,5.17-1.26,7.32
							c-0.37,2.16-0.66,4.02-0.88,5.54c-0.23,1.49-0.41,2.66-0.55,3.5c-0.06,0.37-0.12,0.67-0.16,0.91
							c-0.04,0.2-0.06,0.31-0.07,0.31c-0.01,0,0-0.11,0.02-0.32c0.03-0.24,0.06-0.54,0.1-0.92c0.11-0.84,0.25-2.02,0.44-3.52
							c0.19-1.53,0.44-3.4,0.79-5.56c0.33-2.16,0.69-4.63,1.18-7.34c0.9-5.44,2.14-11.88,3.61-19.02c1.5-7.13,3.26-14.95,5.22-23.13
							c3.94-16.34,7.79-31.07,10.49-41.75c1.34-5.31,2.43-9.62,3.19-12.65c0.37-1.46,0.67-2.61,0.88-3.44
							c0.1-0.37,0.18-0.66,0.24-0.89C316.9,308.62,316.93,308.52,316.94,308.52z"/>
					</g>
				</g>
			</g>
			<g>
				<g>
					<g>
						<path class="st4" d="M289.8,425.73c-0.01,0-0.03-0.08-0.08-0.24c-0.04-0.2-0.1-0.43-0.17-0.73c-0.14-0.69-0.34-1.62-0.58-2.8
							c-0.5-2.43-1.16-5.96-1.92-10.34c-1.52-8.75-3.31-20.9-4.42-34.42c-0.54-6.76-0.83-13.21-0.96-19.09
							c-0.1-5.87-0.05-11.17,0.14-15.6c0.05-2.22,0.2-4.23,0.3-5.99c0.09-1.76,0.21-3.28,0.33-4.51c0.11-1.2,0.2-2.15,0.26-2.85
							c0.03-0.3,0.06-0.54,0.08-0.74c0.02-0.17,0.04-0.25,0.05-0.25c0.01,0,0.01,0.09,0.01,0.26c-0.01,0.2-0.02,0.44-0.03,0.74
							c-0.04,0.7-0.09,1.65-0.16,2.85c-0.08,1.24-0.17,2.75-0.23,4.51c-0.07,1.76-0.19,3.76-0.21,5.98
							c-0.13,4.43-0.14,9.72-0.02,15.58c0.16,5.86,0.47,12.31,1.01,19.05c1.1,13.49,2.84,25.64,4.25,34.4
							c0.71,4.38,1.31,7.92,1.75,10.37c0.2,1.19,0.36,2.13,0.48,2.82c0.04,0.3,0.08,0.54,0.11,0.74
							C289.81,425.64,289.81,425.73,289.8,425.73z"/>
					</g>
				</g>
			</g>
			<g>
				<g>
					<g>
						<path class="st4" d="M290.68,428.29c-0.02,0.01-0.12-0.23-0.31-0.69c-0.2-0.51-0.46-1.19-0.78-2.02
							c-0.17-0.45-0.35-0.93-0.55-1.46c-0.24-0.53-0.49-1.09-0.76-1.7c-0.27-0.61-0.56-1.26-0.87-1.95
							c-0.31-0.69-0.7-1.39-1.08-2.14c-0.39-0.75-0.79-1.53-1.21-2.34c-0.46-0.79-0.94-1.62-1.44-2.47
							c-0.95-1.73-2.18-3.46-3.36-5.33c-2.53-3.65-5.51-7.53-8.9-11.38c-3.43-3.82-6.92-7.24-10.21-10.22
							c-1.7-1.43-3.25-2.87-4.83-4.07c-0.77-0.62-1.52-1.21-2.24-1.78c-0.74-0.54-1.45-1.07-2.12-1.57
							c-1.34-1.02-2.6-1.87-3.71-2.61c-1.1-0.76-2.06-1.4-2.87-1.88c-0.76-0.48-1.37-0.87-1.83-1.16c-0.42-0.27-0.63-0.42-0.62-0.44
							c0.01-0.02,0.24,0.1,0.68,0.34c0.48,0.27,1.11,0.63,1.89,1.07c0.83,0.46,1.81,1.07,2.92,1.8c1.13,0.72,2.41,1.55,3.77,2.55
							c0.69,0.49,1.41,1.01,2.15,1.54c0.73,0.57,1.48,1.16,2.27,1.76c1.59,1.19,3.16,2.61,4.88,4.04c3.33,2.98,6.85,6.4,10.29,10.24
							c3.41,3.87,6.39,7.77,8.91,11.46c1.18,1.9,2.4,3.64,3.33,5.39c0.49,0.86,0.96,1.7,1.42,2.5c0.41,0.82,0.8,1.62,1.18,2.37
							c0.36,0.76,0.75,1.47,1.04,2.17c0.29,0.7,0.57,1.36,0.83,1.98c0.26,0.62,0.5,1.19,0.72,1.72c0.19,0.54,0.36,1.03,0.51,1.49
							c0.28,0.85,0.51,1.54,0.68,2.06C290.63,428.03,290.7,428.28,290.68,428.29z"/>
					</g>
				</g>
			</g>
			<g>
				<g>
					<g>
						<path class="st4" d="M340.55,367.93c0,0.09-1.43,0.09-3.73,0.22c-2.3,0.13-5.47,0.43-8.92,1.08c-3.45,0.66-6.51,1.54-8.7,2.27
							c-2.19,0.72-3.52,1.25-3.55,1.17c-0.02-0.04,0.3-0.2,0.89-0.48c0.58-0.28,1.45-0.64,2.53-1.06c2.17-0.83,5.24-1.78,8.72-2.44
							c3.48-0.66,6.69-0.9,9.01-0.93c1.16-0.01,2.1,0.01,2.74,0.05C340.2,367.85,340.55,367.9,340.55,367.93z"/>
					</g>
				</g>
			</g>
			<g>
				<g>
					<g>
						<path class="st4" d="M349.47,411.48c-0.17,0.09-1.5-3.76-4.86-7.34c-3.32-3.62-7.06-5.23-6.96-5.39
							c0.02-0.06,0.98,0.26,2.4,1.06c1.42,0.79,3.26,2.13,4.96,3.95c1.69,1.83,2.89,3.77,3.57,5.24
							C349.28,410.48,349.53,411.46,349.47,411.48z"/>
					</g>
				</g>
			</g>
			<g>
				<g>
					<g>
						<path class="st4" d="M319.07,324.85c0.11,0.12-2.06,2.28-4.44,5.2c-2.39,2.91-4.06,5.48-4.2,5.39
							c-0.12-0.07,1.35-2.79,3.77-5.74C316.6,326.74,318.97,324.74,319.07,324.85z"/>
					</g>
				</g>
			</g>
			<g>
				<g>
					<g>
						<path class="st4" d="M311.93,312.52c0.15-0.03,0.63,2.06,1.08,4.66c0.44,2.6,0.68,4.73,0.53,4.76
							c-0.15,0.03-0.63-2.06-1.08-4.66C312.01,314.68,311.77,312.55,311.93,312.52z"/>
					</g>
				</g>
			</g>
			<g>
				<g>
					<g>
						<path class="st4" d="M289.82,351.21c0.14,0.07-1.41,3.33-3.46,7.28c-2.05,3.95-3.82,7.09-3.95,7.02
							c-0.14-0.07,1.41-3.33,3.46-7.28C287.91,354.29,289.68,351.14,289.82,351.21z"/>
					</g>
				</g>
			</g>
			<g>
				<g>
					<g>
						<path class="st4" d="M276.66,338.08c0.14-0.07,1.45,2.29,2.93,5.27c1.48,2.98,2.57,5.45,2.43,5.51
							c-0.14,0.07-1.45-2.29-2.93-5.27C277.61,340.61,276.52,338.15,276.66,338.08z"/>
					</g>
				</g>
			</g>
			<g>
				<g>
					<g>
						<path class="st4" d="M257.32,383c-0.04,0.16-2.38-0.3-5.31-0.5c-2.93-0.21-5.31-0.09-5.33-0.26c-0.02-0.14,2.39-0.52,5.36-0.3
							C255.03,382.15,257.36,382.86,257.32,383z"/>
					</g>
				</g>
			</g>
		</g>
		<g>
			<g>
				<g>
					<path class="st24" d="M270.53,422.72l6.58,34.6c0.43,2.29,2.44,3.94,4.76,3.94h19.44c2.37,0,4.4-1.72,4.78-4.06l5.72-34.49
						H270.53z"/>
				</g>
			</g>
			<g>
				<g>
					<polygon class="st25" points="272.67,433.96 309.84,433.96 311.81,422.72 270.53,422.72 					"/>
				</g>
			</g>
			<g>
				<g>
					<polygon class="st3" points="272.67,433.96 273.45,438.06 309.27,438.06 309.84,433.96 					"/>
				</g>
			</g>
		</g>
	</g>
</g>
<g id="Mesa">
	<g>
		<path class="st2" d="M679.71,298.59h-62.96c-5.88,0-10.64-4.77-10.64-10.64V244.6c0-5.88,4.77-10.64,10.64-10.64h62.96
			c5.88,0,10.64,4.77,10.64,10.64v43.35C690.35,293.83,685.59,298.59,679.71,298.59z"/>
		<path class="st1" d="M684.77,298.59h-62.96c-5.88,0-10.64-4.77-10.64-10.64V244.6c0-5.88,4.77-10.64,10.64-10.64h62.96
			c5.88,0,10.64,4.77,10.64,10.64v43.35C695.42,293.83,690.65,298.59,684.77,298.59z"/>
		<polygon class="st1" points="642.02,286.26 641.11,311.57 662.01,311.57 662.01,286.54 		"/>
		<path class="st3" d="M656.99,264.92c0,2.04-1.65,3.7-3.7,3.7c-2.04,0-3.7-1.66-3.7-3.7c0-2.04,1.66-3.7,3.7-3.7
			C655.33,261.23,656.99,262.88,656.99,264.92z"/>
	</g>
	<g>
		<rect x="620.09" y="311.87" class="st26" width="75.59" height="149.62"/>
		<rect x="522.15" y="311.87" class="st25" width="173.53" height="12.73"/>
		<rect x="520.85" y="311.87" class="st26" width="75.59" height="149.62"/>
	</g>
</g>
</svg>
