<?xml version="1.0" encoding="utf-8"?>
<!-- Generator: Adobe Illustrator 24.0.1, SVG Export Plug-In . SVG Version: 6.00 Build 0)  -->
<svg version="1.1" id="Camada_1" xmlns="http://www.w3.org/2000/svg" xmlns:xlink="http://www.w3.org/1999/xlink" x="0px" y="0px"
	 viewBox="0 0 400 300" style="enable-background:new 0 0 400 300;" xml:space="preserve">
<style type="text/css">
	.st0{fill:#F5F5F5;}
	.st1{fill:#E1E1E1;}
	.st2{fill:#ECECEC;}
	.st3{fill:#FAFAFA;}
	.st4{fill:#1A2E35;}
	.st5{fill:#3C3343;}
	.st6{fill:#FF573B;}
	.st7{display:none;opacity:0.3;}
	.st8{display:inline;}
	.st9{fill:#FFFFFF;}
	.st10{opacity:0.3;}
	.st11{fill:#FF6348;}
	.st12{fill:#FF9A6C;}
	.st13{fill:#FFBF9D;}
	.st14{fill:#E6E6E6;}
	.st15{fill:#363637;}
	.st16{opacity:0.6;fill:#E6E6E6;}
	.st17{opacity:0.6;}
	.st18{fill:#C78976;}
	.st19{fill:#BF654E;}
	.st20{fill:#310100;}
	.st21{fill:#FF4F5B;}
	.st22{display:none;}
	.st23{display:inline;fill:#FF4F5B;}
	.st24{fill:#1E1922;}
	.st25{fill:#4B4153;}
	.st26{fill:#332B38;}
</style>
<g>
	<g>
		<g>
			<path class="st0" d="M74.22,53.62C74,39.6,85.17,28.01,99.13,27.78c13.96-0.23,25.49,11,25.72,25.02
				c0.22,14.02-10.95,25.61-24.9,25.83C85.98,78.86,74.45,67.64,74.22,53.62z M111.63,53.01c-0.11-6.7-5.62-12.07-12.3-11.96
				c-6.67,0.11-12.01,5.65-11.91,12.35c0.11,6.7,5.62,12.07,12.3,11.96C106.4,65.26,111.74,59.72,111.63,53.01z"/>
		</g>
		<g>
			<path class="st1" d="M74.22,53.62C74,39.6,85.17,28.01,99.13,27.78l0.21,13.27c-6.67,0.11-12.01,5.65-11.91,12.35
				c0.11,6.7,5.62,12.07,12.3,11.96l0.21,13.27C85.98,78.86,74.45,67.64,74.22,53.62z"/>
		</g>
		<g>
			<path class="st2" d="M96.85,25.74c16.33-0.26,29.35,12.41,29.61,28.81l-15.45,0.25c-0.13-7.84-6.09-12.78-13.9-12.65L96.85,25.74
				z"/>
		</g>
	</g>
	<g>
		<rect x="4.72" y="120.34" class="st1" width="6.55" height="26.18"/>
		<rect x="14.36" y="126.05" class="st1" width="6.55" height="20.47"/>
		<rect x="24.14" y="130.72" class="st1" width="6.55" height="15.8"/>
		<rect x="33.2" y="137.14" class="st1" width="6.55" height="9.38"/>
	</g>
	<g>
		<rect x="83.95" y="134.47" class="st3" width="79.73" height="49.34"/>
		<g>
			<path class="st2" d="M144.43,170.15c-5.53-2.1-11.89,3.7-17.31,1.34c-3.15-1.38-4.58-4.94-6.13-8.02
				c-1.55-3.07-4.21-6.32-7.63-5.96c-3.45,0.36-6.24,4.36-9.58,3.39c-2.1-0.61-3.15-2.94-3.68-5.06c-0.53-2.12-0.89-4.47-2.49-5.96
				c-1.6-1.49-4.94-1.09-5.19,1.08v26.16h62.35C154.77,177.13,146.34,170.88,144.43,170.15z"/>
		</g>
		<g>
			<g>
				<path class="st1" d="M156.44,177.13c0,0.06-15.11,0.1-33.75,0.1c-18.64,0-33.75-0.05-33.75-0.1c0-0.06,15.11-0.1,33.75-0.1
					C141.32,177.03,156.44,177.07,156.44,177.13z"/>
			</g>
		</g>
		<g>
			<g>
				<path class="st1" d="M156.44,165.7c0,0.06-15.11,0.1-33.75,0.1c-18.64,0-33.75-0.05-33.75-0.1c0-0.06,15.11-0.1,33.75-0.1
					C141.32,165.6,156.44,165.65,156.44,165.7z"/>
			</g>
		</g>
		<g>
			<g>
				<path class="st1" d="M156.44,154.28c0,0.06-15.11,0.1-33.75,0.1c-18.64,0-33.75-0.05-33.75-0.1c0-0.06,15.11-0.1,33.75-0.1
					C141.32,154.17,156.44,154.22,156.44,154.28z"/>
			</g>
		</g>
		<g>
			<g>
				<path class="st1" d="M156.44,143.42c0,0.06-15.11,0.1-33.75,0.1c-18.64,0-33.75-0.05-33.75-0.1c0-0.06,15.11-0.1,33.75-0.1
					C141.32,143.32,156.44,143.36,156.44,143.42z"/>
			</g>
		</g>
	</g>
	<g>
		<rect x="251.92" y="41.73" class="st3" width="123.35" height="46.75"/>
		<g>
			<path class="st2" d="M364.87,52.79c0,0.08-20.96,0.15-46.82,0.15c-25.86,0-46.82-0.07-46.82-0.15c0-0.08,20.96-0.15,46.82-0.15
				C343.9,52.63,364.87,52.7,364.87,52.79z"/>
		</g>
		<g>
			<path class="st2" d="M364.87,58.32c0,0.08-20.96,0.15-46.82,0.15c-25.86,0-46.82-0.07-46.82-0.15s20.96-0.15,46.82-0.15
				C343.9,58.17,364.87,58.23,364.87,58.32z"/>
		</g>
		<g>
			<path class="st2" d="M364.87,63.85c0,0.08-20.96,0.15-46.82,0.15c-25.86,0-46.82-0.07-46.82-0.15c0-0.08,20.96-0.15,46.82-0.15
				C343.9,63.7,364.87,63.76,364.87,63.85z"/>
		</g>
		<g>
			<path class="st2" d="M364.87,69.38c0,0.08-20.96,0.15-46.82,0.15c-25.86,0-46.82-0.07-46.82-0.15c0-0.08,20.96-0.15,46.82-0.15
				C343.9,69.23,364.87,69.3,364.87,69.38z"/>
		</g>
		<g>
			<path class="st2" d="M364.87,74.91c0,0.08-20.96,0.15-46.82,0.15c-25.86,0-46.82-0.07-46.82-0.15c0-0.08,20.96-0.15,46.82-0.15
				C343.9,74.76,364.87,74.83,364.87,74.91z"/>
		</g>
		<g>
			<path class="st1" d="M356.71,68.47c0,0-0.06,0.09-0.2,0.24c-0.16,0.14-0.4,0.35-0.79,0.5c-0.75,0.3-2.13,0.31-3.42-0.63
				c-0.62-0.48-1.16-1.19-1.61-2.03c-0.45-0.84-0.8-1.81-1.23-2.82c-0.43-1-0.95-2.08-1.83-2.94c-0.44-0.43-0.98-0.78-1.59-0.97
				c-0.61-0.18-1.29-0.23-1.96-0.11c-1.35,0.23-2.64,0.97-3.74,1.98c-1.12,1.01-2.1,2.25-3.3,3.37c-1.18,1.12-2.73,2.09-4.52,2.22
				c-0.89,0.06-1.82-0.17-2.59-0.69c-0.77-0.52-1.34-1.28-1.8-2.08c-0.93-1.61-1.4-3.48-2.61-4.94c-0.59-0.72-1.35-1.36-2.27-1.57
				c-0.92-0.22-1.91,0.04-2.66,0.64c-0.77,0.59-1.34,1.43-1.75,2.33c-0.41,0.91-0.61,1.91-0.83,2.91c-0.21,1-0.42,2.04-0.82,3.02
				c-0.19,0.5-0.45,0.97-0.76,1.41c-0.33,0.43-0.68,0.84-1.11,1.18c-0.83,0.7-1.82,1.17-2.86,1.43c-1.03,0.26-2.12,0.28-3.15,0.05
				c-1.04-0.21-1.97-0.76-2.78-1.37c-0.82-0.61-1.57-1.29-2.35-1.9c-0.78-0.6-1.6-1.16-2.53-1.38c-0.92-0.25-1.9-0.1-2.71,0.35
				c-0.82,0.45-1.48,1.14-2.02,1.88c-0.54,0.75-0.95,1.58-1.37,2.4c-0.41,0.82-0.83,1.63-1.35,2.37c-0.52,0.74-1.18,1.39-1.94,1.84
				c-0.76,0.45-1.66,0.72-2.54,0.59c-0.88-0.11-1.65-0.61-2.2-1.23c-0.56-0.62-0.95-1.36-1.21-2.11c-0.26-0.75-0.41-1.52-0.55-2.26
				c-0.27-1.48-0.53-2.93-1.3-4.08c-0.71-1.15-1.8-2.06-3.01-2.24c-0.6-0.09-1.2,0-1.73,0.22c-0.53,0.21-0.99,0.55-1.39,0.92
				c-1.58,1.51-2.34,3.34-3.51,4.4c-1.11,1.1-2.31,1.61-3.14,1.58c-0.41,0-0.72-0.09-0.92-0.16c-0.19-0.08-0.29-0.13-0.29-0.13
				c0.01-0.04,0.39,0.24,1.2,0.23c0.81,0.01,1.98-0.51,3.06-1.6c1.14-1.05,1.88-2.88,3.48-4.44c0.41-0.38,0.88-0.73,1.44-0.96
				c0.56-0.23,1.19-0.33,1.83-0.24c1.29,0.19,2.42,1.14,3.16,2.31c0.38,0.59,0.68,1.26,0.87,1.97c0.2,0.71,0.33,1.44,0.48,2.18
				c0.14,0.74,0.3,1.5,0.55,2.23c0.26,0.73,0.64,1.43,1.17,2.02c0.53,0.59,1.24,1.04,2.05,1.14c0.81,0.11,1.64-0.13,2.37-0.57
				c0.73-0.44,1.36-1.05,1.86-1.77c0.51-0.72,0.92-1.52,1.33-2.34c0.41-0.82,0.83-1.66,1.38-2.44c0.56-0.77,1.24-1.48,2.11-1.97
				c0.86-0.48,1.94-0.65,2.92-0.38c0.99,0.24,1.85,0.82,2.64,1.43c0.79,0.62,1.54,1.3,2.34,1.89c0.8,0.6,1.68,1.12,2.67,1.32
				c0.98,0.22,2.02,0.21,3.01-0.05c0.99-0.24,1.95-0.7,2.73-1.37c0.41-0.32,0.74-0.72,1.05-1.12c0.29-0.42,0.54-0.87,0.72-1.35
				c0.38-0.95,0.59-1.97,0.81-2.97c0.22-1.01,0.42-2.02,0.85-2.97c0.42-0.94,1.02-1.81,1.84-2.44c0.81-0.64,1.91-0.94,2.91-0.69
				c1.01,0.23,1.82,0.92,2.43,1.67c1.25,1.53,1.72,3.43,2.63,4.99c0.45,0.78,1,1.5,1.71,1.99c0.72,0.49,1.58,0.7,2.42,0.65
				c1.7-0.12,3.21-1.05,4.37-2.14c1.18-1.1,2.17-2.34,3.31-3.36c1.12-1.03,2.46-1.79,3.86-2.02c0.7-0.12,1.41-0.07,2.05,0.13
				c0.65,0.21,1.21,0.58,1.66,1.03c0.91,0.9,1.43,2,1.85,3.02c0.42,1.02,0.76,1.99,1.2,2.82c0.43,0.83,0.95,1.53,1.55,2
				c1.24,0.93,2.58,0.94,3.33,0.66C356.46,68.86,356.69,68.44,356.71,68.47z"/>
		</g>
		<g>
			<path class="st1" d="M362.64,67.18c0,0-0.11,0.01-0.32,0.02c-0.11,0-0.24-0.03-0.4-0.05c-0.15-0.05-0.34-0.09-0.52-0.19
				c-0.78-0.33-1.75-1.15-2.79-2.35c-0.26-0.3-0.53-0.63-0.8-0.97c-0.28-0.34-0.53-0.74-0.86-1.07c-0.68-0.66-1.65-1.15-2.76-1.26
				c-0.55-0.05-1.13,0.01-1.68,0.21c-0.55,0.2-1.05,0.57-1.5,1.01c-0.9,0.89-1.58,2.07-2.47,3.19c-0.44,0.56-0.95,1.11-1.58,1.53
				c-0.63,0.43-1.37,0.71-2.16,0.81c-1.58,0.19-3.21-0.25-4.75-0.89c-1.55-0.65-3.04-1.53-4.71-2.1c-0.83-0.29-1.7-0.49-2.6-0.52
				c-0.89-0.01-1.8,0.16-2.62,0.57c-1.67,0.8-2.98,2.26-4.56,3.45c-0.78,0.61-1.68,1.11-2.64,1.45c-0.96,0.34-1.99,0.5-3.02,0.52
				c-2.07,0.04-4.18-0.54-6-1.66c-1.82-1.12-3.37-2.7-4.55-4.53c-1.22-1.83-1.89-3.9-2.77-5.8c-0.45-0.94-0.95-1.86-1.61-2.64
				c-0.66-0.77-1.47-1.42-2.37-1.83c-0.9-0.42-1.92-0.55-2.86-0.3c-0.94,0.24-1.75,0.84-2.38,1.56c-0.63,0.73-1.09,1.58-1.42,2.47
				c-0.33,0.89-0.54,1.81-0.73,2.73c-0.2,0.92-0.37,1.83-0.62,2.72c-0.24,0.89-0.59,1.74-1.02,2.53c-0.86,1.58-2.06,2.91-3.44,3.88
				c-1.37,0.99-2.93,1.6-4.48,1.81c-1.56,0.2-3.09-0.02-4.43-0.51c-2.71-0.98-4.63-3.09-5.34-5.24c-0.37-1.08-0.56-2.11-0.82-3.04
				c-0.26-0.92-0.58-1.75-1.07-2.37c-0.98-1.24-2.28-1.67-3.09-1.59c-0.84,0.08-1.16,0.47-1.17,0.43c0,0.03,0.31-0.38,1.17-0.49
				c0.83-0.1,2.17,0.31,3.19,1.57c0.51,0.63,0.84,1.48,1.11,2.4c0.28,0.93,0.47,1.96,0.84,3.02c0.72,2.11,2.6,4.16,5.26,5.1
				c1.32,0.48,2.81,0.69,4.33,0.48c1.51-0.22,3.03-0.82,4.37-1.79c1.34-0.96,2.51-2.26,3.35-3.8c0.87-1.54,1.23-3.34,1.6-5.18
				c0.19-0.92,0.41-1.85,0.74-2.77c0.34-0.91,0.81-1.8,1.47-2.56c0.65-0.76,1.51-1.39,2.52-1.66c1.01-0.27,2.11-0.12,3.05,0.31
				c0.95,0.43,1.79,1.11,2.48,1.91c0.69,0.81,1.2,1.74,1.66,2.7c0.89,1.92,1.55,3.97,2.75,5.76c1.16,1.8,2.68,3.35,4.45,4.44
				c1.77,1.09,3.82,1.66,5.84,1.62c1-0.02,2-0.18,2.93-0.5c0.93-0.33,1.79-0.8,2.56-1.4c1.55-1.17,2.87-2.64,4.61-3.48
				c0.86-0.43,1.82-0.61,2.75-0.59c0.93,0.03,1.84,0.24,2.68,0.54c1.7,0.58,3.19,1.49,4.72,2.12c1.52,0.64,3.11,1.06,4.63,0.89
				c0.75-0.09,1.46-0.35,2.06-0.76c0.6-0.41,1.1-0.94,1.54-1.48c0.88-1.1,1.57-2.28,2.5-3.19c0.46-0.45,0.99-0.83,1.57-1.04
				c0.58-0.2,1.19-0.27,1.76-0.21c1.15,0.11,2.14,0.63,2.84,1.32c0.35,0.35,0.6,0.75,0.87,1.09c0.27,0.35,0.53,0.68,0.78,0.98
				c1.02,1.21,1.97,2.02,2.72,2.37C362.17,67.29,362.64,67.14,362.64,67.18z"/>
		</g>
		<g>
			<path class="st1" d="M264.8,53.06c0,0.08-0.55,0.15-1.24,0.15c-0.68,0-1.24-0.07-1.24-0.15s0.55-0.15,1.24-0.15
				C264.25,52.91,264.8,52.98,264.8,53.06z"/>
		</g>
		<g>
			<path class="st1" d="M264.8,58.32c0,0.08-0.55,0.15-1.24,0.15c-0.68,0-1.24-0.07-1.24-0.15s0.55-0.15,1.24-0.15
				C264.25,58.17,264.8,58.23,264.8,58.32z"/>
		</g>
		<g>
			<path class="st1" d="M264.8,63.57c0,0.08-0.55,0.15-1.24,0.15c-0.68,0-1.24-0.07-1.24-0.15c0-0.08,0.55-0.15,1.24-0.15
				C264.25,63.42,264.8,63.49,264.8,63.57z"/>
		</g>
		<g>
			<path class="st1" d="M264.8,68.83c0,0.08-0.55,0.15-1.24,0.15c-0.68,0-1.24-0.07-1.24-0.15c0-0.08,0.55-0.15,1.24-0.15
				C264.25,68.68,264.8,68.75,264.8,68.83z"/>
		</g>
		<g>
			<path class="st1" d="M264.8,74.09c0,0.08-0.55,0.15-1.24,0.15c-0.68,0-1.24-0.07-1.24-0.15c0-0.08,0.55-0.15,1.24-0.15
				C264.25,73.93,264.8,74,264.8,74.09z"/>
		</g>
		<g>
			<path class="st1" d="M276.18,80.84c0,0.08-1.11,0.15-2.48,0.15c-1.37,0-2.48-0.07-2.48-0.15c0-0.08,1.11-0.15,2.48-0.15
				C275.07,80.69,276.18,80.76,276.18,80.84z"/>
		</g>
		<g>
			<path class="st1" d="M298.02,80.84c0,0.08-1.11,0.15-2.48,0.15c-1.37,0-2.48-0.07-2.48-0.15c0-0.08,1.11-0.15,2.48-0.15
				C296.91,80.69,298.02,80.76,298.02,80.84z"/>
		</g>
		<g>
			<path class="st1" d="M319.85,80.84c0,0.08-1.11,0.15-2.48,0.15c-1.37,0-2.48-0.07-2.48-0.15c0-0.08,1.11-0.15,2.48-0.15
				C318.74,80.69,319.85,80.76,319.85,80.84z"/>
		</g>
		<g>
			<path class="st1" d="M341.68,80.84c0,0.08-1.11,0.15-2.48,0.15c-1.37,0-2.48-0.07-2.48-0.15c0-0.08,1.11-0.15,2.48-0.15
				C340.57,80.69,341.68,80.76,341.68,80.84z"/>
		</g>
		<g>
			<path class="st1" d="M363.51,80.84c0,0.08-1.11,0.15-2.48,0.15c-1.37,0-2.48-0.07-2.48-0.15c0-0.08,1.11-0.15,2.48-0.15
				C362.4,80.69,363.51,80.76,363.51,80.84z"/>
		</g>
	</g>
	<g>
		<path class="st4" d="M388,265.11c0,0.08-84.46,0.15-188.63,0.15c-104.2,0-188.65-0.07-188.65-0.15c0-0.08,84.44-0.15,188.65-0.15
			C303.54,264.96,388,265.03,388,265.11z"/>
	</g>
	<g>
		<g>
			<g>
				<g>
					<rect x="112.88" y="27.36" class="st3" width="153.99" height="101.01"/>
				</g>
			</g>
			<g>
				<g>
					<g>
						<path class="st4" d="M266.87,128.37c0-0.97-0.05-39.4-0.12-101.01l0.12,0.12c-42.26,0.01-95.85,0.02-153.98,0.03h-0.01
							l0.15-0.15c0,35.92-0.01,70.1-0.01,101.01l-0.14-0.14C203.49,128.31,265.64,128.36,266.87,128.37
							c-1.23,0-63.39,0.06-153.99,0.14l-0.14,0v-0.14c0-30.9-0.01-65.09-0.01-101.01v-0.15h0.15h0.01
							c58.13,0.01,111.72,0.02,153.98,0.03h0.12l0,0.12C266.92,88.96,266.87,127.39,266.87,128.37z"/>
					</g>
				</g>
			</g>
		</g>
		<g>
			<g>
				<g>
					<g>
						<path class="st5" d="M159.94,83.14l15.15,0.21C174.97,91.42,168.17,98,159.94,98c-0.03,0-0.06,0-0.09,0L159.94,83.14z"/>
					</g>
				</g>
				<g>
					<g>
						<g>
							<path class="st4" d="M184.99,103.65c0,0.01-0.11,0.02-0.32,0.03c-0.24,0.01-0.55,0.01-0.93,0.02
								c-0.83,0.01-1.98,0.02-3.38,0.04l-0.04,0l-0.03-0.03c-1.35-1.7-3.09-3.9-5-6.3c-1.48-1.88-2.86-3.64-4.03-5.14l0.08,0.04
								c-1.82-0.02-3.35-0.03-4.46-0.04c-0.51-0.01-0.93-0.02-1.25-0.03c-0.29-0.01-0.44-0.02-0.44-0.03c0-0.01,0.15-0.02,0.44-0.03
								c0.32-0.01,0.73-0.02,1.25-0.03c1.11-0.01,2.63-0.02,4.46-0.04l0.05,0l0.03,0.04c1.18,1.49,2.57,3.24,4.05,5.12
								c1.89,2.41,3.61,4.62,4.95,6.33l-0.07-0.03c1.4,0.02,2.55,0.03,3.38,0.04c0.38,0.01,0.69,0.02,0.93,0.02
								C184.88,103.63,184.99,103.64,184.99,103.65z"/>
						</g>
					</g>
				</g>
				<g>
					<g>
						<g>
							<path class="st4" d="M190.42,105.39c0,0.06-2.19,0.12-4.9,0.12c-2.71,0-4.9-0.05-4.9-0.12c0-0.06,2.19-0.12,4.9-0.12
								C188.23,105.28,190.42,105.33,190.42,105.39z"/>
						</g>
					</g>
				</g>
				<g>
					<g>
						<g>
							<path class="st4" d="M190.42,107.21c0,0.06-2.19,0.12-4.9,0.12c-2.71,0-4.9-0.05-4.9-0.12c0-0.06,2.19-0.12,4.9-0.12
								C188.23,107.09,190.42,107.14,190.42,107.21z"/>
						</g>
					</g>
				</g>
			</g>
			<g>
				<g>
					<g>
						<path class="st6" d="M157.55,80.98l-0.21,14.86c-8.23-0.11-14.94-6.79-14.94-14.86c0-8.15,6.84-14.86,15.15-14.86
							c8.31,0,15.15,6.71,15.15,14.86H157.55z"/>
					</g>
				</g>
				<g>
					<g>
						<g>
							<path class="st4" d="M151.63,76.12c0,0.01-0.09,0.03-0.26,0.06c-0.21,0.03-0.45,0.07-0.75,0.12c-0.7,0.1-1.62,0.23-2.72,0.38
								l-0.04,0.01l-0.03-0.03c-1.04-1.01-2.28-2.22-3.63-3.53c-1.74-1.71-3.31-3.27-4.44-4.4c-0.54-0.55-0.98-1-1.33-1.35
								c-0.31-0.32-0.48-0.51-0.46-0.52s0.2,0.15,0.53,0.45c0.36,0.34,0.82,0.77,1.38,1.3c1.16,1.11,2.74,2.64,4.49,4.35
								c1.34,1.32,2.57,2.54,3.6,3.56l-0.08-0.03c1.11-0.12,2.03-0.22,2.73-0.3c0.3-0.03,0.55-0.05,0.76-0.07
								C151.54,76.11,151.63,76.11,151.63,76.12z"/>
						</g>
					</g>
				</g>
				<g>
					<g>
						<g>
							<path class="st4" d="M134.12,66.2c0,0.06-2.19,0.12-4.9,0.12c-2.71,0-4.9-0.05-4.9-0.12c0-0.06,2.19-0.12,4.9-0.12
								C131.93,66.08,134.12,66.14,134.12,66.2z"/>
						</g>
					</g>
				</g>
				<g>
					<g>
						<g>
							<path class="st4" d="M134.12,68.01c0,0.06-2.19,0.12-4.9,0.12c-2.71,0-4.9-0.05-4.9-0.12c0-0.06,2.19-0.12,4.9-0.12
								C131.93,67.9,134.12,67.95,134.12,68.01z"/>
						</g>
					</g>
				</g>
			</g>
		</g>
		<g>
			<g>
				<g>
					<g>
						<g>
							<path class="st5" d="M210.54,51.63l-0.06-9.23c-2.72,0.02-5.49,1.09-7.62,2.97c-2.5,2.21-4.11,5.54-3.67,9.56
								c0.05,0.44,0.12,0.89,0.22,1.34c0,0.01,0,0.02,0.01,0.03l0,0l11.13-2.5V51.63z"/>
						</g>
					</g>
					<g class="st7">
						<g class="st8">
							<path class="st9" d="M210.54,51.63l-0.06-9.23c-2.72,0.02-5.49,1.09-7.62,2.97c-2.5,2.21-4.11,5.54-3.67,9.56
								c0.05,0.44,0.12,0.89,0.22,1.34c0,0.01,0,0.02,0.01,0.03l0,0l11.13-2.5V51.63z"/>
						</g>
					</g>
					<g>
						<g>
							<path class="st6" d="M222,48.78c-1.56-3.25-4.62-5.85-8.98-6.29c-0.12-0.01-0.23-0.02-0.35-0.03
								c-0.07-0.01-0.15-0.01-0.22-0.02c-0.22-0.01-0.44-0.02-0.67-0.02c-0.01,0-0.02,0-0.03,0c0,0,0,0,0,0c-0.01,0-0.02,0-0.03,0v0
								v0l0.06,9.23l0.01,2.17l11.13,2.43l0.01,0v0c0.17-0.78,0.25-1.58,0.25-2.39C223.17,52.14,222.77,50.38,222,48.78z"/>
						</g>
					</g>
					<g class="st10">
						<g>
							<path d="M222,48.78c-1.56-3.25-4.62-5.85-8.98-6.29c-0.12-0.01-0.23-0.02-0.35-0.03c-0.07-0.01-0.15-0.01-0.22-0.02
								c-0.22-0.01-0.44-0.02-0.67-0.02c-0.01,0-0.02,0-0.03,0c0,0,0,0,0,0c-0.01,0-0.02,0-0.03,0v0v0l0.06,9.23l0.01,2.17
								l11.13,2.43l0.01,0v0c0.17-0.78,0.25-1.58,0.25-2.39C223.17,52.14,222.77,50.38,222,48.78z"/>
						</g>
					</g>
				</g>
				<g>
					<g>
						<path class="st11" d="M211.13,54.95l-11.13,2.5c1.14,5.09,5.69,8.9,11.13,8.9c5.46,0,10.03-3.84,11.14-8.98l-11.13-2.43"/>
					</g>
				</g>
			</g>
			<g>
				<g>
					<g>
						<path class="st4" d="M254.44,53.29c0,0.08-5.75,0.15-12.85,0.15c-7.1,0-12.85-0.07-12.85-0.15c0-0.08,5.75-0.15,12.85-0.15
							C248.69,53.14,254.44,53.2,254.44,53.29z"/>
					</g>
				</g>
			</g>
			<g>
				<g>
					<g>
						<path class="st4" d="M254.44,50.36c0,0.08-5.75,0.15-12.85,0.15c-7.1,0-12.85-0.07-12.85-0.15c0-0.08,5.75-0.15,12.85-0.15
							C248.69,50.21,254.44,50.28,254.44,50.36z"/>
					</g>
				</g>
			</g>
			<g>
				<g>
					<g>
						<path class="st4" d="M254.44,47.43c0,0.08-5.75,0.15-12.85,0.15c-7.1,0-12.85-0.07-12.85-0.15c0-0.08,5.75-0.15,12.85-0.15
							C248.69,47.28,254.44,47.35,254.44,47.43z"/>
					</g>
				</g>
			</g>
			<g>
				<g>
					<g>
						<path class="st4" d="M254.44,56.01c0,0.08-5.75,0.15-12.85,0.15c-7.1,0-12.85-0.07-12.85-0.15c0-0.08,5.75-0.15,12.85-0.15
							C248.69,55.86,254.44,55.93,254.44,56.01z"/>
					</g>
				</g>
			</g>
			<g>
				<g>
					<g>
						<path class="st4" d="M246.48,58.98c0,0.08-3.95,0.15-8.82,0.15c-4.87,0-8.82-0.07-8.82-0.15c0-0.08,3.95-0.15,8.82-0.15
							C242.53,58.83,246.48,58.89,246.48,58.98z"/>
					</g>
				</g>
			</g>
		</g>
		<g>
			<g>
				<g>
					<g>
						<rect x="201.8" y="80.18" class="st6" width="2.65" height="29.56"/>
					</g>
				</g>
			</g>
			<g>
				<g>
					<g>
						<rect x="206.91" y="90.21" class="st5" width="2.65" height="19.52"/>
					</g>
				</g>
			</g>
			<g>
				<g>
					<g>
						<rect x="212.02" y="83.85" class="st6" width="2.65" height="26.03"/>
					</g>
				</g>
			</g>
			<g>
				<g>
					<g>
						<rect x="217.13" y="81.32" class="st5" width="2.65" height="28.41"/>
					</g>
				</g>
			</g>
			<g>
				<g>
					<g>
						<rect x="222.24" y="90.82" class="st6" width="2.65" height="18.92"/>
					</g>
				</g>
			</g>
			<g>
				<g>
					<g>
						<rect x="227.35" y="94.53" class="st5" width="2.65" height="15.21"/>
					</g>
				</g>
			</g>
			<g>
				<g>
					<g>
						<rect x="232.46" y="83.21" class="st6" width="2.65" height="26.52"/>
					</g>
				</g>
			</g>
			<g>
				<g>
					<g>
						<rect x="237.57" y="87.99" class="st5" width="2.65" height="21.74"/>
					</g>
				</g>
			</g>
			<g>
				<g>
					<g>
						<rect x="242.68" y="84.17" class="st6" width="2.65" height="25.56"/>
					</g>
				</g>
			</g>
			<g>
				<g>
					<g>
						<rect x="247.79" y="92.32" class="st5" width="2.65" height="17.41"/>
					</g>
				</g>
			</g>
			<g>
				<g>
					<g>
						<rect x="252.89" y="89" class="st6" width="2.65" height="20.73"/>
					</g>
				</g>
			</g>
			<g>
				<g>
					<g>
						<g>
							<path class="st4" d="M256.62,111.79c0,0.06-12.55,0.11-28.04,0.11c-15.49,0-28.04-0.05-28.04-0.11
								c0-0.06,12.55-0.11,28.04-0.11C244.07,111.68,256.62,111.73,256.62,111.79z"/>
						</g>
					</g>
				</g>
			</g>
			<g>
				<g>
					<g>
						<g>
							<path class="st4" d="M205.58,114.12c0,0.06-0.88,0.11-1.96,0.11c-1.08,0-1.96-0.05-1.96-0.11c0-0.06,0.88-0.11,1.96-0.11
								C204.7,114.01,205.58,114.06,205.58,114.12z"/>
						</g>
					</g>
				</g>
			</g>
			<g>
				<g>
					<g>
						<g>
							<path class="st4" d="M212.09,114.24c0,0.06-1.05,0.11-2.35,0.11c-1.3,0-2.35-0.05-2.35-0.11c0-0.06,1.05-0.11,2.35-0.11
								C211.04,114.13,212.09,114.18,212.09,114.24z"/>
						</g>
					</g>
				</g>
			</g>
			<g>
				<g>
					<g>
						<g>
							<path class="st4" d="M217.65,114.24c0,0.06-1.05,0.11-2.35,0.11c-1.3,0-2.35-0.05-2.35-0.11c0-0.06,1.05-0.11,2.35-0.11
								C216.6,114.13,217.65,114.18,217.65,114.24z"/>
						</g>
					</g>
				</g>
			</g>
			<g>
				<g>
					<g>
						<g>
							<path class="st4" d="M223.2,114.24c0,0.06-1.05,0.11-2.35,0.11c-1.3,0-2.35-0.05-2.35-0.11c0-0.06,1.05-0.11,2.35-0.11
								C222.15,114.13,223.2,114.18,223.2,114.24z"/>
						</g>
					</g>
				</g>
			</g>
			<g>
				<g>
					<g>
						<g>
							<path class="st4" d="M228.76,114.24c0,0.06-1.05,0.11-2.35,0.11c-1.3,0-2.35-0.05-2.35-0.11c0-0.06,1.05-0.11,2.35-0.11
								C227.71,114.13,228.76,114.18,228.76,114.24z"/>
						</g>
					</g>
				</g>
			</g>
			<g>
				<g>
					<g>
						<g>
							<path class="st4" d="M234.32,114.24c0,0.06-1.05,0.11-2.35,0.11c-1.3,0-2.35-0.05-2.35-0.11c0-0.06,1.05-0.11,2.35-0.11
								C233.27,114.13,234.32,114.18,234.32,114.24z"/>
						</g>
					</g>
				</g>
			</g>
			<g>
				<g>
					<g>
						<g>
							<path class="st4" d="M239.87,114.24c0,0.06-1.05,0.11-2.35,0.11c-1.3,0-2.35-0.05-2.35-0.11c0-0.06,1.05-0.11,2.35-0.11
								C238.82,114.13,239.87,114.18,239.87,114.24z"/>
						</g>
					</g>
				</g>
			</g>
			<g>
				<g>
					<g>
						<g>
							<path class="st4" d="M245.43,114.24c0,0.06-1.05,0.11-2.35,0.11c-1.3,0-2.35-0.05-2.35-0.11c0-0.06,1.05-0.11,2.35-0.11
								C244.38,114.13,245.43,114.18,245.43,114.24z"/>
						</g>
					</g>
				</g>
			</g>
			<g>
				<g>
					<g>
						<g>
							<path class="st4" d="M250.99,114.24c0,0.06-1.05,0.11-2.35,0.11c-1.3,0-2.35-0.05-2.35-0.11c0-0.06,1.05-0.11,2.35-0.11
								C249.94,114.13,250.99,114.18,250.99,114.24z"/>
						</g>
					</g>
				</g>
			</g>
			<g>
				<g>
					<g>
						<g>
							<path class="st4" d="M256.54,114.24c0,0.06-1.05,0.11-2.35,0.11c-1.3,0-2.35-0.05-2.35-0.11c0-0.06,1.05-0.11,2.35-0.11
								C255.49,114.13,256.54,114.18,256.54,114.24z"/>
						</g>
					</g>
				</g>
			</g>
			<g class="st10">
				<g>
					<g>
						<rect x="206.91" y="90.21" class="st9" width="2.65" height="19.52"/>
					</g>
				</g>
			</g>
			<g class="st10">
				<g>
					<g>
						<rect x="217.13" y="81.32" class="st9" width="2.65" height="28.41"/>
					</g>
				</g>
			</g>
			<g class="st10">
				<g>
					<g>
						<rect x="227.35" y="94.53" class="st9" width="2.65" height="15.21"/>
					</g>
				</g>
			</g>
			<g class="st10">
				<g>
					<g>
						<rect x="237.57" y="87.99" class="st9" width="2.65" height="21.74"/>
					</g>
				</g>
			</g>
			<g class="st10">
				<g>
					<g>
						<rect x="247.79" y="92.32" class="st9" width="2.65" height="17.41"/>
					</g>
				</g>
			</g>
		</g>
		<g>
			<g>
				<circle class="st11" cx="129.04" cy="46.34" r="2.55"/>
			</g>
		</g>
		<g>
			<g>
				<g>
					<path class="st11" d="M175.39,44.33c0,0.08-8.59,0.15-19.18,0.15c-10.6,0-19.18-0.07-19.18-0.15c0-0.08,8.59-0.15,19.18-0.15
						C166.8,44.18,175.39,44.25,175.39,44.33z"/>
				</g>
			</g>
		</g>
		<g>
			<g>
				<g>
					<path class="st11" d="M152.42,47.41c0,0.02-0.21,0.04-0.59,0.06c-0.38,0.02-0.94,0.03-1.62,0.05
						c-1.37,0.03-3.26,0.04-5.35,0.04c-2.09,0-3.98-0.02-5.35-0.04c-0.68-0.01-1.24-0.03-1.62-0.05c-0.38-0.02-0.59-0.04-0.59-0.06
						c0-0.02,0.21-0.04,0.59-0.06c0.38-0.02,0.94-0.03,1.62-0.05c1.37-0.03,3.26-0.04,5.35-0.04c2.09,0,3.98,0.02,5.35,0.04
						c0.68,0.01,1.24,0.03,1.62,0.05C152.21,47.37,152.42,47.39,152.42,47.41z"/>
				</g>
			</g>
		</g>
	</g>
	<g>
		<g>
			<g>
				<path class="st12" d="M250.61,146.56c-0.07,0.02-0.27-1.32,0.13-2.92c0.38-1.6,1.18-2.69,1.24-2.65
					c0.08,0.05-0.57,1.18-0.94,2.72C250.64,145.25,250.7,146.56,250.61,146.56z"/>
			</g>
			<g>
				<path class="st13" d="M252,140.87l-16.06-18.11c-0.58-0.47-1.23-1.12-1.3-1.79c-0.06-0.57-0.01-1.15,0.12-1.71
					c0.17-0.68,0.42-1.58,0.71-2.03c0.36-0.56-0.13-1.25-0.69-1.03c-0.56,0.22-1.93,1.69-2.25,3.8c0,0-0.25,0.86-1.2,0.52
					c-1.38-0.48-6.08-2.4-6.92-2.61c-0.75-0.19-1.64-0.16-1.15,0.4c0.36,0.41,2.3,1.64,3.32,2.27c-1.24-0.75-3.93-2.3-4.23-1.79
					c-0.17,0.3,0.16,0.86,1.26,1.65c-0.8-0.43-1.54-0.79-1.79-0.76c-1.44,0.14,2.98,2.97,2.98,2.97c-3.12-1.95-2.97-2.08-3.31-1.72
					c-0.26,0.27,0.28,0.91,1.81,2.2c1.24,1.05,7.36,6.44,7.36,6.44L243,149.86c2.02,2.85,5.21,4.65,8.7,4.88l25.2-0.54l2.82-14.15
					L252,140.87z"/>
				<g>
					<g>
						<g>
							<path class="st12" d="M226.67,123.87c-0.05,0.08-1.03-0.48-2.19-1.25c-1.16-0.77-2.06-1.46-2.01-1.53
								c0.05-0.07,1.04,0.49,2.19,1.25C225.81,123.1,226.71,123.79,226.67,123.87z"/>
						</g>
					</g>
				</g>
				<g>
					<g>
						<g>
							<path class="st12" d="M227.54,122.75c-0.05,0.08-1.13-0.46-2.41-1.2c-1.28-0.74-2.29-1.41-2.24-1.49
								c0.05-0.08,1.12,0.46,2.41,1.2C226.58,122,227.59,122.67,227.54,122.75z"/>
						</g>
					</g>
				</g>
				<g>
					<g>
						<g>
							<path class="st12" d="M228.45,121.59c-0.05,0.08-1.07-0.41-2.3-1.1c-1.22-0.69-2.18-1.31-2.14-1.39
								c0.05-0.08,1.07,0.41,2.3,1.1C227.53,120.88,228.49,121.5,228.45,121.59z"/>
						</g>
					</g>
				</g>
			</g>
		</g>
		<g>
			<g>
				<g>
					<path class="st6" d="M212.77,246.94l-3.24,9.93c0,0-11.18,0.05-11.96,1.82l19.03,6.97l5.68-15.27L212.77,246.94z"/>
					<g>
						<path class="st14" d="M215.72,258.2c0.33,0.24,0.43,0.74,0.21,1.08c-0.22,0.34-0.74,0.45-1.07,0.22
							c-0.34-0.23-0.48-0.83-0.22-1.15c0.26-0.31,0.87-0.41,1.14-0.11"/>
					</g>
					<path class="st14" d="M216.6,265.66l0.56-1.52L198.68,258c0,0-0.98,0.06-1.1,0.69L216.6,265.66z"/>
					<g>
						<path class="st5" d="M209.26,256.66c-0.03,0.09,0.42,0.31,0.77,0.77c0.36,0.46,0.45,0.95,0.55,0.94
							c0.09,0.01,0.16-0.59-0.27-1.15C209.87,256.66,209.27,256.57,209.26,256.66z"/>
					</g>
					<g>
						<path class="st5" d="M206.96,256.76c-0.05,0.08,0.29,0.39,0.46,0.9c0.19,0.5,0.11,0.96,0.2,0.99c0.08,0.05,0.35-0.47,0.12-1.1
							C207.53,256.91,206.99,256.67,206.96,256.76z"/>
					</g>
					<g>
						<path class="st5" d="M204.95,258.73c0.08,0.05,0.38-0.37,0.32-0.96c-0.05-0.6-0.41-0.96-0.48-0.89
							c-0.08,0.06,0.1,0.43,0.14,0.92C204.98,258.29,204.86,258.69,204.95,258.73z"/>
					</g>
					<g>
						<path class="st5" d="M210.25,254.48c0.01,0.1,0.48,0.13,0.99,0.35c0.52,0.22,0.86,0.54,0.94,0.48c0.08-0.05-0.19-0.54-0.8-0.8
							C210.77,254.26,210.23,254.39,210.25,254.48z"/>
					</g>
				</g>
				<g>
					<path class="st5" d="M210.94,252.49c-0.02,0.04,0.33,0.23,0.95,0.34c0.31,0.06,0.69,0.09,1.11,0.06
						c0.21-0.01,0.43-0.04,0.65-0.09c0.11-0.02,0.23-0.04,0.37-0.12c0.14-0.06,0.29-0.28,0.22-0.48c-0.04-0.18-0.19-0.31-0.33-0.36
						c-0.14-0.06-0.26-0.07-0.38-0.08c-0.23-0.03-0.46-0.03-0.67-0.01c-0.42,0.03-0.8,0.13-1.09,0.26
						c-0.59,0.25-0.87,0.54-0.84,0.57c0.03,0.05,0.35-0.17,0.93-0.34c0.29-0.09,0.64-0.15,1.03-0.17c0.19-0.01,0.4,0,0.61,0.03
						c0.22,0.02,0.39,0.08,0.41,0.19c0.01,0.04,0,0.06-0.06,0.1c-0.06,0.04-0.16,0.06-0.27,0.09c-0.21,0.05-0.41,0.08-0.61,0.1
						c-0.39,0.04-0.75,0.04-1.05,0.02C211.32,252.54,210.95,252.44,210.94,252.49z"/>
				</g>
				<g>
					<path class="st5" d="M211.01,252.67c0.03,0.03,0.33-0.24,0.59-0.83c0.13-0.29,0.23-0.67,0.25-1.09c0.01-0.21,0-0.44-0.03-0.67
						c-0.04-0.23-0.09-0.53-0.43-0.7c-0.19-0.08-0.4,0.01-0.5,0.12c-0.11,0.11-0.16,0.21-0.23,0.31c-0.12,0.21-0.19,0.43-0.24,0.64
						c-0.09,0.43-0.05,0.82,0.05,1.13c0.19,0.63,0.54,0.88,0.56,0.85c0.05-0.04-0.21-0.33-0.32-0.91c-0.05-0.28-0.07-0.64,0.03-1.01
						c0.05-0.18,0.12-0.37,0.22-0.54c0.1-0.19,0.24-0.33,0.31-0.28c0.1,0.03,0.2,0.24,0.22,0.43c0.04,0.21,0.05,0.41,0.05,0.6
						c-0.01,0.39-0.08,0.74-0.16,1.02C211.19,252.32,210.96,252.63,211.01,252.67z"/>
				</g>
			</g>
		</g>
		<g>
			<path class="st5" d="M264.97,180.27c-3.97-1.3-19.71-6.13-31.15-8.95c-4.37-1.08-9.26-0.02-12.99,2.5h0
				c-4.85,3.29-7.27,9.16-6.13,14.91l4.69,29.01l16.19-1.32l-2.51-27.93l27.66,8.44l24.65-7.13l-0.07-1.19L264.97,180.27"/>
			<path class="st5" d="M271.01,185.37l-34.82,7.55c-5.15,1.12-9.39,4.77-11.25,9.7l-17.1,47.18l14.17,4.37l19.26-43.2l28.04-3.45
				c7.31-0.9,14.04-4.4,18.97-9.87l4.9-5.44L271.01,185.37z"/>
			<g>
				<path class="st14" d="M264.69,186.63c0,0.01-0.05,0.02-0.15,0.05c-0.11,0.03-0.26,0.06-0.43,0.11
					c-0.41,0.09-0.96,0.22-1.67,0.39c-1.48,0.33-3.58,0.8-6.16,1.37c-2.61,0.57-5.71,1.24-9.15,1.99c-1.72,0.37-3.53,0.76-5.4,1.17
					c-1.87,0.42-3.82,0.79-5.78,1.3c-1.95,0.52-3.83,1.21-5.4,2.27c-1.58,1.06-2.82,2.45-3.8,3.89c-1.95,2.92-2.92,5.98-3.76,8.5
					c-0.81,2.54-1.51,4.58-2.1,5.96c-0.29,0.69-0.54,1.21-0.72,1.56c-0.09,0.16-0.15,0.29-0.21,0.39c-0.05,0.09-0.08,0.13-0.08,0.13
					c0,0,0.01-0.05,0.05-0.14c0.05-0.11,0.11-0.24,0.18-0.41c0.16-0.36,0.39-0.89,0.67-1.58c0.56-1.38,1.22-3.43,2.01-5.98
					c0.81-2.53,1.77-5.61,3.73-8.59c0.98-1.47,2.25-2.9,3.86-3.98c1.61-1.09,3.52-1.79,5.49-2.31c1.98-0.52,3.93-0.89,5.8-1.3
					c1.87-0.4,3.68-0.78,5.41-1.15c3.44-0.73,6.54-1.38,9.16-1.93c2.59-0.54,4.7-0.97,6.18-1.28c0.71-0.14,1.28-0.25,1.68-0.33
					c0.18-0.03,0.32-0.06,0.44-0.08C264.63,186.63,264.69,186.62,264.69,186.63z"/>
			</g>
		</g>
		<g>
			<path class="st12" d="M293.27,174.8c0.03,0.08-1.16,0.59-2.67,1.15c-1.5,0.56-2.74,0.95-2.77,0.87
				c-0.03-0.08,1.16-0.59,2.67-1.15C292,175.11,293.25,174.73,293.27,174.8z"/>
		</g>
		<g>
			<path class="st6" d="M280.82,138.06l-7.96,31.87l-8.65,10.1l29.98,12.4l10.78-23.68l8.62-26.27c-2.39-4.42-6.99-5.48-8.52-5.66
				l-12.37-0.87L280.82,138.06z"/>
			<polygon class="st6" points="280.82,138.06 259.63,140.11 261.09,156.73 277.19,155.4 279.98,141.94 			"/>
			<g>
				<path class="st4" d="M279.08,144.7c0.02,0-0.05,0.36-0.19,1.01c-0.16,0.69-0.37,1.61-0.62,2.71c-0.54,2.29-1.3,5.45-2.15,8.93
					c-0.86,3.48-1.65,6.63-2.24,8.91c-0.29,1.1-0.53,2.01-0.71,2.69c-0.17,0.63-0.28,0.98-0.3,0.98c-0.02-0.01,0.05-0.36,0.19-1.01
					c0.16-0.69,0.37-1.61,0.62-2.71c0.54-2.29,1.3-5.45,2.15-8.93c0.86-3.48,1.65-6.63,2.24-8.91c0.29-1.1,0.53-2.01,0.71-2.69
					C278.95,145.04,279.06,144.69,279.08,144.7z"/>
			</g>
			<g>
				<path class="st4" d="M282.69,171.97c-0.03,0.04-0.47-0.34-1.29-0.77c-0.81-0.43-2.02-0.86-3.42-1.07
					c-1.39-0.21-2.68-0.2-3.61-0.19c-0.93,0.02-1.51,0.02-1.51-0.03c0-0.04,0.57-0.12,1.5-0.19c0.93-0.07,2.24-0.11,3.66,0.1
					c1.43,0.21,2.67,0.69,3.48,1.18C282.32,171.51,282.72,171.95,282.69,171.97z"/>
			</g>
			<g>
				<path class="st4" d="M286.41,139.55c0.02,0,0.05,0.21,0.18,0.57c0.14,0.35,0.38,0.88,0.85,1.35c0.49,0.44,1.34,0.68,2.2,0.49
					c0.43-0.08,0.86-0.31,1.32-0.51c0.46-0.21,0.93-0.43,1.41-0.66c1.88-0.92,3.58-1.75,4.9-2.39c0.58-0.28,1.08-0.52,1.49-0.71
					c0.36-0.16,0.56-0.25,0.57-0.23c0.01,0.02-0.17,0.14-0.51,0.33c-0.34,0.2-0.83,0.47-1.45,0.8c-1.23,0.66-2.94,1.55-4.87,2.47
					c-0.48,0.23-0.95,0.45-1.41,0.65c-0.46,0.19-0.9,0.42-1.38,0.51c-0.95,0.19-1.87-0.09-2.4-0.6c-0.5-0.54-0.71-1.09-0.82-1.47
					C286.38,139.77,286.39,139.55,286.41,139.55z"/>
			</g>
			<g class="st10">
				<path d="M272.87,169.93c3.06-0.72,6.42-0.89,9.53-0.46c0.72,0.1,1.48,0.25,2.02,0.74c0.54,0.49,0.75,1.42,0.24,1.94
					c-0.36,0.37-0.95,0.42-1.45,0.28s-1.1-0.91-1.54-1.18c-2.45-1.54-5.53-1.62-8.61-1.31"/>
			</g>
			<g class="st10">
				<path d="M298.69,144.44c-2.52,7.15,2.56,15.17,7.33,21.07l1.22-3.65C307.24,161.86,301.21,137.28,298.69,144.44z"/>
			</g>
			<g>
				<path class="st14" d="M305.4,165.89c-0.03,0.02-0.22-0.45-0.84-1.07c-0.62-0.61-1.76-1.31-3.32-1.5
					c-1.56-0.19-3.44,0.21-5.38,0.98c-1.95,0.73-4.05,1.83-6.51,2.12c-2.45,0.29-4.82-0.23-6.72-1.19
					c-1.91-0.95-3.31-2.35-4.23-3.65c-0.93-1.31-1.4-2.54-1.65-3.39c-0.13-0.43-0.2-0.77-0.24-1c-0.04-0.23-0.06-0.35-0.05-0.36
					c0.03-0.01,0.12,0.48,0.4,1.32c0.28,0.83,0.78,2.03,1.72,3.3c0.93,1.26,2.31,2.61,4.18,3.52c1.85,0.92,4.17,1.42,6.56,1.14
					c2.39-0.28,4.47-1.36,6.44-2.08c1.96-0.76,3.89-1.16,5.5-0.93c1.61,0.22,2.77,0.98,3.38,1.63c0.31,0.33,0.5,0.63,0.61,0.83
					C305.36,165.77,305.41,165.89,305.4,165.89z"/>
			</g>
			<g>
				<path class="st14" d="M278.1,148.78c-0.01,0,0.01-0.09,0.06-0.25c0.06-0.16,0.17-0.39,0.39-0.65c0.42-0.5,1.31-1.05,2.51-1.01
					c1.2,0.03,2.49,0.7,3.74,1.56c1.27,0.84,2.6,1.87,4.05,2.83c1.45,0.96,2.94,1.75,4.39,2.12c1.46,0.38,2.84,0.36,3.95,0.13
					c1.11-0.23,1.93-0.69,2.43-1.08c0.12-0.1,0.23-0.18,0.33-0.27c0.08-0.08,0.16-0.15,0.22-0.22c0.12-0.12,0.19-0.17,0.2-0.17
					c0.01,0.01-0.04,0.08-0.15,0.21c-0.06,0.07-0.13,0.15-0.21,0.24c-0.1,0.09-0.2,0.19-0.32,0.29c-0.49,0.43-1.32,0.94-2.46,1.2
					c-1.13,0.27-2.56,0.3-4.06-0.07c-1.51-0.36-3.02-1.16-4.49-2.13c-1.47-0.97-2.79-2.01-4.04-2.86c-1.24-0.86-2.47-1.51-3.6-1.57
					c-1.12-0.06-2,0.43-2.42,0.88C278.2,148.42,278.14,148.79,278.1,148.78z"/>
			</g>
			<g>
				<path class="st14" d="M268.35,155.89c-0.01,0.01-0.21-0.14-0.5-0.5c-0.28-0.36-0.65-0.93-0.88-1.72
					c-0.23-0.79-0.33-1.8-0.03-2.87c0.29-1.07,0.99-2.05,1.5-3.15c0.52-1.09,0.65-2.27,0.55-3.31c-0.11-1.04-0.43-1.95-0.8-2.65
					c-0.77-1.41-1.66-1.97-1.6-2.02c0.01-0.01,0.06,0.02,0.16,0.09c0.09,0.07,0.25,0.16,0.41,0.32c0.35,0.29,0.8,0.79,1.22,1.5
					c0.42,0.71,0.77,1.64,0.9,2.73c0.12,1.08-0.01,2.32-0.55,3.47c-0.53,1.13-1.23,2.09-1.51,3.1c-0.29,1-0.23,1.97-0.03,2.74
					C267.59,155.16,268.41,155.85,268.35,155.89z"/>
			</g>
			<g>
				<path class="st14" d="M279.57,138.41c0.04,0.02-0.27,0.7-0.9,1.74c-0.61,1.04-1.58,2.42-2.21,4.12
					c-0.31,0.85-0.48,1.71-0.47,2.49c0.01,0.78,0.18,1.47,0.41,2.02c0.47,1.1,1.14,1.53,1.09,1.57c-0.01,0.01-0.18-0.08-0.43-0.31
					c-0.25-0.23-0.58-0.62-0.85-1.17c-0.27-0.56-0.47-1.28-0.49-2.1c-0.03-0.82,0.15-1.72,0.46-2.6c0.66-1.76,1.67-3.12,2.32-4.13
					C279.16,139.03,279.53,138.39,279.57,138.41z"/>
			</g>
			<g>
				<path class="st14" d="M282.17,180.56c-0.05,0.03-0.51-0.69-1.46-1.65c-0.47-0.49-1.09-1-1.82-1.52c-0.74-0.5-1.6-0.98-2.55-1.38
					c-0.96-0.38-1.91-0.63-2.79-0.79c-0.88-0.14-1.69-0.2-2.37-0.18c-1.36,0.02-2.18,0.22-2.2,0.16c0-0.02,0.2-0.08,0.57-0.16
					c0.19-0.05,0.42-0.1,0.69-0.12c0.27-0.03,0.58-0.09,0.93-0.09c0.69-0.05,1.51-0.01,2.42,0.12c0.9,0.15,1.88,0.4,2.86,0.79
					c0.98,0.4,1.85,0.91,2.6,1.43c0.74,0.54,1.36,1.09,1.82,1.6c0.25,0.24,0.43,0.5,0.6,0.71c0.18,0.21,0.31,0.41,0.41,0.57
					C282.08,180.37,282.18,180.55,282.17,180.56z"/>
			</g>
		</g>
		<g>
			<polygon class="st15" points="271.95,213.65 271.37,258.3 252.99,265.32 295.15,265.11 276.54,258.03 276.37,213.65 			"/>
			<path class="st15" d="M258.56,210.1c5.28,2.06,10.74,3.93,16.4,4.12c5.66,0.19,11.62-1.5,15.48-5.65
				c3.09-3.32,4.53-7.8,5.89-12.13c0.98-3.12,1.96-6.24,2.93-9.36c0.81-2.59,2.03-5.62,0.55-7.01c-2.08-1.96-7.63-2.71-9.72-0.77
				c-3.12,2.9-3.26,4.1-4.67,6.58c-3.25,5.71-6.07,10.92-12.19,13.32c-2.95,1.16-6.23,1.25-9.19,2.37
				C261.08,202.68,258.07,206.97,258.56,210.1"/>
		</g>
		<g>
			<g>
				<g>
					<g>
						<g>
							<g>
								<g>
									<g>
										<path class="st13" d="M299.33,137.46l-9.18,4.53c-1.77,0.8-3.74-0.6-3.58-2.53l0.64-7.45c0,0-4.98-0.74-5.08-5.71
											c-0.1-4.97,0.68-16.39,0.68-16.39l0,0c5.74-2.52,12.38-1.73,17.38,2.05l0.74,0.56L299.33,137.46z"/>
									</g>
								</g>
							</g>
							<g>
								<g>
									<g>
										<path class="st12" d="M287.2,131.94c0,0,3.14,0.23,6.47-1.89c0,0-1.51,3.59-6.47,3.18L287.2,131.94z"/>
									</g>
								</g>
							</g>
						</g>
					</g>
				</g>
				<g>
					<g>
						<g>
							<g>
								<path class="st13" d="M300.35,117.68c0.08-0.04,3.41-1.04,3.32,2.36c-0.08,3.4-3.48,2.61-3.48,2.52
									C300.19,122.46,300.35,117.68,300.35,117.68z"/>
							</g>
						</g>
					</g>
					<g>
						<g>
							<g>
								<g>
									<path class="st12" d="M301.26,121.3c0.02-0.01,0.06,0.04,0.16,0.09c0.1,0.05,0.26,0.08,0.44,0.02
										c0.36-0.12,0.68-0.69,0.71-1.3c0.02-0.31-0.04-0.61-0.15-0.85c-0.1-0.25-0.25-0.43-0.43-0.47
										c-0.18-0.05-0.31,0.06-0.35,0.15c-0.05,0.09-0.03,0.16-0.05,0.17c-0.01,0.01-0.07-0.06-0.04-0.2
										c0.02-0.07,0.06-0.15,0.14-0.21c0.08-0.06,0.2-0.1,0.33-0.08c0.26,0.02,0.49,0.27,0.61,0.54c0.13,0.27,0.2,0.61,0.18,0.95
										c-0.04,0.68-0.4,1.32-0.9,1.45c-0.24,0.06-0.44-0.02-0.54-0.1C301.27,121.38,301.25,121.31,301.26,121.3z"/>
								</g>
							</g>
						</g>
					</g>
				</g>
				<g>
					<g>
						<g>
							<g>
								<g>
									<g>
										<g>
											<g>
												<g>
													<path class="st4" d="M283.96,117.48c-0.01,0.37,0.3,0.69,0.69,0.71c0.39,0.02,0.72-0.27,0.73-0.65
														c0.01-0.37-0.3-0.69-0.69-0.71C284.3,116.82,283.97,117.11,283.96,117.48z"/>
												</g>
											</g>
										</g>
										<g>
											<g>
												<g>
													<g>
														<path class="st4" d="M283.8,116.9c0.09,0.09,0.62-0.31,1.39-0.31c0.76-0.01,1.33,0.37,1.41,0.28
															c0.04-0.04-0.05-0.21-0.3-0.38c-0.24-0.18-0.65-0.34-1.13-0.34c-0.48,0.01-0.87,0.18-1.1,0.37
															C283.84,116.69,283.76,116.86,283.8,116.9z"/>
													</g>
												</g>
											</g>
										</g>
									</g>
									<g>
										<g>
											<g>
												<g>
													<path class="st4" d="M291.44,117.57c-0.01,0.37,0.3,0.69,0.69,0.71c0.39,0.02,0.72-0.27,0.73-0.65
														c0.01-0.37-0.3-0.69-0.69-0.71C291.78,116.9,291.46,117.19,291.44,117.57z"/>
												</g>
											</g>
										</g>
										<g>
											<g>
												<g>
													<g>
														<path class="st4" d="M291.31,116.99c0.09,0.09,0.62-0.31,1.39-0.31c0.76-0.01,1.33,0.37,1.41,0.28
															c0.04-0.04-0.05-0.21-0.3-0.38c-0.24-0.18-0.65-0.34-1.13-0.34c-0.48,0.01-0.87,0.18-1.1,0.37
															C291.35,116.78,291.27,116.95,291.31,116.99z"/>
													</g>
												</g>
											</g>
										</g>
									</g>
									<g>
										<g>
											<g>
												<g>
													<path class="st4" d="M288.58,122.67c0-0.04-0.47-0.12-1.24-0.21c-0.2-0.02-0.38-0.06-0.41-0.19
														c-0.05-0.14,0.03-0.35,0.13-0.58c0.18-0.47,0.37-0.97,0.57-1.49c0.79-2.12,1.35-3.86,1.27-3.9
														c-0.09-0.03-0.79,1.66-1.58,3.78c-0.19,0.52-0.37,1.02-0.54,1.5c-0.07,0.22-0.2,0.47-0.1,0.77
														c0.05,0.15,0.2,0.25,0.32,0.28c0.13,0.04,0.24,0.04,0.33,0.04C288.1,122.72,288.58,122.72,288.58,122.67z"/>
												</g>
											</g>
										</g>
									</g>
									<g>
										<g>
											<g>
												<g>
													<path class="st4" d="M290.83,123.18c-0.12-0.01-0.12,0.82-0.82,1.42c-0.7,0.6-1.59,0.51-1.59,0.63
														c-0.01,0.05,0.2,0.16,0.57,0.17c0.37,0.01,0.9-0.11,1.33-0.48c0.43-0.36,0.61-0.85,0.64-1.19
														C290.98,123.38,290.89,123.18,290.83,123.18z"/>
												</g>
											</g>
										</g>
									</g>
								</g>
							</g>
						</g>
						<g>
							<g>
								<g>
									<path class="st4" d="M291.09,113.99c0.08,0.21,0.84,0.1,1.74,0.2c0.9,0.08,1.62,0.34,1.74,0.15
										c0.05-0.09-0.08-0.28-0.37-0.48c-0.29-0.2-0.75-0.39-1.29-0.44c-0.54-0.05-1.03,0.03-1.36,0.17
										C291.22,113.73,291.06,113.9,291.09,113.99z"/>
								</g>
							</g>
						</g>
						<g>
							<g>
								<g>
									<path class="st4" d="M284.07,114.69c0.14,0.17,0.66-0.01,1.29-0.02c0.63-0.04,1.17,0.11,1.29-0.07
										c0.05-0.09-0.03-0.26-0.27-0.42c-0.23-0.16-0.62-0.29-1.05-0.28c-0.43,0.02-0.81,0.18-1.03,0.36
										C284.08,114.42,284.01,114.6,284.07,114.69z"/>
								</g>
							</g>
						</g>
					</g>
				</g>
			</g>
			<g>
				<path class="st4" d="M280.36,106.79c-0.06-0.62,0.17-1.28,0.67-1.64c0.5-0.37,1.28-0.35,1.69,0.11
					c-0.24-0.83,0.43-1.79,1.29-1.85c0.81-0.06,1.51,0.55,2.29,0.76c0.77,0.2,1.59,0.02,2.32-0.29c0.73-0.3,1.42-0.72,2.16-0.99
					c1.55-0.58,3.33-0.52,4.83,0.16c1.51,0.68,2.73,1.97,3.32,3.51c1.08-0.35,2.32,0.19,3,1.11c0.68,0.92,0.86,2.12,0.73,3.26
					c-0.08,0.77-0.3,1.51-0.55,2.23c0,0.06,0.01,0.13,0.01,0.19c-0.03,2.73-0.32,5.95-1.48,5.97c-2.03,0.05-1.58-3.79-1.58-3.79
					c-2.5-0.95-1.6-4.69-2.23-5.25c-0.63-0.56-1.94-1.87-7.15,0.84c-2.02,1.05-4.72,1.04-6.19,0.72c-0.04-0.01-0.09-0.02-0.13-0.03
					c-0.01,0-0.02,0-0.03-0.01c-0.02,0-0.03-0.01-0.04-0.02c-0.47-0.12-0.92-0.3-1.34-0.56c-0.48-0.3-0.91-0.7-1.11-1.22
					c-0.2-0.52-0.13-1.17,0.27-1.56C280.73,107.98,280.42,107.41,280.36,106.79z"/>
			</g>
		</g>
		<g>
			<path class="st13" d="M301.62,151.02l8.33,17.66l-13.23,5.69l-2.62-0.81c-2.14-0.66-4.46-0.16-6.14,1.32l-4.12,3.64h38.21v0
				c1.75-4.98,1.77-10.4,0.07-15.39l-6.56-16.58c-1.86-4.5-6.69-8.17-11.13-6.18l0,0C300.11,142.3,299.73,146.68,301.62,151.02z"/>
			<g>
				<path class="st6" d="M300.92,151.96c2.47,4.19,6.32,10.67,6.32,10.67l14.27-5.9c0,0-6.16-11.64-8.14-14.61
					c-0.8-1.2-2.58-3.67-7.81-4.3c-0.12-0.01-0.79,0.17-1.62,0.42c-2.46,0.73-4.31,2.77-4.81,5.28l-0.12,0.63
					C298.71,146.71,299.61,149.74,300.92,151.96z"/>
				<g>
					<path class="st4" d="M307.24,162.63c-0.02,0.01-0.23-0.29-0.59-0.84c-0.38-0.6-0.89-1.39-1.51-2.35
						c-0.64-1.01-1.38-2.2-2.21-3.51c-0.82-1.33-1.76-2.76-2.61-4.37c-0.42-0.8-0.77-1.62-1.02-2.45c-0.25-0.83-0.36-1.66-0.43-2.44
						c-0.12-1.57-0.04-3,0.28-4.16c0.29-1.17,0.83-2.01,1.29-2.49c0.12-0.11,0.22-0.22,0.32-0.31c0.1-0.07,0.18-0.13,0.26-0.19
						c0.14-0.1,0.22-0.15,0.23-0.14c0.01,0.01-0.06,0.07-0.19,0.19c-0.07,0.06-0.15,0.13-0.24,0.21c-0.09,0.1-0.19,0.21-0.29,0.32
						c-0.42,0.49-0.92,1.32-1.17,2.46c-0.28,1.13-0.34,2.54-0.21,4.08c0.07,0.77,0.18,1.58,0.43,2.38c0.24,0.8,0.59,1.6,1,2.4
						c0.83,1.58,1.77,3.03,2.58,4.36c0.8,1.32,1.53,2.52,2.15,3.55c0.58,0.98,1.07,1.79,1.43,2.4
						C307.08,162.3,307.26,162.62,307.24,162.63z"/>
				</g>
				<g>
					<path class="st14" d="M316.46,147.42c-0.02,0.02-0.21-0.16-0.61-0.4c-0.4-0.24-1.03-0.49-1.86-0.56
						c-0.82-0.08-1.82,0.03-2.86,0.37c-1.04,0.34-2.12,0.93-3.25,1.53c-1.14,0.6-2.26,1.14-3.38,1.38
						c-1.11,0.24-2.16,0.18-2.99-0.06c-0.83-0.24-1.42-0.65-1.75-1.01c-0.16-0.18-0.28-0.32-0.34-0.43
						c-0.07-0.11-0.1-0.16-0.09-0.17c0.03-0.02,0.17,0.21,0.51,0.52c0.34,0.31,0.92,0.68,1.72,0.88c0.8,0.21,1.81,0.23,2.87-0.01
						c1.07-0.24,2.17-0.78,3.3-1.38c1.13-0.6,2.22-1.19,3.31-1.53c1.08-0.34,2.12-0.43,2.97-0.32c0.85,0.11,1.51,0.4,1.9,0.68
						c0.19,0.14,0.34,0.26,0.42,0.35C316.43,147.37,316.47,147.41,316.46,147.42z"/>
				</g>
				<g>
					<path class="st14" d="M313.9,159.82c-0.04,0.04-0.4-0.4-1.11-0.94c-0.35-0.27-0.81-0.55-1.33-0.82
						c-0.53-0.25-1.14-0.48-1.8-0.63c-0.67-0.14-1.31-0.2-1.9-0.2c-0.59,0.01-1.12,0.07-1.56,0.17c-0.88,0.18-1.39,0.43-1.41,0.37
						c-0.01-0.02,0.11-0.09,0.34-0.21c0.23-0.12,0.58-0.25,1.02-0.38c0.44-0.13,0.99-0.21,1.6-0.24c0.61-0.01,1.28,0.04,1.97,0.19
						c0.69,0.16,1.32,0.4,1.86,0.68c0.54,0.29,1,0.6,1.34,0.9c0.35,0.3,0.61,0.57,0.76,0.78
						C313.84,159.69,313.91,159.81,313.9,159.82z"/>
				</g>
			</g>
			<g>
				<path class="st12" d="M319.04,172.76c-0.05,0.02-0.31-0.55-0.93-1.32c-0.62-0.77-1.65-1.72-3.04-2.31
					c-1.39-0.59-2.79-0.68-3.77-0.59c-0.99,0.08-1.58,0.29-1.6,0.24c-0.01-0.02,0.13-0.09,0.4-0.18c0.27-0.09,0.67-0.2,1.17-0.27
					c1-0.15,2.46-0.09,3.91,0.52c1.45,0.62,2.5,1.63,3.09,2.46c0.3,0.41,0.5,0.77,0.62,1.03
					C319.01,172.6,319.06,172.75,319.04,172.76z"/>
			</g>
		</g>
	</g>
	<g>
		<path class="st6" d="M27.07,244.81l-3.41,13.52l-5.78,9.92c-0.42,0.71-0.14,1.63,0.6,2l0,0c0.42,0.21,0.9,0.2,1.31-0.02
			c2.59-1.4,12.11-6.6,12.31-7.6c0.22-1.16,4.54-14.02,4.54-14.02L27.07,244.81z"/>
		<path class="st16" d="M18.48,270.24l13.87-8.53l-0.16,0.57c-0.14,0.49-0.44,0.92-0.86,1.21c-1.13,0.77-4.3,2.82-11.5,6.74
			C19.41,270.46,18.91,270.47,18.48,270.24L18.48,270.24z"/>
		<g class="st17">
			<path class="st14" d="M30.79,256.62c-0.4,0.14-0.65,0.62-0.53,1.02c0.12,0.41,0.61,0.67,1.01,0.53c0.4-0.13,0.72-0.7,0.55-1.09
				c-0.17-0.39-0.75-0.66-1.11-0.44"/>
		</g>
		<g>
			<path class="st5" d="M23.18,265.22c-0.09,0.02-0.19-0.77-0.89-1.37c-0.68-0.62-1.47-0.64-1.47-0.72c0-0.04,0.2-0.09,0.52-0.05
				c0.32,0.04,0.77,0.21,1.15,0.55c0.38,0.34,0.6,0.76,0.68,1.07C23.25,265.02,23.22,265.22,23.18,265.22z"/>
		</g>
		<g>
			<path class="st5" d="M21.72,266.76c-0.08,0.04-0.39-0.52-1.03-0.91c-0.63-0.41-1.27-0.44-1.27-0.53
				c-0.02-0.08,0.71-0.19,1.43,0.27C21.58,266.04,21.8,266.74,21.72,266.76z"/>
		</g>
		<g>
			<path class="st5" d="M25.6,263.41c-0.08,0.05-0.55-0.81-1.5-1.51c-0.93-0.71-1.89-0.93-1.86-1.02c0-0.08,1.05,0.01,2.05,0.77
				C25.29,262.4,25.67,263.39,25.6,263.41z"/>
		</g>
		<g>
			<path class="st5" d="M26.98,259.38c-0.06,0.07-0.71-0.44-1.67-0.75c-0.95-0.32-1.79-0.28-1.79-0.37
				c-0.02-0.08,0.86-0.25,1.89,0.08C26.43,258.67,27.04,259.33,26.98,259.38z"/>
		</g>
		<g>
			<path class="st5" d="M28.08,255.44c-0.06,0.07-0.69-0.59-1.72-0.82c-1.03-0.26-1.88,0.04-1.91-0.05
				c-0.01-0.03,0.18-0.16,0.54-0.26c0.36-0.09,0.88-0.13,1.44,0c0.55,0.13,1.01,0.4,1.28,0.65
				C27.99,255.22,28.11,255.42,28.08,255.44z"/>
		</g>
		<g>
			<path class="st4" d="M26.59,253.87c-0.02,0,0-0.19,0.12-0.51c0.12-0.32,0.35-0.77,0.77-1.22c0.21-0.21,0.45-0.49,0.88-0.56
				c0.21-0.04,0.48,0.07,0.59,0.3c0.11,0.22,0.1,0.45,0.04,0.67c-0.25,0.85-1.21,1.47-2.2,1.33c-0.99-0.16-1.71-0.95-1.89-1.79
				c-0.03-0.21-0.02-0.46,0.14-0.66c0.17-0.2,0.46-0.22,0.65-0.13c0.38,0.17,0.57,0.47,0.76,0.7c0.36,0.5,0.54,0.97,0.63,1.3
				c0.09,0.33,0.1,0.52,0.08,0.52c-0.06,0.02-0.16-0.75-0.88-1.69c-0.19-0.22-0.4-0.49-0.68-0.6c-0.14-0.05-0.27-0.03-0.35,0.07
				c-0.08,0.09-0.1,0.27-0.07,0.44c0.16,0.69,0.82,1.41,1.66,1.54c0.84,0.13,1.68-0.42,1.89-1.1c0.05-0.16,0.05-0.34-0.01-0.47
				c-0.06-0.12-0.19-0.18-0.32-0.17c-0.29,0.03-0.54,0.27-0.75,0.46C26.8,253.12,26.65,253.9,26.59,253.87z"/>
		</g>
		<g>
			<g>
				<path class="st6" d="M69.55,248.44l-0.72,10.42c0,0,10.35,4.23,10.4,6.17l-20.25-0.67l0.46-16.28L69.55,248.44z"/>
				<g>
					<path class="st14" d="M62.59,257.77c-0.4,0.09-0.68,0.53-0.6,0.92c0.08,0.4,0.51,0.69,0.91,0.61c0.4-0.09,0.76-0.59,0.63-0.98
						c-0.12-0.39-0.65-0.71-1.02-0.53"/>
				</g>
				<path class="st14" d="M58.97,264.36l0.11-1.64l19.38,1.26c0,0,0.89,0.42,0.77,1.05L58.97,264.36z"/>
				<g>
					<path class="st5" d="M69.16,258.77c-0.01,0.1-0.5,0.13-1,0.43c-0.51,0.29-0.77,0.71-0.86,0.67c-0.09-0.02,0.08-0.61,0.69-0.96
						C68.59,258.54,69.18,258.68,69.16,258.77z"/>
				</g>
				<g>
					<path class="st5" d="M71.25,259.72c0.02,0.1-0.41,0.25-0.76,0.66c-0.36,0.4-0.46,0.85-0.56,0.84c-0.09,0.01-0.14-0.57,0.3-1.07
						C70.67,259.64,71.25,259.62,71.25,259.72z"/>
				</g>
				<g>
					<path class="st5" d="M72.37,262.3c-0.09,0.02-0.21-0.48,0.06-1.01c0.27-0.54,0.74-0.73,0.78-0.65
						c0.05,0.08-0.26,0.36-0.47,0.81C72.51,261.88,72.47,262.29,72.37,262.3z"/>
				</g>
				<g>
					<path class="st5" d="M69.06,256.37c-0.04,0.09-0.49-0.06-1.05-0.04c-0.56,0.01-1,0.18-1.05,0.09
						c-0.05-0.07,0.38-0.43,1.04-0.44C68.66,255.97,69.11,256.3,69.06,256.37z"/>
				</g>
			</g>
			<g>
				<path class="st4" d="M69.16,254.27c0,0.04-0.39,0.09-1.01-0.04c-0.31-0.06-0.67-0.18-1.05-0.36c-0.19-0.09-0.38-0.2-0.57-0.33
					c-0.09-0.06-0.2-0.13-0.3-0.25c-0.11-0.11-0.16-0.37-0.03-0.53c0.11-0.15,0.29-0.21,0.44-0.21c0.15,0,0.27,0.03,0.38,0.07
					c0.22,0.06,0.43,0.14,0.62,0.24c0.38,0.19,0.69,0.42,0.91,0.65c0.46,0.45,0.6,0.83,0.57,0.84c-0.05,0.03-0.26-0.29-0.73-0.66
					c-0.23-0.19-0.53-0.38-0.89-0.54c-0.18-0.08-0.37-0.15-0.58-0.2c-0.21-0.06-0.4-0.07-0.45,0.02c-0.02,0.04-0.02,0.05,0.02,0.11
					c0.04,0.06,0.13,0.12,0.22,0.18c0.18,0.12,0.35,0.23,0.53,0.32c0.35,0.19,0.68,0.32,0.97,0.41
					C68.79,254.18,69.17,254.22,69.16,254.27z"/>
			</g>
			<g>
				<path class="st4" d="M69.03,254.41c-0.04,0.01-0.22-0.35-0.23-0.99c-0.01-0.32,0.04-0.7,0.18-1.11c0.07-0.2,0.16-0.41,0.28-0.61
					c0.13-0.2,0.28-0.46,0.66-0.49c0.2,0,0.36,0.16,0.41,0.3c0.06,0.14,0.07,0.26,0.09,0.38c0.03,0.24,0.02,0.47-0.02,0.68
					c-0.08,0.43-0.27,0.78-0.47,1.03c-0.41,0.51-0.83,0.62-0.84,0.58c-0.03-0.05,0.32-0.23,0.64-0.72c0.16-0.24,0.3-0.57,0.35-0.94
					c0.03-0.19,0.03-0.39,0-0.59c-0.02-0.22-0.1-0.39-0.18-0.37c-0.1,0-0.28,0.15-0.37,0.32c-0.11,0.18-0.2,0.36-0.27,0.54
					c-0.14,0.36-0.21,0.71-0.23,1.01C68.99,254.02,69.09,254.39,69.03,254.41z"/>
			</g>
		</g>
		<g>
			<path class="st4" d="M48.39,60.23c-0.5-1.25-1.13-2.43-1.42-3.74c-0.21-0.98-0.54-2.45-0.17-3.38c0.37-0.93,1.31-1.84,2.52-1.62
				c0.25-1.96,1.25-3.56,3.2-4.57c1.75-0.9,3.48-1.37,5.45-1.56c0.59-0.06,1.52-0.04,2.06,0.21c0.54,0.25,1.05,0.77,1.27,1.3
				c1.01-0.84,2.49-1.12,4.01-0.75c1.52,0.37,3.26,1.14,3.96,2.54c0.43,0.87,0.61,1.95,0.2,3.34c-0.27,0.93-1.21,2.4-2.12,2.08"/>
			<g>
				<g>
					<g>
						<g>
							<g>
								<g>
									<g>
										<g>
											<g>
												<g>
													<g>
														<g>
															<path class="st18" d="M49.89,85.93l13.6-0.62c0.08-1.44-0.66-10.37-0.66-10.37s5.14-0.8,5.2-5.94
																c0.06-5.14-0.83-16.94-0.83-16.94l0,0c-5.95-2.56-12.82-1.69-17.95,2.26l-0.76,0.59L49.89,85.93z"/>
														</g>
													</g>
												</g>
											</g>
										</g>
										<g>
											<g>
												<g>
													<g>
														<g>
															<path class="st19" d="M62.84,74.86c0,0-3.25,0.26-6.7-1.9c0,0,1.58,3.7,6.71,3.24L62.84,74.86z"/>
														</g>
													</g>
												</g>
											</g>
										</g>
									</g>
								</g>
							</g>
							<g>
								<g>
									<g>
										<g>
											<g>
												<g>
													<path class="st18" d="M49.13,60.22c-0.09-0.04-3.53-1.04-3.42,2.47c0.11,3.51,3.62,2.68,3.62,2.58
														C49.33,65.17,49.13,60.22,49.13,60.22z"/>
												</g>
											</g>
										</g>
									</g>
								</g>
								<g>
									<g>
										<g>
											<g>
												<g>
													<g>
														<path class="st19" d="M48.21,63.97c-0.02-0.01-0.06,0.04-0.16,0.1c-0.1,0.05-0.27,0.09-0.46,0.02
															c-0.38-0.12-0.71-0.7-0.74-1.34c-0.02-0.32,0.04-0.63,0.14-0.88c0.1-0.26,0.26-0.45,0.45-0.48
															c0.18-0.05,0.32,0.06,0.37,0.16c0.05,0.1,0.03,0.17,0.05,0.17c0.01,0.01,0.07-0.06,0.04-0.21
															c-0.02-0.07-0.06-0.15-0.15-0.22c-0.09-0.07-0.21-0.1-0.34-0.08c-0.27,0.03-0.51,0.28-0.62,0.57
															c-0.13,0.28-0.2,0.63-0.18,0.99c0.05,0.71,0.43,1.36,0.94,1.49c0.25,0.06,0.45-0.02,0.56-0.11
															C48.21,64.06,48.22,63.98,48.21,63.97z"/>
													</g>
												</g>
											</g>
										</g>
									</g>
								</g>
							</g>
							<g>
								<g>
									<g>
										<g>
											<g>
												<g>
													<g>
														<g>
															<g>
																<g>
																	<g>
																		<path class="st4" d="M66.07,60.11c0.01,0.39-0.3,0.72-0.71,0.74c-0.4,0.02-0.74-0.27-0.76-0.66
																			c-0.01-0.39,0.3-0.72,0.71-0.74C65.72,59.43,66.06,59.73,66.07,60.11z"/>
																	</g>
																</g>
															</g>
														</g>
													</g>
													<g>
														<g>
															<g>
																<g>
																	<g>
																		<g>
																			<path class="st4" d="M66.23,59.29c-0.09,0.1-0.65-0.32-1.44-0.31c-0.79-0.01-1.37,0.4-1.45,0.3
																				c-0.04-0.04,0.05-0.22,0.3-0.4c0.25-0.18,0.67-0.36,1.16-0.36c0.49,0,0.91,0.18,1.14,0.37
																				C66.2,59.07,66.28,59.25,66.23,59.29z"/>
																		</g>
																	</g>
																</g>
															</g>
														</g>
													</g>
												</g>
												<g>
													<g>
														<g>
															<g>
																<g>
																	<g>
																		<path class="st4" d="M58.34,60.3c0.01,0.39-0.3,0.72-0.71,0.74c-0.4,0.02-0.74-0.27-0.76-0.66
																			c-0.01-0.39,0.3-0.72,0.71-0.74C57.98,59.61,58.32,59.91,58.34,60.3z"/>
																	</g>
																</g>
															</g>
														</g>
													</g>
													<g>
														<g>
															<g>
																<g>
																	<g>
																		<g>
																			<path class="st4" d="M58.47,59.44c-0.09,0.1-0.65-0.32-1.44-0.31c-0.79-0.01-1.37,0.4-1.45,0.3
																				c-0.04-0.04,0.05-0.22,0.3-0.4c0.25-0.18,0.67-0.36,1.16-0.36c0.49,0,0.91,0.18,1.14,0.37
																				C58.43,59.22,58.51,59.39,58.47,59.44z"/>
																		</g>
																	</g>
																</g>
															</g>
														</g>
													</g>
												</g>
												<g>
													<g>
														<g>
															<g>
																<g>
																	<g>
																		<path class="st4" d="M61.34,65.29c0-0.04,0.49-0.13,1.28-0.23c0.2-0.02,0.39-0.06,0.43-0.2
																			c0.05-0.15-0.04-0.36-0.13-0.6c-0.19-0.49-0.39-1-0.6-1.54c-0.83-2.19-1.43-3.98-1.34-4.02
																			c0.09-0.03,0.83,1.71,1.66,3.9c0.2,0.54,0.39,1.05,0.57,1.55c0.08,0.23,0.21,0.49,0.1,0.79
																			c-0.05,0.15-0.2,0.26-0.33,0.29c-0.13,0.04-0.24,0.04-0.34,0.05C61.84,65.33,61.34,65.34,61.34,65.29z"/>
																	</g>
																</g>
															</g>
														</g>
													</g>
												</g>
												<g>
													<g>
														<g>
															<g>
																<g>
																	<g>
																		<path class="st4" d="M59.01,65.84c0.13-0.01,0.13,0.85,0.86,1.46c0.73,0.61,1.65,0.51,1.65,0.63
																			c0.01,0.05-0.2,0.17-0.59,0.18c-0.38,0.01-0.93-0.11-1.38-0.48c-0.45-0.37-0.64-0.87-0.67-1.22
																			C58.86,66.05,58.95,65.83,59.01,65.84z"/>
																	</g>
																</g>
															</g>
														</g>
													</g>
												</g>
											</g>
										</g>
									</g>
									<g>
										<g>
											<g>
												<g>
													<g>
														<path class="st4" d="M58.67,56.34c-0.08,0.21-0.87,0.11-1.79,0.22c-0.93,0.09-1.68,0.36-1.8,0.17
															c-0.05-0.09,0.08-0.29,0.38-0.5c0.3-0.21,0.78-0.4,1.33-0.47c0.56-0.06,1.07,0.03,1.4,0.16
															C58.53,56.07,58.71,56.24,58.67,56.34z"/>
													</g>
												</g>
											</g>
										</g>
									</g>
									<g>
										<g>
											<g>
												<g>
													<g>
														<path class="st4" d="M65.94,57c-0.14,0.18-0.68-0.01-1.34-0.02c-0.65-0.03-1.21,0.12-1.34-0.07
															c-0.06-0.09,0.03-0.27,0.27-0.44c0.24-0.17,0.64-0.31,1.09-0.29c0.45,0.01,0.84,0.18,1.07,0.36
															C65.93,56.73,66,56.91,65.94,57z"/>
													</g>
												</g>
											</g>
										</g>
									</g>
								</g>
							</g>
						</g>
					</g>
					<g>
						<g>
							<path class="st4" d="M48.22,54.67c0.07,1.5-0.26,3.17,0,4.64c0.04,0.22,0.62,0.82,0.67,1.04c0.3,1.3,0.84,1.86,1.62,0.52
								c0.3-0.52,0.49-1.95,0.6-2.54c0.31-1.58,0.62-3.16,0.94-4.75c1.23,0.57,2.56,1.01,3.91,0.93c1.35-0.08,2.72-0.77,3.34-1.97
								c0.64,1.06,1.78,1.81,3.01,1.97c1.23,0.16,2.53-0.27,3.42-1.13c0.46,0.73,1.55,0.94,2.29,0.49c0.74-0.45,1.07-1.43,0.83-2.27
								c-0.35-1.25-1.7-1.93-2.95-2.3c-4.89-1.44-10.29-0.31-14.69,2.27c-0.64,0.38-1.27,0.79-1.77,1.34
								c-0.5,0.55-1.2,1.19-1.22,1.94"/>
						</g>
					</g>
				</g>
			</g>
			<g>
				<path class="st14" d="M51.92,54.81c-0.01,0.05-0.34-0.06-0.79,0.15c-0.23,0.1-0.48,0.27-0.72,0.49
					c-0.24,0.22-0.49,0.52-0.78,0.8c-0.29,0.29-0.62,0.54-0.98,0.65c-0.36,0.12-0.7,0.1-0.97,0.04c-0.55-0.14-0.77-0.43-0.74-0.45
					c0.03-0.04,0.29,0.17,0.78,0.24c0.24,0.03,0.54,0.02,0.84-0.09c0.3-0.11,0.59-0.33,0.86-0.61c0.28-0.27,0.53-0.56,0.81-0.8
					c0.28-0.23,0.56-0.4,0.83-0.48C51.6,54.58,51.94,54.78,51.92,54.81z"/>
			</g>
			<g>
				<path class="st14" d="M51.35,56.36c-0.01,0.04-0.26,0.01-0.55,0.26c-0.14,0.12-0.28,0.3-0.43,0.52
					c-0.16,0.22-0.38,0.46-0.65,0.64c-0.55,0.37-1.18,0.43-1.59,0.38c-0.42-0.05-0.65-0.2-0.63-0.24c0.02-0.05,0.26,0.03,0.65,0.02
					c0.38,0,0.93-0.1,1.41-0.42c0.49-0.3,0.73-0.84,1.13-1.08C51.07,56.2,51.38,56.32,51.35,56.36z"/>
			</g>
			<g>
				<path class="st14" d="M64.65,46.03c0-0.02,0.16-0.05,0.45,0.03c0.28,0.08,0.68,0.29,1.01,0.72c0.65,0.87,0.83,2.43,0.39,3.95
					c-0.45,1.55-1.55,2.64-2.44,3.16c-0.44,0.27-0.84,0.42-1.11,0.51c-0.28,0.09-0.44,0.1-0.44,0.09c-0.02-0.05,0.61-0.21,1.44-0.77
					c0.83-0.55,1.83-1.6,2.27-3.07c0.43-1.45,0.28-2.94-0.27-3.74c-0.27-0.4-0.62-0.63-0.87-0.73
					C64.81,46.07,64.65,46.05,64.65,46.03z"/>
			</g>
			<g>
				<path class="st14" d="M68.96,48.06c0.03,0,0.08,0.38-0.02,0.99c-0.09,0.61-0.35,1.44-0.86,2.24c-0.51,0.8-1.14,1.39-1.65,1.74
					c-0.51,0.35-0.87,0.48-0.89,0.45c-0.06-0.08,1.32-0.79,2.28-2.35C68.82,49.58,68.86,48.04,68.96,48.06z"/>
			</g>
		</g>
		<g>
			<g>
				<g>
					<g>
						<g>
							<g>
								<polygon class="st5" points="74.82,133.98 71.56,255.24 55.58,254.76 56.81,150.69 36.45,257.66 22.02,253.89 40.65,134.21 
																	"/>
							</g>
						</g>
					</g>
				</g>
			</g>
		</g>
		<g>
			<g>
				<g>
					<g>
						<path class="st18" d="M124.02,82.02l0.77-0.28c0,0,6.56,0.99,6.21-0.2c-0.46-1.56-6.35-2.08-6.9-2.02
							c-0.91,0.11-6.19,1.49-6.88,2.02c-0.7,0.52-4.58,5.66-4.58,5.66l6.61,5.11c0,0,1.57-0.07,3.35-2.12
							c0.91-1.04,2.21-2.84,2.21-2.84s-0.14-0.43-0.03-0.62c0.33-0.56-0.01-0.84-0.01-0.84c0.39-0.17,0.69-0.61,0.65-0.93
							c-0.02-0.2-0.07-0.44-0.24-0.56c-0.41-0.28-0.56-0.2-0.56-0.2s0.8-0.38,0.85-1.15c0.05-0.74-1.05-0.92-1.05-0.92"/>
					</g>
					<g>
						<g>
							<path class="st19" d="M130.92,81.85c0.01,0.04-0.49,0.24-1.36,0.35c-0.43,0.05-0.96,0.08-1.54,0.04
								c-0.57-0.07-1.19-0.17-1.84-0.27c-0.48-0.08-0.95-0.15-1.39-0.23l0.08-0.01c-1.85,0.62-3.2,1.03-3.23,0.95
								c-0.03-0.07,1.28-0.6,3.12-1.27l0.04-0.01l0.05,0.01c0.44,0.07,0.9,0.14,1.38,0.21c0.64,0.1,1.24,0.2,1.82,0.3
								c0.56,0.06,1.06,0.06,1.49,0.04C130.39,81.92,130.91,81.8,130.92,81.85z"/>
						</g>
					</g>
				</g>
			</g>
			<g>
				<path class="st18" d="M123.66,82.41c-0.63,0.68-1.14,1.24-1.77,1.92c-0.2,0.22-0.41,0.45-0.52,0.73
					c-0.1,0.28-0.07,0.64,0.16,0.83c0.18,0.16,0.45,0.19,0.68,0.12c0.23-0.06,0.44-0.2,0.63-0.35c0.7-0.52,1.56-1.16,2.19-1.77"/>
				<g>
					<path class="st19" d="M125.16,83.79c0.03,0.03-0.33,0.4-0.94,0.99c-0.31,0.29-0.68,0.63-1.16,0.94
						c-0.24,0.15-0.49,0.31-0.8,0.42c-0.16,0.05-0.33,0.09-0.51,0.07c-0.19-0.02-0.39-0.11-0.51-0.28c-0.25-0.34-0.16-0.77,0-1.05
						c0.17-0.29,0.37-0.5,0.55-0.71c0.37-0.42,0.72-0.78,1.01-1.08c0.59-0.6,1.01-0.92,1.03-0.89c0.03,0.03-0.33,0.4-0.88,1.04
						c-0.3,0.35-0.62,0.72-0.96,1.11c-0.17,0.21-0.37,0.43-0.5,0.67c-0.13,0.23-0.16,0.53-0.02,0.72c0.14,0.19,0.43,0.19,0.69,0.11
						c0.26-0.08,0.51-0.23,0.75-0.37c0.46-0.28,0.84-0.6,1.16-0.87C124.71,84.08,125.13,83.76,125.16,83.79z"/>
				</g>
			</g>
			<path class="st18" d="M124.5,84.46c0,0,0.53-0.7,0.8-0.7c0.27,0,0.67-0.03,0.9,0.46c0.2,0.41,0.04,0.58-0.58,1.53"/>
			<g>
				<path class="st18" d="M124.5,84.46c-0.51,0.59-0.93,1.07-1.45,1.65c-0.17,0.19-0.34,0.39-0.42,0.63
					c-0.08,0.24-0.06,0.55,0.13,0.72c0.15,0.14,0.37,0.16,0.56,0.11c0.19-0.05,0.36-0.17,0.52-0.3c0.57-0.45,1.27-1,1.78-1.52"/>
				<g>
					<path class="st19" d="M126.26,84.67c0.03,0.01-0.1,0.51-0.6,1.16c-0.25,0.32-0.58,0.68-1,1.03c-0.21,0.17-0.43,0.34-0.68,0.5
						c-0.25,0.15-0.51,0.34-0.88,0.38c-0.18,0.02-0.4-0.04-0.54-0.18c-0.14-0.15-0.19-0.34-0.19-0.51c0.01-0.36,0.21-0.62,0.37-0.83
						c0.34-0.42,0.66-0.77,0.93-1.07c0.55-0.59,0.94-0.91,0.97-0.88c0.03,0.03-0.3,0.4-0.81,1.02c-0.25,0.31-0.56,0.68-0.87,1.1
						c-0.16,0.2-0.3,0.43-0.3,0.66c0,0.24,0.15,0.42,0.4,0.39c0.25-0.02,0.51-0.18,0.75-0.32c0.24-0.15,0.46-0.31,0.66-0.47
						c0.41-0.32,0.75-0.65,1.01-0.95C126.01,85.11,126.21,84.65,126.26,84.67z"/>
				</g>
			</g>
			<g>
				<g>
					<path class="st18" d="M114.93,88.09c0.45,0.43,1.19,0.34,1.73,0.03c0.54-0.31,0.95-0.79,1.46-1.14
						c1.53-1.04,3.71-0.75,5.19-1.87c0.21-0.16,0.41-0.41,0.3-0.65c-0.1-0.22-0.39-0.25-0.63-0.25c-2.05,0.02-4.09,0.03-6.14,0.05"
						/>
				</g>
				<g>
					<g>
						<path class="st19" d="M116.86,84.26c0-0.02,0.24-0.05,0.66-0.07c0.43-0.02,1.05-0.05,1.81-0.07c0.8-0.02,1.7-0.04,2.68-0.06
							c0.25,0,0.51-0.01,0.78-0.01c0.25,0.02,0.57-0.07,0.9,0.2c0.15,0.15,0.17,0.41,0.09,0.57c-0.08,0.17-0.19,0.29-0.31,0.39
							c-0.25,0.18-0.5,0.34-0.78,0.46c-1.12,0.49-2.25,0.57-3.19,0.86c-0.48,0.14-0.91,0.31-1.27,0.55
							c-0.36,0.24-0.66,0.53-0.97,0.77c-0.6,0.51-1.3,0.68-1.74,0.58c-0.45-0.1-0.6-0.34-0.58-0.34c0.02-0.03,0.19,0.17,0.6,0.21
							c0.41,0.05,1-0.13,1.56-0.64c0.29-0.24,0.58-0.55,0.97-0.81c0.38-0.27,0.85-0.47,1.34-0.62c0.98-0.31,2.11-0.41,3.14-0.87
							c0.26-0.11,0.49-0.26,0.71-0.41c0.2-0.16,0.3-0.37,0.2-0.46c-0.1-0.11-0.38-0.11-0.65-0.11c-0.26,0-0.52,0-0.78,0
							c-0.99-0.01-1.89-0.01-2.69-0.02c-0.76-0.01-1.38-0.02-1.81-0.04C117.09,84.3,116.86,84.28,116.86,84.26z"/>
					</g>
				</g>
			</g>
			<path class="st18" d="M125.23,86.26c0,0,0.39-0.52,0.59-0.52c0.2,0,0.49-0.02,0.67,0.34c0.14,0.3,0.03,0.43-0.43,1.13"/>
			<g>
				<path class="st18" d="M125.23,86.26c-0.38,0.43-0.69,0.79-1.07,1.22c-0.12,0.14-0.25,0.29-0.31,0.47
					c-0.06,0.18-0.04,0.41,0.09,0.53c0.11,0.1,0.27,0.12,0.41,0.08c0.14-0.04,0.26-0.13,0.38-0.22c0.42-0.33,0.94-0.74,1.32-1.13"/>
				<g>
					<path class="st19" d="M126.53,86.42c0.03,0.01-0.06,0.39-0.43,0.88c-0.18,0.24-0.43,0.51-0.74,0.77
						c-0.15,0.13-0.32,0.26-0.51,0.38c-0.19,0.11-0.38,0.25-0.67,0.28c-0.14,0.02-0.32-0.03-0.43-0.15
						c-0.11-0.12-0.15-0.27-0.15-0.4c0.01-0.28,0.16-0.48,0.29-0.64c0.27-0.3,0.51-0.55,0.72-0.77c0.42-0.43,0.69-0.68,0.72-0.65
						c0.03,0.03-0.19,0.33-0.56,0.79c-0.22,0.26-0.43,0.53-0.66,0.8c-0.11,0.15-0.21,0.31-0.21,0.47c0.01,0.17,0.09,0.27,0.26,0.25
						c0.17-0.01,0.36-0.13,0.54-0.23c0.18-0.11,0.34-0.23,0.49-0.34c0.3-0.24,0.55-0.48,0.75-0.69
						C126.33,86.74,126.49,86.4,126.53,86.42z"/>
				</g>
			</g>
			<g>
				<path class="st19" d="M120.85,89.2c-0.09-0.01-0.03-0.67-0.38-1.35c-0.34-0.69-0.9-1.03-0.86-1.11
					c0.02-0.08,0.73,0.18,1.13,0.98C121.14,88.5,120.92,89.23,120.85,89.2z"/>
			</g>
		</g>
		<g>
			<g>
				<path class="st6" d="M75.28,138.54c0,0-1.12-32.78-1.45-37.62c8.08,4.51,20.62,10.28,21.97,10.56c2.43,0.51,24-18.68,24-18.68
					l-7.73-6.06L94.23,96.8L70.85,82.84l0,0.01c-1.63-1.19-3.57-2.01-5.71-2.27c-0.05-0.01-0.11-0.01-0.16-0.02
					c-0.83-0.1-1.24-0.22-1.74-0.28l0,0c-3.7,2.78-10.02,2.96-13.65,0.09c0,0,0,0,0,0s-2.75,0.62-4.4,0.94
					c-5.18,0.99-8.9,4.76-9.94,8.24l6.48,14.95l1.24,14.2l-3.28,18.25L75.28,138.54"/>
			</g>
			<g class="st10">
				<path class="st20" d="M41.71,124.99c1.38,1.31,3.41,1.89,5.28,1.52c1.33-0.27,2.59-0.99,3.95-0.9c1.48,0.1,2.71,1.13,4.06,1.75
					c2.52,1.14,5.47,0.78,8.15,0.06c1.23-0.33,2.52-0.77,3.31-1.77c0.62-0.77,0.85-1.78,1.02-2.75c0.31-1.8,0.44-3.63,0.4-5.45
					c-0.03-1.14-0.15-2.37-0.88-3.25c-0.59-0.72-1.52-1.11-2.44-1.23c-0.93-0.12-1.87,0-2.79,0.16c-7.3,1.2-14.29,4.2-20.2,8.66"/>
			</g>
			<g>
				<path class="st6" d="M54.73,118.96c0,0-16.99,7.6-18.72,7.98c-5.73,1.26-12.29-4.16-10.47-10.33c0.68-2.3,9.82-27.7,9.82-27.7
					l8.7,12.02l-3.68,12.3l9.64-0.64L54.73,118.96z"/>
			</g>
			<g>
				<g>
					<polygon class="st21" points="49.83,80.09 49.83,80.09 49.83,80.09 					"/>
				</g>
			</g>
			<g class="st22">
				<path class="st23" d="M74.44,84.62"/>
			</g>
			<g>
				<path class="st4" d="M49.23,112.69c0,0.02-0.24,0.05-0.67,0.09c-0.49,0.04-1.11,0.09-1.86,0.16c-1.58,0.12-3.79,0.28-6.31,0.44
					l-0.21,0.01l0.06-0.2c0.18-0.61,0.37-1.25,0.57-1.9c0.86-2.87,1.65-5.47,2.24-7.34c0.29-0.89,0.53-1.64,0.71-2.21
					c0.17-0.52,0.28-0.81,0.3-0.8s-0.05,0.3-0.19,0.83c-0.16,0.58-0.37,1.34-0.62,2.24c-0.54,1.89-1.3,4.49-2.16,7.37
					c-0.2,0.65-0.39,1.29-0.57,1.9l-0.15-0.19c2.52-0.15,4.73-0.26,6.32-0.33c0.75-0.03,1.37-0.05,1.86-0.07
					C48.99,112.66,49.23,112.67,49.23,112.69z"/>
			</g>
			<g>
				<path class="st4" d="M36.81,117.25c-0.03-0.01,0-0.34,0.18-0.83c0.18-0.49,0.54-1.15,1.1-1.74c0.56-0.59,1.18-0.99,1.66-1.21
					c0.48-0.22,0.81-0.27,0.82-0.24c0.04,0.09-1.2,0.51-2.26,1.66C37.24,116.01,36.9,117.28,36.81,117.25z"/>
			</g>
			<g>
				<path class="st4" d="M52.83,119.95c0.03,0.08-3.7,1.69-8.33,3.6c-4.63,1.91-8.41,3.39-8.44,3.32c-0.03-0.08,3.7-1.69,8.33-3.6
					C49.02,121.36,52.8,119.87,52.83,119.95z"/>
			</g>
			<g>
				<path class="st4" d="M74.73,122.43c-0.01,0-0.02-0.09-0.04-0.27c-0.01-0.21-0.03-0.47-0.04-0.77c-0.03-0.72-0.07-1.68-0.11-2.84
					c-0.09-2.4-0.23-5.7-0.44-9.35c-0.21-3.65-0.47-6.95-0.73-9.33c-0.13-1.19-0.26-2.15-0.36-2.81c-0.11-0.66-0.16-1.03-0.14-1.03
					c0.01,0,0.04,0.09,0.08,0.26c0.05,0.21,0.11,0.46,0.18,0.75c0.13,0.66,0.3,1.62,0.45,2.81c0.32,2.38,0.61,5.68,0.82,9.34
					c0.21,3.65,0.31,6.97,0.35,9.37c0.02,1.2,0.02,2.17,0.02,2.84c-0.01,0.31-0.01,0.56-0.01,0.77
					C74.75,122.34,74.74,122.43,74.73,122.43z"/>
			</g>
			<g>
				<path class="st3" d="M45.16,89.47c0.02,0.05-0.47,0.26-1.12,0.82c-0.64,0.55-1.42,1.49-1.79,2.75l-0.08,0.29l-0.18-0.24
					c-0.04-0.05-0.08-0.1-0.12-0.15c-0.83-1.07-2.06-1.51-2.93-1.6c-0.88-0.1-1.43,0.08-1.44,0.03c-0.01-0.02,0.12-0.08,0.37-0.14
					c0.25-0.06,0.62-0.12,1.09-0.1c0.91,0.04,2.25,0.48,3.15,1.63c0.04,0.06,0.09,0.11,0.13,0.17l-0.27,0.04
					c0.39-1.33,1.24-2.3,1.95-2.83C44.62,89.6,45.15,89.45,45.16,89.47z"/>
			</g>
			<g>
				<path class="st3" d="M56.16,96.47c0.02,0.05-0.47,0.26-1.12,0.82c-0.64,0.55-1.42,1.49-1.79,2.75l-0.08,0.29l-0.18-0.24
					c-0.04-0.05-0.08-0.1-0.12-0.15c-0.83-1.07-2.06-1.51-2.93-1.6c-0.88-0.1-1.43,0.08-1.44,0.03c-0.01-0.02,0.12-0.08,0.37-0.14
					c0.25-0.06,0.62-0.12,1.09-0.1c0.91,0.04,2.25,0.48,3.15,1.63c0.04,0.06,0.09,0.11,0.13,0.17l-0.27,0.04
					c0.39-1.33,1.24-2.3,1.95-2.83C55.62,96.59,56.15,96.44,56.16,96.47z"/>
			</g>
			<g>
				<path class="st14" d="M41.33,102.46c0.01,0.05-0.53,0.09-1.33,0.39c-0.79,0.3-1.84,0.93-2.61,1.99l-0.18,0.24l-0.09-0.29
					c-0.02-0.06-0.04-0.12-0.06-0.18c-0.42-1.28-1.43-2.12-2.22-2.5c-0.8-0.39-1.38-0.4-1.37-0.46c0-0.02,0.14-0.03,0.4-0.01
					c0.26,0.02,0.63,0.1,1.06,0.28c0.85,0.34,1.96,1.21,2.42,2.6c0.02,0.07,0.04,0.14,0.06,0.2l-0.27-0.05
					c0.82-1.12,1.95-1.75,2.78-2.01C40.78,102.39,41.33,102.43,41.33,102.46z"/>
			</g>
			<g>
				<path class="st14" d="M37.67,111.2c0.01,0.05-0.53,0.09-1.33,0.39c-0.79,0.3-1.84,0.93-2.61,1.99l-0.18,0.24l-0.09-0.29
					c-0.02-0.06-0.04-0.12-0.06-0.18c-0.42-1.28-1.43-2.12-2.22-2.5c-0.8-0.39-1.38-0.4-1.37-0.46c0-0.02,0.14-0.03,0.4-0.01
					c0.26,0.02,0.63,0.1,1.06,0.28c0.85,0.34,1.96,1.21,2.42,2.6c0.02,0.07,0.04,0.14,0.06,0.2l-0.27-0.05
					c0.82-1.12,1.95-1.75,2.78-2.01C37.12,111.14,37.67,111.17,37.67,111.2z"/>
			</g>
			<g>
				<path class="st14" d="M36.99,120.14c0.01,0.05-0.53,0.09-1.33,0.39c-0.79,0.3-1.84,0.93-2.61,1.99l-0.18,0.24l-0.09-0.29
					c-0.02-0.06-0.04-0.12-0.06-0.18c-0.42-1.28-1.43-2.12-2.22-2.5c-0.8-0.39-1.38-0.4-1.37-0.46c0-0.02,0.14-0.03,0.4-0.01
					c0.26,0.02,0.63,0.1,1.06,0.28c0.85,0.34,1.96,1.21,2.42,2.6c0.02,0.07,0.04,0.14,0.06,0.2l-0.27-0.05
					c0.82-1.12,1.95-1.75,2.78-2.01C36.44,120.07,37,120.11,36.99,120.14z"/>
			</g>
			<g>
				<path class="st14" d="M61.61,87.71c0.02,0.05-0.47,0.26-1.12,0.82c-0.64,0.55-1.42,1.49-1.79,2.75l-0.08,0.29l-0.19-0.24
					c-0.04-0.05-0.08-0.1-0.12-0.15c-0.83-1.07-2.06-1.51-2.93-1.6c-0.88-0.1-1.43,0.08-1.44,0.03c-0.01-0.02,0.12-0.08,0.37-0.14
					c0.25-0.06,0.62-0.12,1.09-0.1c0.91,0.04,2.25,0.48,3.15,1.63c0.04,0.06,0.09,0.11,0.13,0.17l-0.27,0.04
					c0.39-1.33,1.24-2.3,1.95-2.83C61.06,87.83,61.6,87.68,61.61,87.71z"/>
			</g>
			<g>
				<path class="st14" d="M70.24,84.73c0,0.05-0.54,0.05-1.35,0.31c-0.81,0.25-1.9,0.81-2.73,1.82l-0.19,0.23l-0.07-0.3
					c-0.01-0.06-0.03-0.12-0.05-0.19c-0.34-1.31-1.3-2.21-2.06-2.63c-0.77-0.44-1.35-0.49-1.34-0.55c0-0.02,0.14-0.02,0.4,0.01
					c0.25,0.04,0.62,0.14,1.04,0.34c0.82,0.39,1.88,1.33,2.25,2.74c0.02,0.07,0.03,0.14,0.05,0.2l-0.26-0.07
					c0.88-1.07,2.05-1.63,2.9-1.83C69.7,84.63,70.25,84.7,70.24,84.73z"/>
			</g>
			<g>
				<path class="st14" d="M52.33,82.86c0.02,0.05-0.47,0.26-1.12,0.82c-0.64,0.55-1.42,1.49-1.79,2.75l-0.08,0.29l-0.19-0.24
					c-0.04-0.05-0.08-0.1-0.12-0.15c-0.83-1.07-2.06-1.51-2.93-1.6c-0.88-0.1-1.43,0.08-1.44,0.03c-0.01-0.02,0.12-0.08,0.37-0.14
					c0.25-0.06,0.62-0.12,1.09-0.1c0.91,0.04,2.25,0.48,3.15,1.63c0.04,0.06,0.09,0.11,0.13,0.17l-0.27,0.04
					c0.39-1.33,1.24-2.3,1.95-2.83C51.79,82.98,52.32,82.83,52.33,82.86z"/>
			</g>
			<g>
				<path class="st14" d="M70.5,98.23c0.02,0.05-0.47,0.26-1.12,0.82c-0.64,0.55-1.42,1.49-1.79,2.75l-0.08,0.29l-0.19-0.24
					c-0.04-0.05-0.08-0.1-0.12-0.15c-0.83-1.07-2.06-1.51-2.93-1.6c-0.88-0.1-1.43,0.08-1.44,0.03c-0.01-0.02,0.12-0.08,0.37-0.14
					c0.25-0.06,0.62-0.12,1.09-0.1c0.91,0.04,2.25,0.48,3.15,1.63c0.04,0.06,0.09,0.11,0.13,0.17l-0.27,0.04
					c0.39-1.33,1.24-2.31,1.95-2.83C69.96,98.35,70.5,98.2,70.5,98.23z"/>
			</g>
			<g>
				<path class="st14" d="M54.31,121.84c0.02,0.05-0.47,0.26-1.12,0.82c-0.64,0.55-1.42,1.49-1.79,2.75l-0.08,0.29l-0.18-0.24
					c-0.04-0.05-0.08-0.1-0.12-0.15c-0.83-1.07-2.06-1.51-2.93-1.6c-0.88-0.1-1.43,0.08-1.44,0.03c-0.01-0.02,0.12-0.08,0.37-0.14
					c0.25-0.06,0.62-0.12,1.09-0.1c0.91,0.04,2.25,0.48,3.15,1.63c0.04,0.06,0.09,0.11,0.13,0.17l-0.27,0.04
					c0.39-1.33,1.24-2.3,1.95-2.83C53.76,121.96,54.3,121.81,54.31,121.84z"/>
			</g>
			<g>
				<path class="st14" d="M47.98,116.2c0.02,0.05-0.47,0.26-1.12,0.82c-0.64,0.55-1.42,1.49-1.79,2.75l-0.08,0.29l-0.18-0.24
					c-0.04-0.05-0.08-0.1-0.12-0.15c-0.83-1.07-2.06-1.51-2.93-1.6c-0.88-0.1-1.43,0.08-1.44,0.03c-0.01-0.02,0.12-0.08,0.37-0.14
					c0.25-0.06,0.62-0.12,1.09-0.1c0.91,0.04,2.25,0.48,3.15,1.63c0.04,0.06,0.09,0.11,0.13,0.17l-0.27,0.04
					c0.39-1.33,1.24-2.3,1.95-2.83C47.44,116.32,47.97,116.17,47.98,116.2z"/>
			</g>
			<g>
				<path class="st14" d="M73.8,118.69c0,0.05-0.54,0.03-1.37,0.24c-0.82,0.2-1.94,0.7-2.82,1.67l-0.2,0.22l-0.06-0.3
					c-0.01-0.06-0.02-0.13-0.04-0.19c-0.27-1.32-1.18-2.27-1.91-2.74c-0.75-0.48-1.32-0.56-1.31-0.62c0-0.02,0.15-0.01,0.4,0.04
					c0.25,0.05,0.61,0.17,1.02,0.4c0.8,0.44,1.81,1.43,2.1,2.86c0.01,0.07,0.03,0.14,0.04,0.21l-0.26-0.08
					c0.94-1.02,2.14-1.51,3-1.67C73.26,118.56,73.81,118.66,73.8,118.69z"/>
			</g>
			<g>
				<path class="st14" d="M61.76,130.21c0.01,0.05-0.52,0.15-1.27,0.55c-0.75,0.39-1.72,1.14-2.36,2.28l-0.15,0.26l-0.13-0.28
					c-0.03-0.06-0.05-0.12-0.08-0.18c-0.57-1.22-1.67-1.94-2.5-2.22c-0.84-0.29-1.42-0.24-1.41-0.3c0-0.02,0.14-0.05,0.4-0.06
					c0.26-0.01,0.63,0.02,1.08,0.15c0.88,0.24,2.09,0.97,2.71,2.29c0.03,0.07,0.06,0.13,0.09,0.19l-0.27-0.02
					c0.68-1.21,1.73-1.97,2.53-2.32C61.2,130.2,61.76,130.18,61.76,130.21z"/>
			</g>
			<g>
				<path class="st14" d="M69.48,125.69c0,0.05-0.54,0.03-1.37,0.24c-0.82,0.2-1.94,0.7-2.82,1.67l-0.2,0.22l-0.06-0.3
					c-0.01-0.06-0.02-0.13-0.04-0.19c-0.27-1.32-1.18-2.27-1.91-2.74c-0.75-0.48-1.32-0.56-1.31-0.62c0-0.02,0.15-0.01,0.4,0.04
					c0.25,0.05,0.61,0.17,1.02,0.4c0.8,0.44,1.81,1.43,2.1,2.86c0.01,0.07,0.03,0.14,0.04,0.21l-0.26-0.08
					c0.94-1.02,2.14-1.51,3-1.67C68.94,125.55,69.49,125.66,69.48,125.69z"/>
			</g>
			<g>
				<path class="st14" d="M49.99,132.87c0,0.05-0.54,0.03-1.37,0.24c-0.82,0.2-1.94,0.7-2.82,1.67l-0.2,0.22l-0.06-0.3
					c-0.01-0.06-0.02-0.13-0.04-0.19c-0.27-1.32-1.18-2.27-1.91-2.74c-0.75-0.48-1.32-0.56-1.31-0.62c0-0.02,0.15-0.01,0.4,0.04
					c0.25,0.05,0.61,0.17,1.02,0.4c0.8,0.44,1.81,1.43,2.1,2.86c0.01,0.07,0.03,0.14,0.04,0.21l-0.26-0.08
					c0.94-1.02,2.14-1.51,3-1.67C49.45,132.74,50,132.84,49.99,132.87z"/>
			</g>
			<g>
				<path class="st14" d="M73.38,131.89c0.02,0.05-0.48,0.24-1.16,0.76c-0.67,0.51-1.5,1.42-1.93,2.65l-0.1,0.28l-0.17-0.25
					c-0.03-0.05-0.07-0.11-0.11-0.16c-0.77-1.11-1.98-1.62-2.84-1.75c-0.88-0.14-1.43,0.01-1.44-0.05c0-0.02,0.13-0.07,0.38-0.13
					c0.25-0.05,0.63-0.09,1.09-0.04c0.91,0.08,2.23,0.59,3.06,1.79c0.04,0.06,0.08,0.12,0.12,0.17l-0.27,0.03
					c0.46-1.31,1.36-2.24,2.09-2.72C72.84,131.98,73.38,131.86,73.38,131.89z"/>
			</g>
			<g>
				<path class="st14" d="M70.86,107.91c0.02,0.05-0.47,0.26-1.12,0.82c-0.64,0.55-1.42,1.49-1.79,2.75l-0.08,0.29l-0.18-0.24
					c-0.04-0.05-0.08-0.1-0.12-0.15c-0.83-1.07-2.06-1.51-2.93-1.6c-0.88-0.1-1.43,0.08-1.44,0.03c-0.01-0.02,0.12-0.08,0.37-0.14
					c0.25-0.06,0.62-0.12,1.09-0.1c0.91,0.04,2.25,0.48,3.15,1.63c0.04,0.06,0.09,0.11,0.13,0.17l-0.27,0.04
					c0.39-1.33,1.24-2.3,1.95-2.83C70.32,108.03,70.85,107.89,70.86,107.91z"/>
			</g>
			<g>
				<path class="st14" d="M78.05,88.93c0.02,0.05-0.47,0.26-1.12,0.82c-0.64,0.55-1.42,1.49-1.79,2.75l-0.08,0.29l-0.19-0.24
					c-0.04-0.05-0.08-0.1-0.12-0.15c-0.83-1.07-2.06-1.51-2.93-1.6c-0.88-0.1-1.43,0.08-1.44,0.03c-0.01-0.02,0.12-0.08,0.37-0.14
					c0.25-0.06,0.62-0.12,1.09-0.1c0.91,0.04,2.25,0.48,3.15,1.63c0.04,0.06,0.09,0.11,0.13,0.17l-0.27,0.04
					c0.39-1.33,1.24-2.3,1.95-2.83C77.51,89.05,78.04,88.9,78.05,88.93z"/>
			</g>
			<g>
				<path class="st14" d="M95.3,98.46c0.02,0.05-0.47,0.26-1.12,0.82c-0.64,0.55-1.42,1.49-1.79,2.75l-0.08,0.29l-0.19-0.24
					c-0.04-0.05-0.08-0.1-0.12-0.15c-0.83-1.07-2.06-1.51-2.93-1.6c-0.88-0.1-1.43,0.08-1.44,0.03c-0.01-0.02,0.12-0.08,0.37-0.14
					c0.25-0.06,0.62-0.12,1.09-0.1c0.91,0.04,2.25,0.48,3.15,1.63c0.04,0.06,0.09,0.11,0.13,0.17l-0.27,0.04
					c0.39-1.33,1.24-2.31,1.95-2.83C94.76,98.58,95.29,98.43,95.3,98.46z"/>
			</g>
			<g>
				<path class="st14" d="M108.36,96.75c0.02,0.05-0.47,0.26-1.12,0.82c-0.64,0.55-1.42,1.49-1.79,2.75l-0.08,0.29l-0.19-0.24
					c-0.04-0.05-0.08-0.1-0.12-0.15c-0.83-1.07-2.06-1.51-2.93-1.6c-0.88-0.1-1.43,0.08-1.44,0.03c-0.01-0.02,0.12-0.08,0.37-0.14
					c0.25-0.06,0.62-0.12,1.09-0.1c0.91,0.04,2.25,0.48,3.15,1.63c0.04,0.06,0.09,0.11,0.13,0.17l-0.27,0.04
					c0.39-1.33,1.24-2.3,1.95-2.83C107.82,96.87,108.36,96.72,108.36,96.75z"/>
			</g>
			<g>
				<path class="st14" d="M114.35,89.47c0.02,0.05-0.47,0.26-1.12,0.82c-0.64,0.55-1.42,1.49-1.79,2.75l-0.08,0.29l-0.18-0.24
					c-0.04-0.05-0.08-0.1-0.12-0.15c-0.83-1.07-2.06-1.51-2.93-1.6c-0.88-0.1-1.43,0.08-1.44,0.03c-0.01-0.02,0.12-0.08,0.37-0.14
					c0.25-0.06,0.62-0.12,1.09-0.1c0.91,0.04,2.25,0.48,3.15,1.63c0.04,0.06,0.09,0.11,0.13,0.17l-0.27,0.04
					c0.39-1.33,1.24-2.3,1.95-2.83C113.81,89.6,114.34,89.45,114.35,89.47z"/>
			</g>
			<g>
				<path class="st14" d="M84.07,98.4c0.02,0.05-0.5,0.19-1.22,0.65c-0.72,0.45-1.62,1.28-2.16,2.47l-0.12,0.27l-0.15-0.27
					c-0.03-0.05-0.06-0.11-0.09-0.17c-0.67-1.17-1.83-1.79-2.67-2c-0.86-0.22-1.43-0.12-1.43-0.18c0-0.02,0.13-0.06,0.39-0.09
					c0.26-0.03,0.63-0.03,1.09,0.06c0.9,0.16,2.16,0.79,2.89,2.06c0.03,0.06,0.07,0.13,0.1,0.18l-0.27,0.01
					c0.57-1.26,1.55-2.11,2.32-2.53C83.51,98.44,84.06,98.37,84.07,98.4z"/>
			</g>
			<g>
				<path class="st14" d="M99.78,105.82c0.02,0.05-0.5,0.19-1.22,0.65c-0.72,0.45-1.62,1.28-2.16,2.47l-0.12,0.27l-0.15-0.27
					c-0.03-0.05-0.06-0.11-0.09-0.17c-0.67-1.17-1.83-1.79-2.67-2c-0.86-0.22-1.43-0.12-1.43-0.18c0-0.02,0.13-0.06,0.39-0.09
					c0.26-0.03,0.63-0.03,1.09,0.06c0.9,0.16,2.16,0.79,2.89,2.06c0.03,0.06,0.07,0.13,0.1,0.18l-0.27,0.01
					c0.57-1.26,1.55-2.11,2.32-2.53C99.22,105.87,99.77,105.79,99.78,105.82z"/>
			</g>
			<g>
				<path class="st4" d="M94.56,102.54c-0.06,0.04-0.67-1.2-0.79-2.88c-0.13-1.67,0.3-2.99,0.37-2.96c0.09,0.02-0.19,1.32-0.07,2.94
					C94.18,101.26,94.64,102.51,94.56,102.54z"/>
			</g>
			<g class="st10">
				<path class="st20" d="M42.77,113.25c1.3-1.47,2.1-3.37,2.24-5.33c0.14-1.96-0.22-3.98-1.28-5.62c0.03,0.21-1.68,5.9-1.68,5.9
					l0.44,4.86"/>
			</g>
			<g>
				<g>
					<g>
						<path class="st15" d="M50.78,112.12l-1.34-6.52c-0.11-0.52,0.29-1.01,0.83-1.01l16.88,0.08c0.5,0,0.89,0.44,0.83,0.94
							l-1.74,14.94c-0.07,0.59-0.57,1.03-1.17,1.03l-11.01-0.09c-0.53,0-0.99-0.36-1.12-0.88L50.78,112.12z"/>
					</g>
					<g>
						<g>
							<g>
								<path class="st18" d="M49.29,108.69c0.73,0,1.39,0.45,1.66,1.13c0.28,0.72,0.68,1.56,1.13,1.81
									c0.83,0.45,2.26,0.81,3.01,0.44c0.75-0.37,3.77-3.08,4.3-2.78c0.53,0.3,0.98,0.98,0.45,1.58c-0.53,0.6-3.32,2.41-2.79,3.01
									c0.53,0.6,6.41-2.05,7.31-1.82c0.9,0.23,1.43,0.79,0.9,1.15c-0.53,0.36-4.52,1.87-4.75,2.4c0,0,6.03-1.58,6.26-1.21
									c0.23,0.38,0.6,0.98,0,1.21c-0.6,0.23-5.8,1.58-6.26,1.81c-0.45,0.23-2.01,0.68-2.32,0.68c-0.16,0-1.34,0.4-2.43,0.77
									c-1.22,0.42-2.55,0.39-3.75-0.1l-0.61-0.25c-0.95-0.39-1.55-1.34-1.49-2.36l0.12-2.06c-0.65-1.46-1.3-2.91-1.95-4.37
									c-0.07-0.36,0.06-0.72,0.34-0.93C48.82,108.53,49.26,108.67,49.29,108.69z"/>
							</g>
						</g>
					</g>
				</g>
				<path class="st3" d="M59.43,107.11c0,0.34-0.27,0.61-0.61,0.61c-0.34,0-0.61-0.27-0.61-0.61c0-0.34,0.27-0.61,0.61-0.61
					C59.15,106.49,59.43,106.77,59.43,107.11z"/>
			</g>
		</g>
	</g>
	<g>
		<g>
			<g>
				<g>
					<path class="st11" d="M158.76,221.16c4.85,1.69,11.17,0.18,15.31-2.85c4.15-3.03,7.13-7.36,9.77-11.76
						c1.13-1.88,2.23-3.83,2.59-6s-0.17-4.59-1.84-6c-2.6-2.19-6.6-1.08-9.55,0.6C165.78,200.42,159.45,210.53,158.76,221.16"/>
				</g>
			</g>
			<g>
				<g>
					<path class="st11" d="M163.96,232.76c2.91,3.84,7.91,5.55,12.72,5.77c4.81,0.22,9.57-1.11,14.07-2.83
						c1.63-0.63,3.42-1.48,3.98-3.14c0.42-1.25-0.01-2.68-0.85-3.7c-0.84-1.02-2.03-1.7-3.25-2.21c-4.43-1.89-9.5-1.97-14.16-0.77
						C171.81,227.08,167.74,229.78,163.96,232.76"/>
				</g>
			</g>
			<g>
				<g>
					<path class="st11" d="M158.69,200.4c4.01,0.08,7.05-3.43,8.86-7.01c2.51-4.95,3.37-10.73,2.39-16.2
						c-0.37-2.05-1.14-4.26-2.98-5.25c-1.86-1-4.29-0.34-5.85,1.08c-1.56,1.43-2.42,3.46-3.04,5.48
						C155.92,185.47,156.38,193.48,158.69,200.4"/>
				</g>
			</g>
			<g>
				<g>
					<path class="st11" d="M145.51,222.58c6.84-11.64,7.98-25.88,3.94-38.76c-0.66-2.09-1.89-4.48-4.08-4.62
						c-2.42-0.15-3.94,2.55-4.61,4.88c-2.35,8.18-1.85,16.87-1.33,25.36C139.76,214.67,141.56,219.15,145.51,222.58"/>
				</g>
			</g>
			<g>
				<g>
					<path class="st11" d="M138.4,227.37c-2.48-7.97-8.78-14.66-16.6-17.6c-1.82-0.68-4.13-1.07-5.48,0.32
						c-1.33,1.36-0.92,3.64-0.07,5.34c1.38,2.75,3.61,4.96,5.84,7.08c2.03,1.93,4.13,3.86,6.69,4.98
						C131.35,228.61,136.06,228.9,138.4,227.37"/>
				</g>
			</g>
			<g>
				<g>
					<g>
						<path class="st4" d="M180.8,197.47c0,0-0.04,0.04-0.12,0.11c-0.1,0.08-0.22,0.17-0.37,0.29c-0.35,0.26-0.83,0.62-1.43,1.07
							c-0.31,0.23-0.66,0.49-1.04,0.77c-0.37,0.29-0.76,0.62-1.19,0.97c-0.85,0.71-1.85,1.47-2.85,2.43
							c-0.51,0.47-1.05,0.96-1.61,1.47c-0.56,0.51-1.09,1.09-1.68,1.66c-1.18,1.13-2.32,2.45-3.54,3.82
							c-2.37,2.8-4.81,6.02-7.05,9.61c-2.21,3.61-4.01,7.24-5.45,10.61c-0.67,1.71-1.34,3.32-1.83,4.88
							c-0.25,0.78-0.53,1.51-0.74,2.24c-0.21,0.73-0.4,1.43-0.59,2.1c-0.41,1.33-0.64,2.56-0.89,3.64c-0.12,0.54-0.24,1.04-0.34,1.5
							c-0.08,0.46-0.15,0.89-0.22,1.27c-0.13,0.75-0.24,1.33-0.32,1.76c-0.04,0.19-0.07,0.34-0.09,0.46
							c-0.02,0.1-0.04,0.15-0.04,0.15c-0.01,0,0-0.05,0.01-0.16c0.02-0.12,0.04-0.27,0.06-0.46c0.06-0.43,0.15-1.02,0.26-1.77
							c0.06-0.39,0.12-0.81,0.19-1.28c0.08-0.47,0.2-0.97,0.31-1.51c0.24-1.08,0.46-2.32,0.85-3.66c0.18-0.67,0.37-1.38,0.57-2.11
							c0.2-0.73,0.48-1.48,0.72-2.26c0.48-1.57,1.14-3.19,1.81-4.91c1.43-3.39,3.23-7.04,5.45-10.67c2.25-3.61,4.71-6.84,7.1-9.64
							c1.24-1.36,2.39-2.68,3.58-3.81c0.59-0.57,1.13-1.15,1.69-1.66c0.57-0.51,1.11-0.99,1.63-1.45c1.02-0.95,2.03-1.7,2.89-2.4
							c0.43-0.34,0.83-0.67,1.21-0.95c0.39-0.27,0.74-0.52,1.06-0.75c0.62-0.43,1.11-0.78,1.47-1.02c0.16-0.11,0.28-0.19,0.39-0.26
							C180.75,197.49,180.8,197.46,180.8,197.47z"/>
					</g>
				</g>
			</g>
			<g>
				<g>
					<g>
						<path class="st4" d="M189.86,229.73c0,0.01-0.16-0.02-0.47-0.08c-0.31-0.05-0.75-0.17-1.33-0.27
							c-1.16-0.23-2.85-0.48-4.95-0.61c-4.18-0.27-10.13,0.23-16.08,2.71c-5.95,2.48-10.5,6.35-13.26,9.5
							c-1.39,1.58-2.41,2.96-3.06,3.94c-0.34,0.48-0.57,0.88-0.75,1.14c-0.17,0.26-0.27,0.39-0.28,0.39
							c-0.01-0.01,0.07-0.15,0.22-0.42c0.16-0.27,0.37-0.68,0.7-1.17c0.62-1.01,1.61-2.41,2.99-4.02c2.73-3.21,7.29-7.15,13.3-9.65
							c6.01-2.5,12.01-2.96,16.22-2.63c2.11,0.15,3.81,0.45,4.96,0.71c0.58,0.12,1.02,0.25,1.32,0.33
							C189.71,229.67,189.86,229.72,189.86,229.73z"/>
					</g>
				</g>
			</g>
			<g>
				<g>
					<g>
						<path class="st4" d="M164.6,176.58c0.01,0,0,0.06-0.03,0.18c-0.03,0.14-0.06,0.31-0.11,0.52c-0.11,0.48-0.26,1.15-0.45,2
							c-0.39,1.74-0.99,4.25-1.75,7.35c-1.51,6.2-3.7,14.73-5.98,24.18c-1.13,4.73-2.16,9.25-3.04,13.37
							c-0.87,4.12-1.61,7.85-2.16,10.99c-0.3,1.57-0.52,2.99-0.73,4.24c-0.22,1.25-0.38,2.33-0.51,3.21
							c-0.13,0.86-0.24,1.54-0.32,2.03c-0.04,0.22-0.07,0.39-0.09,0.53c-0.02,0.12-0.04,0.18-0.04,0.18c-0.01,0,0-0.06,0.01-0.18
							c0.02-0.14,0.03-0.31,0.06-0.53c0.06-0.49,0.15-1.17,0.26-2.04c0.11-0.89,0.26-1.97,0.46-3.22c0.19-1.25,0.4-2.68,0.68-4.25
							c0.52-3.15,1.24-6.88,2.09-11.01c0.87-4.13,1.89-8.65,3.02-13.38c2.28-9.46,4.51-17.98,6.07-24.16
							c0.78-3.07,1.41-5.57,1.85-7.32c0.22-0.85,0.39-1.51,0.51-1.99c0.06-0.21,0.1-0.38,0.14-0.52
							C164.58,176.64,164.6,176.58,164.6,176.58z"/>
					</g>
				</g>
			</g>
			<g>
				<g>
					<g>
						<path class="st4" d="M148.9,244.42c-0.01,0-0.02-0.05-0.04-0.14c-0.03-0.11-0.06-0.25-0.1-0.42c-0.08-0.4-0.19-0.94-0.34-1.62
							c-0.29-1.41-0.67-3.45-1.11-5.98c-0.88-5.06-1.92-12.1-2.56-19.92c-0.31-3.91-0.48-7.65-0.56-11.05
							c-0.06-3.4-0.03-6.46,0.08-9.03c0.03-1.29,0.12-2.45,0.17-3.47c0.05-1.02,0.12-1.9,0.19-2.61c0.06-0.69,0.11-1.24,0.15-1.65
							c0.02-0.17,0.03-0.31,0.05-0.43c0.01-0.1,0.02-0.15,0.03-0.14c0.01,0,0.01,0.05,0.01,0.15c0,0.12-0.01,0.26-0.02,0.43
							c-0.02,0.4-0.05,0.96-0.09,1.65c-0.05,0.72-0.1,1.59-0.14,2.61c-0.04,1.02-0.11,2.18-0.12,3.46
							c-0.08,2.57-0.08,5.62-0.01,9.02c0.09,3.39,0.27,7.12,0.58,11.03c0.64,7.81,1.64,14.84,2.46,19.91c0.41,2.54,0.76,4.58,1.01,6
							c0.12,0.69,0.21,1.23,0.28,1.63c0.03,0.17,0.05,0.31,0.06,0.43C148.9,244.37,148.9,244.42,148.9,244.42z"/>
					</g>
				</g>
			</g>
			<g>
				<g>
					<g>
						<path class="st4" d="M149.4,245.9c-0.01,0-0.07-0.14-0.18-0.4c-0.11-0.3-0.26-0.69-0.45-1.17c-0.1-0.26-0.2-0.54-0.32-0.85
							c-0.14-0.3-0.28-0.63-0.44-0.98c-0.16-0.35-0.32-0.73-0.5-1.13c-0.18-0.4-0.41-0.8-0.62-1.24c-0.22-0.43-0.46-0.89-0.7-1.36
							c-0.27-0.46-0.54-0.94-0.83-1.43c-0.55-1-1.26-2-1.94-3.09c-1.47-2.11-3.19-4.36-5.15-6.58c-1.98-2.21-4.01-4.19-5.91-5.92
							c-0.98-0.83-1.88-1.66-2.79-2.35c-0.45-0.36-0.88-0.7-1.29-1.03c-0.43-0.31-0.84-0.62-1.23-0.91
							c-0.78-0.59-1.51-1.08-2.15-1.51c-0.64-0.44-1.19-0.81-1.66-1.09c-0.44-0.28-0.79-0.5-1.06-0.67
							c-0.24-0.16-0.36-0.24-0.36-0.25c0.01-0.01,0.14,0.06,0.39,0.2c0.28,0.16,0.64,0.36,1.09,0.62c0.48,0.26,1.05,0.62,1.69,1.04
							c0.65,0.42,1.4,0.9,2.18,1.48c0.4,0.28,0.81,0.58,1.25,0.89c0.42,0.33,0.86,0.67,1.31,1.02c0.92,0.69,1.83,1.51,2.82,2.34
							c1.93,1.72,3.96,3.7,5.96,5.93c1.97,2.24,3.7,4.5,5.16,6.63c0.68,1.1,1.39,2.1,1.93,3.12c0.28,0.5,0.56,0.98,0.82,1.45
							c0.24,0.48,0.47,0.93,0.68,1.37c0.21,0.44,0.43,0.85,0.6,1.26c0.17,0.4,0.33,0.79,0.48,1.15c0.15,0.36,0.29,0.69,0.42,1
							c0.11,0.31,0.21,0.6,0.3,0.86c0.16,0.49,0.29,0.89,0.39,1.19C149.37,245.75,149.41,245.89,149.4,245.9z"/>
					</g>
				</g>
			</g>
			<g>
				<g>
					<g>
						<path class="st4" d="M178.27,210.97c0,0.05-0.83,0.05-2.16,0.13c-1.33,0.07-3.17,0.25-5.16,0.62c-2,0.38-3.77,0.89-5.03,1.31
							c-1.27,0.42-2.04,0.72-2.06,0.68c-0.01-0.02,0.17-0.12,0.51-0.28c0.34-0.16,0.84-0.37,1.47-0.61
							c1.25-0.48,3.03-1.03,5.05-1.41c2.02-0.38,3.87-0.52,5.21-0.54c0.67-0.01,1.21,0,1.59,0.03
							C178.06,210.92,178.27,210.95,178.27,210.97z"/>
					</g>
				</g>
			</g>
			<g>
				<g>
					<g>
						<path class="st4" d="M183.43,236.17c-0.1,0.05-0.87-2.18-2.82-4.25c-1.92-2.09-4.08-3.03-4.03-3.12
							c0.01-0.03,0.57,0.15,1.39,0.61c0.82,0.46,1.89,1.23,2.87,2.29c0.98,1.06,1.67,2.18,2.07,3.03
							C183.32,235.59,183.46,236.16,183.43,236.17z"/>
					</g>
				</g>
			</g>
			<g>
				<g>
					<g>
						<path class="st4" d="M165.83,186.03c0.07,0.07-1.19,1.32-2.57,3.01c-1.38,1.69-2.35,3.17-2.43,3.12
							c-0.07-0.04,0.78-1.62,2.18-3.32C164.41,187.13,165.78,185.97,165.83,186.03z"/>
					</g>
				</g>
			</g>
			<g>
				<g>
					<g>
						<path class="st4" d="M161.7,178.9c0.09-0.01,0.37,1.19,0.62,2.7c0.26,1.51,0.39,2.74,0.31,2.75c-0.09,0.01-0.37-1.19-0.62-2.7
							C161.75,180.14,161.61,178.91,161.7,178.9z"/>
					</g>
				</g>
			</g>
			<g>
				<g>
					<g>
						<path class="st4" d="M148.91,201.29c0.08,0.04-0.82,1.93-2,4.21c-1.19,2.29-2.21,4.11-2.29,4.06c-0.08-0.04,0.82-1.93,2-4.21
							C147.8,203.07,148.83,201.25,148.91,201.29z"/>
					</g>
				</g>
			</g>
			<g>
				<g>
					<g>
						<path class="st4" d="M141.29,193.69c0.08-0.04,0.84,1.32,1.7,3.05c0.86,1.72,1.49,3.15,1.41,3.19
							c-0.08,0.04-0.84-1.32-1.7-3.05C141.84,195.16,141.21,193.73,141.29,193.69z"/>
					</g>
				</g>
			</g>
			<g>
				<g>
					<g>
						<path class="st4" d="M130.1,219.69c-0.02,0.09-1.38-0.17-3.07-0.29c-1.69-0.12-3.07-0.05-3.08-0.15
							c-0.01-0.08,1.38-0.3,3.1-0.17C128.77,219.2,130.12,219.61,130.1,219.69z"/>
					</g>
				</g>
			</g>
		</g>
		<g>
			<g>
				<g>
					<path class="st24" d="M137.74,242.68l3.81,20.02c0.25,1.32,1.41,2.28,2.76,2.28h11.25c1.37,0,2.54-0.99,2.77-2.35l3.31-19.96
						H137.74z"/>
				</g>
			</g>
			<g>
				<g>
					<polygon class="st25" points="138.98,249.18 160.49,249.18 161.63,242.68 137.74,242.68 					"/>
				</g>
			</g>
			<g>
				<g>
					<polygon class="st3" points="138.98,249.18 139.43,251.56 160.16,251.56 160.49,249.18 					"/>
				</g>
			</g>
		</g>
	</g>
	<g>
		<path class="st2" d="M370.07,170.84H342.6c-5.88,0-10.64-4.77-10.64-10.64v-16.12c0-5.88,4.77-10.64,10.64-10.64h27.47
			c5.88,0,10.64,4.77,10.64,10.64v16.12C380.72,166.07,375.95,170.84,370.07,170.84z"/>
		<path class="st1" d="M373.01,170.84h-27.47c-5.88,0-10.64-4.77-10.64-10.64v-16.12c0-5.88,4.77-10.64,10.64-10.64h27.47
			c5.88,0,10.64,4.77,10.64,10.64v16.12C383.65,166.07,378.88,170.84,373.01,170.84z"/>
		<polygon class="st1" points="352.75,163.7 352.22,178.35 364.31,178.35 364.31,163.86 		"/>
		<path class="st3" d="M361.41,151.35c0,1.18-0.96,2.14-2.14,2.14c-1.18,0-2.14-0.96-2.14-2.14c0-1.18,0.96-2.14,2.14-2.14
			C360.45,149.21,361.41,150.17,361.41,151.35z"/>
	</g>
	<g>
		<rect x="340.05" y="178.52" class="st26" width="43.75" height="86.59"/>
		<rect x="283.37" y="178.52" class="st25" width="100.43" height="7.37"/>
		<rect x="282.62" y="178.52" class="st26" width="43.75" height="86.59"/>
	</g>
</g>
</svg>
